<svg width="440" height="440" viewBox="0 0 440 440" fill="none" xmlns="http://www.w3.org/2000/svg">
<g clip-path="url(#clip0_2307_18641)">
<path d="M172.859 31.4285H157.145V47.1428H172.859V31.4285Z" fill="#182462"/>
<path d="M188.574 31.4285H172.859V47.1428H188.574V31.4285Z" fill="#182462"/>
<path d="M204.289 31.4285H188.574V47.1428H204.289V31.4285Z" fill="#182462"/>
<path d="M219.999 31.4285H204.285V47.1428H219.999V31.4285Z" fill="#182462"/>
<path d="M141.429 47.1428H125.715V62.8571H141.429V47.1428Z" fill="#182462"/>
<path d="M157.144 47.1428H141.43V62.8571H157.144V47.1428Z" fill="#182462"/>
<path d="M172.859 47.1428H157.145V62.8571H172.859V47.1428Z" fill="#BAAEF9"/>
<path d="M188.574 47.1428H172.859V62.8571H188.574V47.1428Z" fill="#BAAEF9"/>
<path d="M204.289 47.1428H188.574V62.8571H204.289V47.1428Z" fill="#BAAEF9"/>
<path d="M219.999 47.1428H204.285V62.8571H219.999V47.1428Z" fill="#BAAEF9"/>
<path d="M109.999 62.8569H94.2852V78.5712H109.999V62.8569Z" fill="#182462"/>
<path d="M125.714 62.8569H110V78.5712H125.714V62.8569Z" fill="#182462"/>
<path d="M141.429 62.8569H125.715V78.5712H141.429V62.8569Z" fill="#BAAEF9"/>
<path d="M157.144 62.8569H141.43V78.5712H157.144V62.8569Z" fill="#BAAEF9"/>
<path d="M172.859 62.8569H157.145V78.5712H172.859V62.8569Z" fill="#E3C8FF"/>
<path d="M188.574 62.8569H172.859V78.5712H188.574V62.8569Z" fill="#E3C8FF"/>
<path d="M204.289 62.8569H188.574V78.5712H204.289V62.8569Z" fill="#E3C8FF"/>
<path d="M219.999 62.8569H204.285V78.5712H219.999V62.8569Z" fill="#E3C8FF"/>
<path d="M94.2885 78.5713H78.5742V94.2856H94.2885V78.5713Z" fill="#182462"/>
<path d="M109.999 78.5713H94.2852V94.2856H109.999V78.5713Z" fill="#182462"/>
<path d="M125.714 78.5713H110V94.2856H125.714V78.5713Z" fill="#BAAEF9"/>
<path d="M141.429 78.5713H125.715V94.2856H141.429V78.5713Z" fill="#E3C8FF"/>
<path d="M157.144 78.5713H141.43V94.2856H157.144V78.5713Z" fill="#E3C8FF"/>
<path d="M172.859 78.5713H157.145V94.2856H172.859V78.5713Z" fill="black"/>
<path d="M188.574 78.5713H172.859V94.2856H188.574V78.5713Z" fill="black"/>
<path d="M204.289 78.5713H188.574V94.2856H204.289V78.5713Z" fill="black"/>
<path d="M219.999 78.5713H204.285V94.2856H219.999V78.5713Z" fill="black"/>
<path d="M78.5737 94.2856H62.8594V110H78.5737V94.2856Z" fill="#182462"/>
<path d="M94.2885 94.2856H78.5742V110H94.2885V94.2856Z" fill="#182462"/>
<path d="M109.999 94.2856H94.2852V110H109.999V94.2856Z" fill="#BAAEF9"/>
<path d="M125.714 94.2856H110V110H125.714V94.2856Z" fill="#E3C8FF"/>
<path d="M141.429 94.2856H125.715V110H141.429V94.2856Z" fill="#E3C8FF"/>
<path d="M157.144 94.2856H141.43V110H157.144V94.2856Z" fill="black"/>
<path d="M172.859 94.2856H157.145V110H172.859V94.2856Z" fill="black"/>
<path d="M188.574 94.2856H172.859V110H188.574V94.2856Z" fill="black"/>
<path d="M204.289 94.2856H188.574V110H204.289V94.2856Z" fill="black"/>
<path d="M219.999 94.2856H204.285V110H219.999V94.2856Z" fill="black"/>
<path d="M78.5737 110H62.8594V125.714H78.5737V110Z" fill="#182462"/>
<path d="M94.2885 110H78.5742V125.714H94.2885V110Z" fill="#BAAEF9"/>
<path d="M109.999 110H94.2852V125.714H109.999V110Z" fill="#E3C8FF"/>
<path d="M125.714 110H110V125.714H125.714V110Z" fill="black"/>
<path d="M141.429 110H125.715V125.714H141.429V110Z" fill="black"/>
<path d="M157.144 110H141.43V125.714H157.144V110Z" fill="black"/>
<path d="M172.859 110H157.145V125.714H172.859V110Z" fill="black"/>
<path d="M188.574 110H172.859V125.714H188.574V110Z" fill="black"/>
<path d="M204.289 110H188.574V125.714H204.289V110Z" fill="black"/>
<path d="M219.999 110H204.285V125.714H219.999V110Z" fill="black"/>
<path d="M62.8588 125.714H47.1445V141.428H62.8588V125.714Z" fill="#182462"/>
<path d="M78.5737 125.714H62.8594V141.428H78.5737V125.714Z" fill="#BAAEF9"/>
<path d="M94.2885 125.714H78.5742V141.428H94.2885V125.714Z" fill="#E3C8FF"/>
<path d="M109.999 125.714H94.2852V141.428H109.999V125.714Z" fill="#E3C8FF"/>
<path d="M125.714 125.714H110V141.428H125.714V125.714Z" fill="black"/>
<path d="M141.429 125.714H125.715V141.428H141.429V125.714Z" fill="black"/>
<path d="M157.144 125.714H141.43V141.428H157.144V125.714Z" fill="black"/>
<path d="M172.859 125.714H157.145V141.428H172.859V125.714Z" fill="black"/>
<path d="M188.574 125.714H172.859V141.428H188.574V125.714Z" fill="black"/>
<path d="M204.289 125.714H188.574V141.428H204.289V125.714Z" fill="black"/>
<path d="M219.999 125.714H204.285V141.428H219.999V125.714Z" fill="black"/>
<path d="M62.8588 141.428H47.1445V157.143H62.8588V141.428Z" fill="#182462"/>
<path d="M78.5737 141.428H62.8594V157.143H78.5737V141.428Z" fill="#BAAEF9"/>
<path d="M94.2885 141.428H78.5742V157.143H94.2885V141.428Z" fill="#E3C8FF"/>
<path d="M109.999 141.428H94.2852V157.143H109.999V141.428Z" fill="black"/>
<path d="M125.714 141.428H110V157.143H125.714V141.428Z" fill="black"/>
<path d="M141.429 141.428H125.715V157.143H141.429V141.428Z" fill="black"/>
<path d="M157.144 141.428H141.43V157.143H157.144V141.428Z" fill="black"/>
<path d="M172.859 141.428H157.145V157.143H172.859V141.428Z" fill="black"/>
<path d="M188.574 141.428H172.859V157.143H188.574V141.428Z" fill="black"/>
<path d="M204.289 141.428H188.574V157.143H204.289V141.428Z" fill="black"/>
<path d="M219.999 141.428H204.285V157.143H219.999V141.428Z" fill="black"/>
<path d="M47.144 157.143H31.4297V172.857H47.144V157.143Z" fill="#182462"/>
<path d="M62.8588 157.143H47.1445V172.857H62.8588V157.143Z" fill="#BAAEF9"/>
<path d="M78.5737 157.143H62.8594V172.857H78.5737V157.143Z" fill="#E3C8FF"/>
<path d="M94.2885 157.143H78.5742V172.857H94.2885V157.143Z" fill="black"/>
<path d="M109.999 157.143H94.2852V172.857H109.999V157.143Z" fill="black"/>
<path d="M125.714 157.143H110V172.857H125.714V157.143Z" fill="black"/>
<path d="M141.429 157.143H125.715V172.857H141.429V157.143Z" fill="black"/>
<path d="M157.144 157.143H141.43V172.857H157.144V157.143Z" fill="black"/>
<path d="M172.859 157.143H157.145V172.857H172.859V157.143Z" fill="black"/>
<path d="M188.574 157.143H172.859V172.857H188.574V157.143Z" fill="black"/>
<path d="M204.289 157.143H188.574V172.857H204.289V157.143Z" fill="black"/>
<path d="M219.999 157.143H204.285V172.857H219.999V157.143Z" fill="black"/>
<path d="M47.144 172.857H31.4297V188.571H47.144V172.857Z" fill="#182462"/>
<path d="M62.8588 172.857H47.1445V188.571H62.8588V172.857Z" fill="#BAAEF9"/>
<path d="M78.5737 172.857H62.8594V188.571H78.5737V172.857Z" fill="#E3C8FF"/>
<path d="M94.2885 172.857H78.5742V188.571H94.2885V172.857Z" fill="black"/>
<path d="M109.999 172.857H94.2852V188.571H109.999V172.857Z" fill="black"/>
<path d="M125.714 172.857H110V188.571H125.714V172.857Z" fill="black"/>
<path d="M141.429 172.857H125.715V188.571H141.429V172.857Z" fill="black"/>
<path d="M157.144 172.857H141.43V188.571H157.144V172.857Z" fill="black"/>
<path d="M172.859 172.857H157.145V188.571H172.859V172.857Z" fill="black"/>
<path d="M188.574 172.857H172.859V188.571H188.574V172.857Z" fill="black"/>
<path d="M204.289 172.857H188.574V188.571H204.289V172.857Z" fill="black"/>
<path d="M219.999 172.857H204.285V188.571H219.999V172.857Z" fill="black"/>
<path d="M47.144 188.571H31.4297V204.286H47.144V188.571Z" fill="#182462"/>
<path d="M62.8588 188.571H47.1445V204.286H62.8588V188.571Z" fill="#BAAEF9"/>
<path d="M78.5737 188.571H62.8594V204.286H78.5737V188.571Z" fill="#E3C8FF"/>
<path d="M94.2885 188.571H78.5742V204.286H94.2885V188.571Z" fill="black"/>
<path d="M109.999 188.571H94.2852V204.286H109.999V188.571Z" fill="black"/>
<path d="M125.714 188.571H110V204.286H125.714V188.571Z" fill="black"/>
<path d="M141.429 188.571H125.715V204.286H141.429V188.571Z" fill="black"/>
<path d="M157.144 188.571H141.43V204.286H157.144V188.571Z" fill="black"/>
<path d="M172.859 188.571H157.145V204.286H172.859V188.571Z" fill="black"/>
<path d="M188.574 188.571H172.859V204.286H188.574V188.571Z" fill="black"/>
<path d="M204.289 188.571H188.574V204.286H204.289V188.571Z" fill="black"/>
<path d="M219.999 188.571H204.285V204.286H219.999V188.571Z" fill="black"/>
<path d="M47.144 204.286H31.4297V220H47.144V204.286Z" fill="#182462"/>
<path d="M62.8588 204.286H47.1445V220H62.8588V204.286Z" fill="#BAAEF9"/>
<path d="M78.5737 204.286H62.8594V220H78.5737V204.286Z" fill="#E3C8FF"/>
<path d="M94.2885 204.286H78.5742V220H94.2885V204.286Z" fill="black"/>
<path d="M109.999 204.286H94.2852V220H109.999V204.286Z" fill="black"/>
<path d="M125.714 204.286H110V220H125.714V204.286Z" fill="black"/>
<path d="M141.429 204.286H125.715V220H141.429V204.286Z" fill="black"/>
<path d="M157.144 204.286H141.43V220H157.144V204.286Z" fill="black"/>
<path d="M172.859 204.286H157.145V220H172.859V204.286Z" fill="black"/>
<path d="M188.574 204.286H172.859V220H188.574V204.286Z" fill="black"/>
<path d="M204.289 204.286H188.574V220H204.289V204.286Z" fill="black"/>
<path d="M219.999 204.286H204.285V220H219.999V204.286Z" fill="black"/>
<path d="M267.141 31.4285H282.855V47.1428H267.141V31.4285Z" fill="#182462"/>
<path d="M251.426 31.4285H267.141V47.1428H251.426V31.4285Z" fill="#182462"/>
<path d="M235.711 31.4285H251.426V47.1428H235.711V31.4285Z" fill="#182462"/>
<path d="M220.001 31.4285H235.715V47.1428H220.001V31.4285Z" fill="#182462"/>
<path d="M298.571 47.1428H314.285V62.8571H298.571V47.1428Z" fill="#182462"/>
<path d="M282.856 47.1428H298.57V62.8571H282.856V47.1428Z" fill="#182462"/>
<path d="M267.141 47.1428H282.855V62.8571H267.141V47.1428Z" fill="#BAAEF9"/>
<path d="M251.426 47.1428H267.141V62.8571H251.426V47.1428Z" fill="#BAAEF9"/>
<path d="M235.711 47.1428H251.426V62.8571H235.711V47.1428Z" fill="#BAAEF9"/>
<path d="M220.001 47.1428H235.715V62.8571H220.001V47.1428Z" fill="#BAAEF9"/>
<path d="M330.001 62.8569H345.715V78.5712H330.001V62.8569Z" fill="#182462"/>
<path d="M314.286 62.8569H330V78.5712H314.286V62.8569Z" fill="#182462"/>
<path d="M298.571 62.8569H314.285V78.5712H298.571V62.8569Z" fill="#BAAEF9"/>
<path d="M282.856 62.8569H298.57V78.5712H282.856V62.8569Z" fill="#BAAEF9"/>
<path d="M267.141 62.8569H282.855V78.5712H267.141V62.8569Z" fill="#E3C8FF"/>
<path d="M251.426 62.8569H267.141V78.5712H251.426V62.8569Z" fill="#E3C8FF"/>
<path d="M235.711 62.8569H251.426V78.5712H235.711V62.8569Z" fill="#E3C8FF"/>
<path d="M220.001 62.8569H235.715V78.5712H220.001V62.8569Z" fill="#E3C8FF"/>
<path d="M345.711 78.5713H361.426V94.2856H345.711V78.5713Z" fill="#182462"/>
<path d="M330.001 78.5713H345.715V94.2856H330.001V78.5713Z" fill="#182462"/>
<path d="M314.286 78.5713H330V94.2856H314.286V78.5713Z" fill="#BAAEF9"/>
<path d="M298.571 78.5713H314.285V94.2856H298.571V78.5713Z" fill="#E3C8FF"/>
<path d="M282.856 78.5713H298.57V94.2856H282.856V78.5713Z" fill="#E3C8FF"/>
<path d="M267.141 78.5713H282.855V94.2856H267.141V78.5713Z" fill="black"/>
<path d="M251.426 78.5713H267.141V94.2856H251.426V78.5713Z" fill="black"/>
<path d="M235.711 78.5713H251.426V94.2856H235.711V78.5713Z" fill="black"/>
<path d="M220.001 78.5713H235.715V94.2856H220.001V78.5713Z" fill="black"/>
<path d="M361.426 94.2856H377.141V110H361.426V94.2856Z" fill="#182462"/>
<path d="M345.711 94.2856H361.426V110H345.711V94.2856Z" fill="#182462"/>
<path d="M330.001 94.2856H345.715V110H330.001V94.2856Z" fill="#BAAEF9"/>
<path d="M314.286 94.2856H330V110H314.286V94.2856Z" fill="#E3C8FF"/>
<path d="M298.571 94.2856H314.285V110H298.571V94.2856Z" fill="#E3C8FF"/>
<path d="M282.856 94.2856H298.57V110H282.856V94.2856Z" fill="black"/>
<path d="M267.141 94.2856H282.855V110H267.141V94.2856Z" fill="black"/>
<path d="M251.426 94.2856H267.141V110H251.426V94.2856Z" fill="black"/>
<path d="M235.711 94.2856H251.426V110H235.711V94.2856Z" fill="black"/>
<path d="M220.001 94.2856H235.715V110H220.001V94.2856Z" fill="black"/>
<path d="M361.426 110H377.141V125.714H361.426V110Z" fill="#182462"/>
<path d="M345.711 110H361.426V125.714H345.711V110Z" fill="#BAAEF9"/>
<path d="M330.001 110H345.715V125.714H330.001V110Z" fill="#E3C8FF"/>
<path d="M314.286 110H330V125.714H314.286V110Z" fill="black"/>
<path d="M298.571 110H314.285V125.714H298.571V110Z" fill="black"/>
<path d="M282.856 110H298.57V125.714H282.856V110Z" fill="black"/>
<path d="M267.141 110H282.855V125.714H267.141V110Z" fill="black"/>
<path d="M251.426 110H267.141V125.714H251.426V110Z" fill="black"/>
<path d="M235.711 110H251.426V125.714H235.711V110Z" fill="black"/>
<path d="M220.001 110H235.715V125.714H220.001V110Z" fill="black"/>
<path d="M377.141 125.714H392.855V141.428H377.141V125.714Z" fill="#182462"/>
<path d="M361.426 125.714H377.141V141.428H361.426V125.714Z" fill="#BAAEF9"/>
<path d="M345.711 125.714H361.426V141.428H345.711V125.714Z" fill="#E3C8FF"/>
<path d="M330.001 125.714H345.715V141.428H330.001V125.714Z" fill="#E3C8FF"/>
<path d="M314.286 125.714H330V141.428H314.286V125.714Z" fill="black"/>
<path d="M298.571 125.714H314.285V141.428H298.571V125.714Z" fill="black"/>
<path d="M282.856 125.714H298.57V141.428H282.856V125.714Z" fill="black"/>
<path d="M267.141 125.714H282.855V141.428H267.141V125.714Z" fill="black"/>
<path d="M251.426 125.714H267.141V141.428H251.426V125.714Z" fill="black"/>
<path d="M235.711 125.714H251.426V141.428H235.711V125.714Z" fill="black"/>
<path d="M220.001 125.714H235.715V141.428H220.001V125.714Z" fill="black"/>
<path d="M377.141 141.428H392.855V157.143H377.141V141.428Z" fill="#182462"/>
<path d="M361.426 141.428H377.141V157.143H361.426V141.428Z" fill="#BAAEF9"/>
<path d="M345.711 141.428H361.426V157.143H345.711V141.428Z" fill="#E3C8FF"/>
<path d="M330.001 141.428H345.715V157.143H330.001V141.428Z" fill="black"/>
<path d="M314.286 141.428H330V157.143H314.286V141.428Z" fill="black"/>
<path d="M298.571 141.428H314.285V157.143H298.571V141.428Z" fill="black"/>
<path d="M282.856 141.428H298.57V157.143H282.856V141.428Z" fill="black"/>
<path d="M267.141 141.428H282.855V157.143H267.141V141.428Z" fill="black"/>
<path d="M251.426 141.428H267.141V157.143H251.426V141.428Z" fill="black"/>
<path d="M235.711 141.428H251.426V157.143H235.711V141.428Z" fill="black"/>
<path d="M220.001 141.428H235.715V157.143H220.001V141.428Z" fill="black"/>
<path d="M392.856 157.143H408.57V172.857H392.856V157.143Z" fill="#182462"/>
<path d="M377.141 157.143H392.855V172.857H377.141V157.143Z" fill="#BAAEF9"/>
<path d="M361.426 157.143H377.141V172.857H361.426V157.143Z" fill="#E3C8FF"/>
<path d="M345.711 157.143H361.426V172.857H345.711V157.143Z" fill="black"/>
<path d="M330.001 157.143H345.715V172.857H330.001V157.143Z" fill="black"/>
<path d="M314.286 157.143H330V172.857H314.286V157.143Z" fill="black"/>
<path d="M298.571 157.143H314.285V172.857H298.571V157.143Z" fill="black"/>
<path d="M282.856 157.143H298.57V172.857H282.856V157.143Z" fill="black"/>
<path d="M267.141 157.143H282.855V172.857H267.141V157.143Z" fill="black"/>
<path d="M251.426 157.143H267.141V172.857H251.426V157.143Z" fill="black"/>
<path d="M235.711 157.143H251.426V172.857H235.711V157.143Z" fill="black"/>
<path d="M220.001 157.143H235.715V172.857H220.001V157.143Z" fill="black"/>
<path d="M392.856 172.857H408.57V188.571H392.856V172.857Z" fill="#182462"/>
<path d="M377.141 172.857H392.855V188.571H377.141V172.857Z" fill="#BAAEF9"/>
<path d="M361.426 172.857H377.141V188.571H361.426V172.857Z" fill="#E3C8FF"/>
<path d="M345.711 172.857H361.426V188.571H345.711V172.857Z" fill="black"/>
<path d="M330.001 172.857H345.715V188.571H330.001V172.857Z" fill="black"/>
<path d="M314.286 172.857H330V188.571H314.286V172.857Z" fill="black"/>
<path d="M298.571 172.857H314.285V188.571H298.571V172.857Z" fill="black"/>
<path d="M282.856 172.857H298.57V188.571H282.856V172.857Z" fill="black"/>
<path d="M267.141 172.857H282.855V188.571H267.141V172.857Z" fill="black"/>
<path d="M251.426 172.857H267.141V188.571H251.426V172.857Z" fill="black"/>
<path d="M235.711 172.857H251.426V188.571H235.711V172.857Z" fill="black"/>
<path d="M220.001 172.857H235.715V188.571H220.001V172.857Z" fill="black"/>
<path d="M392.856 188.571H408.57V204.286H392.856V188.571Z" fill="#182462"/>
<path d="M377.141 188.571H392.855V204.286H377.141V188.571Z" fill="#BAAEF9"/>
<path d="M361.426 188.571H377.141V204.286H361.426V188.571Z" fill="#E3C8FF"/>
<path d="M345.711 188.571H361.426V204.286H345.711V188.571Z" fill="black"/>
<path d="M330.001 188.571H345.715V204.286H330.001V188.571Z" fill="black"/>
<path d="M314.286 188.571H330V204.286H314.286V188.571Z" fill="black"/>
<path d="M298.571 188.571H314.285V204.286H298.571V188.571Z" fill="black"/>
<path d="M282.856 188.571H298.57V204.286H282.856V188.571Z" fill="black"/>
<path d="M267.141 188.571H282.855V204.286H267.141V188.571Z" fill="black"/>
<path d="M251.426 188.571H267.141V204.286H251.426V188.571Z" fill="black"/>
<path d="M235.711 188.571H251.426V204.286H235.711V188.571Z" fill="black"/>
<path d="M220.001 188.571H235.715V204.286H220.001V188.571Z" fill="black"/>
<path d="M392.856 204.286H408.57V220H392.856V204.286Z" fill="#182462"/>
<path d="M377.141 204.286H392.855V220H377.141V204.286Z" fill="#BAAEF9"/>
<path d="M361.426 204.286H377.141V220H361.426V204.286Z" fill="#E3C8FF"/>
<path d="M345.711 204.286H361.426V220H345.711V204.286Z" fill="black"/>
<path d="M330.001 204.286H345.715V220H330.001V204.286Z" fill="black"/>
<path d="M314.286 204.286H330V220H314.286V204.286Z" fill="black"/>
<path d="M298.571 204.286H314.285V220H298.571V204.286Z" fill="black"/>
<path d="M282.856 204.286H298.57V220H282.856V204.286Z" fill="black"/>
<path d="M267.141 204.286H282.855V220H267.141V204.286Z" fill="black"/>
<path d="M251.426 204.286H267.141V220H251.426V204.286Z" fill="black"/>
<path d="M235.711 204.286H251.426V220H235.711V204.286Z" fill="black"/>
<path d="M220.001 204.286H235.715V220H220.001V204.286Z" fill="black"/>
<path d="M172.859 408.572H157.145V392.857H172.859V408.572Z" fill="#182462"/>
<path d="M188.574 408.572H172.859V392.857H188.574V408.572Z" fill="#182462"/>
<path d="M204.289 408.572H188.574V392.857H204.289V408.572Z" fill="#182462"/>
<path d="M219.999 408.572H204.285V392.857H219.999V408.572Z" fill="#182462"/>
<path d="M141.429 392.857H125.715V377.143H141.429V392.857Z" fill="#182462"/>
<path d="M157.144 392.857H141.43V377.143H157.144V392.857Z" fill="#182462"/>
<path d="M172.859 392.857H157.145V377.143H172.859V392.857Z" fill="#BAAEF9"/>
<path d="M188.574 392.857H172.859V377.143H188.574V392.857Z" fill="#BAAEF9"/>
<path d="M204.289 392.857H188.574V377.143H204.289V392.857Z" fill="#BAAEF9"/>
<path d="M219.999 392.857H204.285V377.143H219.999V392.857Z" fill="#BAAEF9"/>
<path d="M109.999 377.143H94.2852V361.429H109.999V377.143Z" fill="#182462"/>
<path d="M125.714 377.143H110V361.429H125.714V377.143Z" fill="#182462"/>
<path d="M141.429 377.143H125.715V361.429H141.429V377.143Z" fill="#BAAEF9"/>
<path d="M157.144 377.143H141.43V361.429H157.144V377.143Z" fill="#BAAEF9"/>
<path d="M172.859 377.143H157.145V361.429H172.859V377.143Z" fill="#E3C8FF"/>
<path d="M188.574 377.143H172.859V361.429H188.574V377.143Z" fill="#E3C8FF"/>
<path d="M204.289 377.143H188.574V361.429H204.289V377.143Z" fill="#E3C8FF"/>
<path d="M219.999 377.143H204.285V361.429H219.999V377.143Z" fill="#E3C8FF"/>
<path d="M94.2885 361.429H78.5742V345.714H94.2885V361.429Z" fill="#182462"/>
<path d="M109.999 361.429H94.2852V345.714H109.999V361.429Z" fill="#182462"/>
<path d="M125.714 361.429H110V345.714H125.714V361.429Z" fill="#BAAEF9"/>
<path d="M141.429 361.429H125.715V345.714H141.429V361.429Z" fill="#E3C8FF"/>
<path d="M157.144 361.429H141.43V345.714H157.144V361.429Z" fill="#E3C8FF"/>
<path d="M172.859 361.429H157.145V345.714H172.859V361.429Z" fill="black"/>
<path d="M188.574 361.429H172.859V345.714H188.574V361.429Z" fill="black"/>
<path d="M204.289 361.429H188.574V345.714H204.289V361.429Z" fill="black"/>
<path d="M219.999 361.429H204.285V345.714H219.999V361.429Z" fill="black"/>
<path d="M78.5737 345.714H62.8594V330H78.5737V345.714Z" fill="#182462"/>
<path d="M94.2885 345.714H78.5742V330H94.2885V345.714Z" fill="#182462"/>
<path d="M109.999 345.714H94.2852V330H109.999V345.714Z" fill="#BAAEF9"/>
<path d="M125.714 345.714H110V330H125.714V345.714Z" fill="#E3C8FF"/>
<path d="M141.429 345.714H125.715V330H141.429V345.714Z" fill="#E3C8FF"/>
<path d="M157.144 345.714H141.43V330H157.144V345.714Z" fill="black"/>
<path d="M172.859 345.714H157.145V330H172.859V345.714Z" fill="black"/>
<path d="M188.574 345.714H172.859V330H188.574V345.714Z" fill="black"/>
<path d="M204.289 345.714H188.574V330H204.289V345.714Z" fill="black"/>
<path d="M219.999 345.714H204.285V330H219.999V345.714Z" fill="black"/>
<path d="M78.5737 330H62.8594V314.286H78.5737V330Z" fill="#182462"/>
<path d="M94.2885 330H78.5742V314.286H94.2885V330Z" fill="#BAAEF9"/>
<path d="M109.999 330H94.2852V314.286H109.999V330Z" fill="#E3C8FF"/>
<path d="M125.714 330H110V314.286H125.714V330Z" fill="black"/>
<path d="M141.429 330H125.715V314.286H141.429V330Z" fill="black"/>
<path d="M157.144 330H141.43V314.286H157.144V330Z" fill="black"/>
<path d="M172.859 330H157.145V314.286H172.859V330Z" fill="black"/>
<path d="M188.574 330H172.859V314.286H188.574V330Z" fill="black"/>
<path d="M204.289 330H188.574V314.286H204.289V330Z" fill="black"/>
<path d="M219.999 330H204.285V314.286H219.999V330Z" fill="black"/>
<path d="M62.8588 314.286H47.1445V298.572H62.8588V314.286Z" fill="#182462"/>
<path d="M78.5737 314.286H62.8594V298.572H78.5737V314.286Z" fill="#BAAEF9"/>
<path d="M94.2885 314.286H78.5742V298.572H94.2885V314.286Z" fill="#E3C8FF"/>
<path d="M109.999 314.286H94.2852V298.572H109.999V314.286Z" fill="#E3C8FF"/>
<path d="M125.714 314.286H110V298.572H125.714V314.286Z" fill="black"/>
<path d="M141.429 314.286H125.715V298.572H141.429V314.286Z" fill="black"/>
<path d="M157.144 314.286H141.43V298.572H157.144V314.286Z" fill="black"/>
<path d="M172.859 314.286H157.145V298.572H172.859V314.286Z" fill="black"/>
<path d="M188.574 314.286H172.859V298.572H188.574V314.286Z" fill="black"/>
<path d="M204.289 314.286H188.574V298.572H204.289V314.286Z" fill="black"/>
<path d="M219.999 314.286H204.285V298.572H219.999V314.286Z" fill="black"/>
<path d="M62.8588 298.572H47.1445V282.857H62.8588V298.572Z" fill="#182462"/>
<path d="M78.5737 298.572H62.8594V282.857H78.5737V298.572Z" fill="#BAAEF9"/>
<path d="M94.2885 298.572H78.5742V282.857H94.2885V298.572Z" fill="#E3C8FF"/>
<path d="M109.999 298.572H94.2852V282.857H109.999V298.572Z" fill="black"/>
<path d="M125.714 298.572H110V282.857H125.714V298.572Z" fill="black"/>
<path d="M141.429 298.572H125.715V282.857H141.429V298.572Z" fill="black"/>
<path d="M157.144 298.572H141.43V282.857H157.144V298.572Z" fill="black"/>
<path d="M172.859 298.572H157.145V282.857H172.859V298.572Z" fill="black"/>
<path d="M188.574 298.572H172.859V282.857H188.574V298.572Z" fill="black"/>
<path d="M204.289 298.572H188.574V282.857H204.289V298.572Z" fill="black"/>
<path d="M219.999 298.572H204.285V282.857H219.999V298.572Z" fill="black"/>
<path d="M47.144 282.857H31.4297V267.143H47.144V282.857Z" fill="#182462"/>
<path d="M62.8588 282.857H47.1445V267.143H62.8588V282.857Z" fill="#BAAEF9"/>
<path d="M78.5737 282.857H62.8594V267.143H78.5737V282.857Z" fill="#E3C8FF"/>
<path d="M94.2885 282.857H78.5742V267.143H94.2885V282.857Z" fill="black"/>
<path d="M109.999 282.857H94.2852V267.143H109.999V282.857Z" fill="black"/>
<path d="M125.714 282.857H110V267.143H125.714V282.857Z" fill="black"/>
<path d="M141.429 282.857H125.715V267.143H141.429V282.857Z" fill="black"/>
<path d="M157.144 282.857H141.43V267.143H157.144V282.857Z" fill="black"/>
<path d="M172.859 282.857H157.145V267.143H172.859V282.857Z" fill="black"/>
<path d="M188.574 282.857H172.859V267.143H188.574V282.857Z" fill="black"/>
<path d="M204.289 282.857H188.574V267.143H204.289V282.857Z" fill="black"/>
<path d="M219.999 282.857H204.285V267.143H219.999V282.857Z" fill="black"/>
<path d="M47.144 267.143H31.4297V251.429H47.144V267.143Z" fill="#182462"/>
<path d="M62.8588 267.143H47.1445V251.429H62.8588V267.143Z" fill="#BAAEF9"/>
<path d="M78.5737 267.143H62.8594V251.429H78.5737V267.143Z" fill="#E3C8FF"/>
<path d="M94.2885 267.143H78.5742V251.429H94.2885V267.143Z" fill="black"/>
<path d="M109.999 267.143H94.2852V251.429H109.999V267.143Z" fill="black"/>
<path d="M125.714 267.143H110V251.429H125.714V267.143Z" fill="black"/>
<path d="M141.429 267.143H125.715V251.429H141.429V267.143Z" fill="black"/>
<path d="M157.144 267.143H141.43V251.429H157.144V267.143Z" fill="black"/>
<path d="M172.859 267.143H157.145V251.429H172.859V267.143Z" fill="black"/>
<path d="M188.574 267.143H172.859V251.429H188.574V267.143Z" fill="black"/>
<path d="M204.289 267.143H188.574V251.429H204.289V267.143Z" fill="black"/>
<path d="M219.999 267.143H204.285V251.429H219.999V267.143Z" fill="black"/>
<path d="M47.144 251.429H31.4297V235.714H47.144V251.429Z" fill="#182462"/>
<path d="M62.8588 251.429H47.1445V235.714H62.8588V251.429Z" fill="#BAAEF9"/>
<path d="M78.5737 251.429H62.8594V235.714H78.5737V251.429Z" fill="#E3C8FF"/>
<path d="M94.2885 251.429H78.5742V235.714H94.2885V251.429Z" fill="black"/>
<path d="M109.999 251.429H94.2852V235.714H109.999V251.429Z" fill="black"/>
<path d="M125.714 251.429H110V235.714H125.714V251.429Z" fill="black"/>
<path d="M141.429 251.429H125.715V235.714H141.429V251.429Z" fill="black"/>
<path d="M157.144 251.429H141.43V235.714H157.144V251.429Z" fill="black"/>
<path d="M172.859 251.429H157.145V235.714H172.859V251.429Z" fill="black"/>
<path d="M188.574 251.429H172.859V235.714H188.574V251.429Z" fill="black"/>
<path d="M204.289 251.429H188.574V235.714H204.289V251.429Z" fill="black"/>
<path d="M219.999 251.429H204.285V235.714H219.999V251.429Z" fill="black"/>
<path d="M47.144 235.714H31.4297V220H47.144V235.714Z" fill="#182462"/>
<path d="M62.8588 235.714H47.1445V220H62.8588V235.714Z" fill="#BAAEF9"/>
<path d="M78.5737 235.714H62.8594V220H78.5737V235.714Z" fill="#E3C8FF"/>
<path d="M94.2885 235.714H78.5742V220H94.2885V235.714Z" fill="black"/>
<path d="M109.999 235.714H94.2852V220H109.999V235.714Z" fill="black"/>
<path d="M125.714 235.714H110V220H125.714V235.714Z" fill="black"/>
<path d="M141.429 235.714H125.715V220H141.429V235.714Z" fill="black"/>
<path d="M157.144 235.714H141.43V220H157.144V235.714Z" fill="black"/>
<path d="M172.859 235.714H157.145V220H172.859V235.714Z" fill="black"/>
<path d="M188.574 235.714H172.859V220H188.574V235.714Z" fill="black"/>
<path d="M204.289 235.714H188.574V220H204.289V235.714Z" fill="black"/>
<path d="M219.999 235.714H204.285V220H219.999V235.714Z" fill="black"/>
<path d="M267.141 408.572H282.855V392.857H267.141V408.572Z" fill="#182462"/>
<path d="M251.426 408.572H267.141V392.857H251.426V408.572Z" fill="#182462"/>
<path d="M235.711 408.572H251.426V392.857H235.711V408.572Z" fill="#182462"/>
<path d="M220.001 408.572H235.715V392.857H220.001V408.572Z" fill="#182462"/>
<path d="M298.571 392.857H314.285V377.143H298.571V392.857Z" fill="#182462"/>
<path d="M282.856 392.857H298.57V377.143H282.856V392.857Z" fill="#182462"/>
<path d="M267.141 392.857H282.855V377.143H267.141V392.857Z" fill="#BAAEF9"/>
<path d="M251.426 392.857H267.141V377.143H251.426V392.857Z" fill="#BAAEF9"/>
<path d="M235.711 392.857H251.426V377.143H235.711V392.857Z" fill="#BAAEF9"/>
<path d="M220.001 392.857H235.715V377.143H220.001V392.857Z" fill="#BAAEF9"/>
<path d="M330.001 377.143H345.715V361.429H330.001V377.143Z" fill="#182462"/>
<path d="M314.286 377.143H330V361.429H314.286V377.143Z" fill="#182462"/>
<path d="M298.571 377.143H314.285V361.429H298.571V377.143Z" fill="#BAAEF9"/>
<path d="M282.856 377.143H298.57V361.429H282.856V377.143Z" fill="#BAAEF9"/>
<path d="M267.141 377.143H282.855V361.429H267.141V377.143Z" fill="#E3C8FF"/>
<path d="M251.426 377.143H267.141V361.429H251.426V377.143Z" fill="#E3C8FF"/>
<path d="M235.711 377.143H251.426V361.429H235.711V377.143Z" fill="#E3C8FF"/>
<path d="M220.001 377.143H235.715V361.429H220.001V377.143Z" fill="#E3C8FF"/>
<path d="M345.711 361.429H361.426V345.714H345.711V361.429Z" fill="#182462"/>
<path d="M330.001 361.429H345.715V345.714H330.001V361.429Z" fill="#182462"/>
<path d="M314.286 361.429H330V345.714H314.286V361.429Z" fill="#BAAEF9"/>
<path d="M298.571 361.429H314.285V345.714H298.571V361.429Z" fill="#E3C8FF"/>
<path d="M282.856 361.429H298.57V345.714H282.856V361.429Z" fill="#E3C8FF"/>
<path d="M267.141 361.429H282.855V345.714H267.141V361.429Z" fill="black"/>
<path d="M251.426 361.429H267.141V345.714H251.426V361.429Z" fill="black"/>
<path d="M235.711 361.429H251.426V345.714H235.711V361.429Z" fill="black"/>
<path d="M220.001 361.429H235.715V345.714H220.001V361.429Z" fill="black"/>
<path d="M361.426 345.714H377.141V330H361.426V345.714Z" fill="#182462"/>
<path d="M345.711 345.714H361.426V330H345.711V345.714Z" fill="#182462"/>
<path d="M330.001 345.714H345.715V330H330.001V345.714Z" fill="#BAAEF9"/>
<path d="M314.286 345.714H330V330H314.286V345.714Z" fill="#E3C8FF"/>
<path d="M298.571 345.714H314.285V330H298.571V345.714Z" fill="#E3C8FF"/>
<path d="M282.856 345.714H298.57V330H282.856V345.714Z" fill="black"/>
<path d="M267.141 345.714H282.855V330H267.141V345.714Z" fill="black"/>
<path d="M251.426 345.714H267.141V330H251.426V345.714Z" fill="black"/>
<path d="M235.711 345.714H251.426V330H235.711V345.714Z" fill="black"/>
<path d="M220.001 345.714H235.715V330H220.001V345.714Z" fill="black"/>
<path d="M361.426 330H377.141V314.286H361.426V330Z" fill="#182462"/>
<path d="M345.711 330H361.426V314.286H345.711V330Z" fill="#BAAEF9"/>
<path d="M330.001 330H345.715V314.286H330.001V330Z" fill="#E3C8FF"/>
<path d="M314.286 330H330V314.286H314.286V330Z" fill="black"/>
<path d="M298.571 330H314.285V314.286H298.571V330Z" fill="black"/>
<path d="M282.856 330H298.57V314.286H282.856V330Z" fill="black"/>
<path d="M267.141 330H282.855V314.286H267.141V330Z" fill="black"/>
<path d="M251.426 330H267.141V314.286H251.426V330Z" fill="black"/>
<path d="M235.711 330H251.426V314.286H235.711V330Z" fill="black"/>
<path d="M220.001 330H235.715V314.286H220.001V330Z" fill="black"/>
<path d="M377.141 314.286H392.855V298.572H377.141V314.286Z" fill="#182462"/>
<path d="M361.426 314.286H377.141V298.572H361.426V314.286Z" fill="#BAAEF9"/>
<path d="M345.711 314.286H361.426V298.572H345.711V314.286Z" fill="#E3C8FF"/>
<path d="M330.001 314.286H345.715V298.572H330.001V314.286Z" fill="#E3C8FF"/>
<path d="M314.286 314.286H330V298.572H314.286V314.286Z" fill="black"/>
<path d="M298.571 314.286H314.285V298.572H298.571V314.286Z" fill="black"/>
<path d="M282.856 314.286H298.57V298.572H282.856V314.286Z" fill="black"/>
<path d="M267.141 314.286H282.855V298.572H267.141V314.286Z" fill="black"/>
<path d="M251.426 314.286H267.141V298.572H251.426V314.286Z" fill="black"/>
<path d="M235.711 314.286H251.426V298.572H235.711V314.286Z" fill="black"/>
<path d="M220.001 314.286H235.715V298.572H220.001V314.286Z" fill="black"/>
<path d="M377.141 298.572H392.855V282.857H377.141V298.572Z" fill="#182462"/>
<path d="M361.426 298.572H377.141V282.857H361.426V298.572Z" fill="#BAAEF9"/>
<path d="M345.711 298.572H361.426V282.857H345.711V298.572Z" fill="#E3C8FF"/>
<path d="M330.001 298.572H345.715V282.857H330.001V298.572Z" fill="black"/>
<path d="M314.286 298.572H330V282.857H314.286V298.572Z" fill="black"/>
<path d="M298.571 298.572H314.285V282.857H298.571V298.572Z" fill="black"/>
<path d="M282.856 298.572H298.57V282.857H282.856V298.572Z" fill="black"/>
<path d="M267.141 298.572H282.855V282.857H267.141V298.572Z" fill="black"/>
<path d="M251.426 298.572H267.141V282.857H251.426V298.572Z" fill="black"/>
<path d="M235.711 298.572H251.426V282.857H235.711V298.572Z" fill="black"/>
<path d="M220.001 298.572H235.715V282.857H220.001V298.572Z" fill="black"/>
<path d="M392.856 282.857H408.57V267.143H392.856V282.857Z" fill="#182462"/>
<path d="M377.141 282.857H392.855V267.143H377.141V282.857Z" fill="#BAAEF9"/>
<path d="M361.426 282.857H377.141V267.143H361.426V282.857Z" fill="#E3C8FF"/>
<path d="M345.711 282.857H361.426V267.143H345.711V282.857Z" fill="black"/>
<path d="M330.001 282.857H345.715V267.143H330.001V282.857Z" fill="black"/>
<path d="M314.286 282.857H330V267.143H314.286V282.857Z" fill="black"/>
<path d="M298.571 282.857H314.285V267.143H298.571V282.857Z" fill="black"/>
<path d="M282.856 282.857H298.57V267.143H282.856V282.857Z" fill="black"/>
<path d="M267.141 282.857H282.855V267.143H267.141V282.857Z" fill="black"/>
<path d="M251.426 282.857H267.141V267.143H251.426V282.857Z" fill="black"/>
<path d="M235.711 282.857H251.426V267.143H235.711V282.857Z" fill="black"/>
<path d="M220.001 282.857H235.715V267.143H220.001V282.857Z" fill="black"/>
<path d="M392.856 267.143H408.57V251.429H392.856V267.143Z" fill="#182462"/>
<path d="M377.141 267.143H392.855V251.429H377.141V267.143Z" fill="#BAAEF9"/>
<path d="M361.426 267.143H377.141V251.429H361.426V267.143Z" fill="#E3C8FF"/>
<path d="M345.711 267.143H361.426V251.429H345.711V267.143Z" fill="black"/>
<path d="M330.001 267.143H345.715V251.429H330.001V267.143Z" fill="black"/>
<path d="M314.286 267.143H330V251.429H314.286V267.143Z" fill="black"/>
<path d="M298.571 267.143H314.285V251.429H298.571V267.143Z" fill="black"/>
<path d="M282.856 267.143H298.57V251.429H282.856V267.143Z" fill="black"/>
<path d="M267.141 267.143H282.855V251.429H267.141V267.143Z" fill="black"/>
<path d="M251.426 267.143H267.141V251.429H251.426V267.143Z" fill="black"/>
<path d="M235.711 267.143H251.426V251.429H235.711V267.143Z" fill="black"/>
<path d="M220.001 267.143H235.715V251.429H220.001V267.143Z" fill="black"/>
<path d="M392.856 251.429H408.57V235.714H392.856V251.429Z" fill="#182462"/>
<path d="M377.141 251.429H392.855V235.714H377.141V251.429Z" fill="#BAAEF9"/>
<path d="M361.426 251.429H377.141V235.714H361.426V251.429Z" fill="#E3C8FF"/>
<path d="M345.711 251.429H361.426V235.714H345.711V251.429Z" fill="black"/>
<path d="M330.001 251.429H345.715V235.714H330.001V251.429Z" fill="black"/>
<path d="M314.286 251.429H330V235.714H314.286V251.429Z" fill="black"/>
<path d="M298.571 251.429H314.285V235.714H298.571V251.429Z" fill="black"/>
<path d="M282.856 251.429H298.57V235.714H282.856V251.429Z" fill="black"/>
<path d="M267.141 251.429H282.855V235.714H267.141V251.429Z" fill="black"/>
<path d="M251.426 251.429H267.141V235.714H251.426V251.429Z" fill="black"/>
<path d="M235.711 251.429H251.426V235.714H235.711V251.429Z" fill="black"/>
<path d="M220.001 251.429H235.715V235.714H220.001V251.429Z" fill="black"/>
<path d="M392.856 235.714H408.57V220H392.856V235.714Z" fill="#182462"/>
<path d="M377.141 235.714H392.855V220H377.141V235.714Z" fill="#BAAEF9"/>
<path d="M361.426 235.714H377.141V220H361.426V235.714Z" fill="#E3C8FF"/>
<path d="M345.711 235.714H361.426V220H345.711V235.714Z" fill="black"/>
<path d="M330.001 235.714H345.715V220H330.001V235.714Z" fill="black"/>
<path d="M314.286 235.714H330V220H314.286V235.714Z" fill="black"/>
<path d="M298.571 235.714H314.285V220H298.571V235.714Z" fill="black"/>
<path d="M282.856 235.714H298.57V220H282.856V235.714Z" fill="black"/>
<path d="M267.141 235.714H282.855V220H267.141V235.714Z" fill="black"/>
<path d="M251.426 235.714H267.141V220H251.426V235.714Z" fill="black"/>
<path d="M235.711 235.714H251.426V220H235.711V235.714Z" fill="black"/>
<path d="M220.001 235.714H235.715V220H220.001V235.714Z" fill="black"/>
<rect x="408.832" y="236.5" width="31.1667" height="14.6667" fill="#BAAEF9"/>
<path d="M408.833 205.333H424.547V221.048H408.833V205.333Z" fill="#182462"/>
<path d="M423.497 220H439.211V235.714H423.497V220Z" fill="#182462"/>
<rect x="220" y="236.5" width="220" height="14.6667" fill="#E3C8FF"/>
<rect x="220" y="251.167" width="126.5" height="14.6667" fill="#BAAEF9"/>
<rect x="361.168" y="221.833" width="31.1667" height="14.6667" fill="#E3C8FF"/>
<rect x="377.668" y="207.167" width="31.1667" height="14.6667" fill="#BAAEF9"/>
<rect x="392.332" y="221.833" width="31.1667" height="14.6667" fill="#BAAEF9"/>
<path d="M346.499 251.167H425.332V267.667H346.499V251.167Z" fill="#182462"/>
<path d="M219.999 265.833H298.832V282.333H219.999V265.833Z" fill="#182462"/>
<path d="M31.1713 205.333H15.457V221.048H31.1713V205.333Z" fill="#182462"/>
<path d="M16.5073 220H0.792969V235.714H16.5073V220Z" fill="#182462"/>
<rect width="220" height="14.6667" transform="matrix(-1 0 0 1 220.004 236.5)" fill="#E3C8FF"/>
<rect width="126.5" height="14.6667" transform="matrix(-1 0 0 1 220.004 251.167)" fill="#BAAEF9"/>
<rect width="31.1667" height="14.6667" transform="matrix(-1 0 0 1 78.832 221.833)" fill="#E3C8FF"/>
<rect width="31.1667" height="14.6667" transform="matrix(-1 0 0 1 62.3359 207.167)" fill="#BAAEF9"/>
<rect width="31.1667" height="14.6667" transform="matrix(-1 0 0 1 47.6719 221.833)" fill="#BAAEF9"/>
<path d="M93.5013 251.167H14.668V267.667H93.5013V251.167Z" fill="#182462"/>
<path d="M220.009 265.833H141.176V282.333H220.009V265.833Z" fill="#182462"/>
<path d="M216.335 220H361.168V236.5H216.335V220Z" fill="#182462"/>
<path d="M223.665 220H78.832V236.5H223.665V220Z" fill="#182462"/>
</g>
<defs>
<clipPath id="clip0_2307_18641">
<rect width="440" height="440" fill="white"/>
</clipPath>
</defs>
</svg>
