<svg xmlns="http://www.w3.org/2000/svg" viewBox="0 0 280 280" width="280" height="280">
  <defs>
    <g id="fullbase2">
      <g id="base2">
        <rect x="100" y="50" width="10" height="10" fill="hsl(15, 90%, 20%)"></rect>
        <rect x="110" y="50" width="10" height="10" fill="hsl(15, 90%, 20%)"></rect>
        <rect x="120" y="50" width="10" height="10" fill="hsl(15, 90%, 20%)"></rect>
        <rect x="130" y="50" width="10" height="10" fill="hsl(15, 90%, 20%)"></rect>
        <rect x="140" y="50" width="10" height="10" fill="hsl(15, 90%, 20%)"></rect>
        <rect x="90" y="60" width="10" height="10" fill="hsl(15, 90%, 20%)"></rect>
        <rect x="100" y="60" width="10" height="10" fill="hsl(35, 90%, 55%)"></rect>
        <rect x="110" y="60" width="10" height="10" fill="hsl(35, 90%, 55%)"></rect>
        <rect x="120" y="60" width="10" height="10" fill="hsl(35, 90%, 55%)"></rect>
        <rect x="130" y="60" width="10" height="10" fill="hsl(35, 90%, 55%)"></rect>
        <rect x="140" y="60" width="10" height="10" fill="hsl(35, 90%, 55%)"></rect>
        <rect x="70" y="70" width="10" height="10" fill="hsl(15, 90%, 20%)"></rect>
        <rect x="80" y="70" width="10" height="10" fill="hsl(15, 90%, 20%)"></rect>
        <rect x="90" y="70" width="10" height="10" fill="hsl(35, 90%, 55%)"></rect>
        <rect x="100" y="70" width="10" height="10" fill="hsl(35, 90%, 55%)"></rect>
        <rect x="110" y="70" width="10" height="10" fill="hsl(55, 90%, 80%)"></rect>
        <rect x="120" y="70" width="10" height="10" fill="hsl(55, 90%, 80%)"></rect>
        <rect x="130" y="70" width="10" height="10" fill="hsl(55, 90%, 80%)"></rect>
        <rect x="140" y="70" width="10" height="10" fill="hsl(55, 90%, 80%)"></rect>
        <rect x="70" y="80" width="10" height="10" fill="hsl(15, 90%, 20%)"></rect>
        <rect x="80" y="80" width="10" height="10" fill="hsl(35, 90%, 55%)"></rect>
        <rect x="90" y="80" width="10" height="10" fill="hsl(55, 90%, 80%)"></rect>
        <rect x="100" y="80" width="10" height="10" fill="hsl(55, 90%, 80%)"></rect>
        <rect x="60" y="90" width="10" height="10" fill="hsl(15, 90%, 20%)"></rect>
        <rect x="70" y="90" width="10" height="10" fill="hsl(35, 90%, 55%)"></rect>
        <rect x="80" y="90" width="10" height="10" fill="hsl(55, 90%, 80%)"></rect>
        <rect x="90" y="90" width="10" height="10" fill="hsl(55, 90%, 80%)"></rect>
        <rect x="50" y="100" width="10" height="10" fill="hsl(15, 90%, 20%)"></rect>
        <rect x="60" y="100" width="10" height="10" fill="hsl(35, 90%, 55%)"></rect>
        <rect x="70" y="100" width="10" height="10" fill="hsl(35, 90%, 55%)"></rect>
        <rect x="80" y="100" width="10" height="10" fill="hsl(55, 90%, 80%)"></rect>
        <rect x="50" y="110" width="10" height="10" fill="hsl(15, 90%, 20%)"></rect>
        <rect x="60" y="110" width="10" height="10" fill="hsl(35, 90%, 55%)"></rect>
        <rect x="70" y="110" width="10" height="10" fill="hsl(55, 90%, 80%)"></rect>
        <rect x="50" y="120" width="10" height="10" fill="hsl(15, 90%, 20%)"></rect>
        <rect x="60" y="120" width="10" height="10" fill="hsl(35, 90%, 55%)"></rect>
        <rect x="70" y="120" width="10" height="10" fill="hsl(55, 90%, 80%)"></rect>
        <rect x="50" y="130" width="10" height="10" fill="hsl(15, 90%, 20%)"></rect>
        <rect x="60" y="130" width="10" height="10" fill="hsl(35, 90%, 55%)"></rect>
        <rect x="70" y="130" width="10" height="10" fill="hsl(55, 90%, 80%)"></rect>
        <rect x="50" y="140" width="10" height="10" fill="hsl(15, 90%, 20%)"></rect>
        <rect x="60" y="140" width="10" height="10" fill="hsl(35, 90%, 55%)"></rect>
        <rect x="70" y="140" width="10" height="10" fill="hsl(55, 90%, 80%)"></rect>
      </g>
      <use href="#base2" transform="scale(-1,1),translate(-290,0)"></use>
      <use href="#base2" transform="scale(1,-1),translate(0,-290)"></use>
      <use href="#base2" transform="scale(-1,-1),translate(-290,-290)"></use>
    </g>

  </defs>
  <rect x="0" y="0" width="280" height="280" fill="#000000"></rect>
  <rect x="260" y="80" width="10" height="10" fill="hsl(0, 0%, 9%)">
  </rect>
  <rect x="140" y="30" width="10" height="10" fill="hsl(0, 0%, 9%)">
  </rect>
  <rect x="170" y="30" width="10" height="10" fill="hsl(0, 0%, 9%)">
  </rect>
  <rect x="20" y="140" width="10" height="10" fill="hsl(0, 0%, 8%)">
  </rect>
  <rect x="50" y="60" width="10" height="10" fill="hsl(0, 0%, 11%)">
  </rect>
  <rect x="220" y="250" width="10" height="10" fill="hsl(0, 0%, 5%)">
  </rect>
  <rect x="120" y="80" width="10" height="10" fill="hsl(0, 0%, 9%)">
  </rect>
  <rect x="190" y="40" width="10" height="10" fill="hsl(0, 0%, 8%)">
  </rect>
  <rect x="80" y="130" width="10" height="10" fill="hsl(0, 0%, 9%)">
  </rect>
  <rect x="200" y="70" width="10" height="10" fill="hsl(0, 0%, 6%)">
  </rect>
  <rect x="20" y="90" width="10" height="10" fill="hsl(0, 0%, 5%)">
  </rect>
  <rect x="100" y="0" width="10" height="10" fill="hsl(0, 0%, 6%)">
  </rect>
  <rect x="130" y="180" width="10" height="10" fill="hsl(0, 0%, 8%)">
  </rect>
  <rect x="60" y="140" width="10" height="10" fill="hsl(0, 0%, 11%)">
  </rect>
  <rect x="100" y="270" width="10" height="10" fill="hsl(0, 0%, 9%)">
  </rect>
  <rect x="40" y="20" width="10" height="10" fill="hsl(0, 0%, 8%)">
  </rect>
  <rect x="250" y="250" width="10" height="10" fill="hsl(0, 0%, 7%)">
  </rect>
  <rect x="210" y="20" width="10" height="10" fill="hsl(0, 0%, 10%)">
  </rect>
  <rect x="260" y="0" width="10" height="10" fill="hsl(0, 0%, 5%)">
  </rect>
  <rect x="130" y="230" width="10" height="10" fill="hsl(0, 0%, 9%)">
  </rect>
  <rect x="150" y="10" width="10" height="10" fill="hsl(0, 0%, 8%)">
  </rect>
  <rect x="260" y="150" width="10" height="10" fill="hsl(0, 0%, 9%)">
  </rect>
  <rect x="90" y="190" width="10" height="10" fill="hsl(0, 0%, 7%)">
  </rect>
  <rect x="70" y="20" width="10" height="10" fill="hsl(0, 0%, 6%)">
  </rect>
  <rect x="190" y="120" width="10" height="10" fill="hsl(0, 0%, 10%)">
  </rect>
  <rect x="60" y="140" width="10" height="10" fill="hsl(0, 0%, 5%)">
  </rect>
  <rect x="140" y="160" width="10" height="10" fill="hsl(0, 0%, 11%)">
  </rect>
  <rect x="120" y="10" width="10" height="10" fill="hsl(0, 0%, 5%)">
  </rect>
  <rect x="100" y="210" width="10" height="10" fill="hsl(0, 0%, 11%)">
  </rect>
  <rect x="200" y="120" width="10" height="10" fill="hsl(0, 0%, 6%)">
  </rect>
  <rect fill="black" x="80" y="80" width="130" height="130"></rect>
  <use href="#fullbase2"></use>
  <rect x="460" y="-220" width="10" height="10" fill="hsl(0, 0%, 157%)">

    <animate attributeName="x" from="460" to="140" values="460;140" dur="2s" repeatCount="indefinite"
      begin="0.6702450567077278s" calcMode="spline" keyTimes="0;1" keySplines="0.4 0 0.2 1"></animate>

    <animate attributeName="y" from="-220" to="140" values="-220;140" dur="2s" repeatCount="indefinite"
      begin="0.6702450567077278s" calcMode="spline" keyTimes="0;1" keySplines="0.4 0 0.2 1"></animate>

    <animate attributeName="fill-opacity" from="1" to="0" values="1;0" dur="2s" repeatCount="indefinite"
      begin="0.6702450567077278s" calcMode="spline" keyTimes="0;1" keySplines="0.4 0 0.2 1"></animate>

  </rect>
  <rect x="-220" y="30" width="10" height="10" fill="hsl(0, 0%, 191%)">

    <animate attributeName="x" from="-220" to="140" values="-220;140" dur="2s" repeatCount="indefinite"
      begin="1.0463121155234218s" calcMode="spline" keyTimes="0;1" keySplines="0.4 0 0.2 1"></animate>

    <animate attributeName="y" from="30" to="140" values="30;140" dur="2s" repeatCount="indefinite"
      begin="1.0463121155234218s" calcMode="spline" keyTimes="0;1" keySplines="0.4 0 0.2 1"></animate>

    <animate attributeName="fill-opacity" from="1" to="0" values="1;0" dur="2s" repeatCount="indefinite"
      begin="1.0463121155234218s" calcMode="spline" keyTimes="0;1" keySplines="0.4 0 0.2 1"></animate>

  </rect>
  <rect x="320" y="-110" width="10" height="10" fill="hsl(0, 0%, 193%)">

    <animate attributeName="x" from="320" to="140" values="320;140" dur="2s" repeatCount="indefinite"
      begin="0.816444318537267s" calcMode="spline" keyTimes="0;1" keySplines="0.4 0 0.2 1"></animate>

    <animate attributeName="y" from="-110" to="140" values="-110;140" dur="2s" repeatCount="indefinite"
      begin="0.816444318537267s" calcMode="spline" keyTimes="0;1" keySplines="0.4 0 0.2 1"></animate>

    <animate attributeName="fill-opacity" from="1" to="0" values="1;0" dur="2s" repeatCount="indefinite"
      begin="0.816444318537267s" calcMode="spline" keyTimes="0;1" keySplines="0.4 0 0.2 1"></animate>

  </rect>
  <rect x="70" y="530" width="10" height="10" fill="hsl(0, 0%, 128%)">

    <animate attributeName="x" from="70" to="140" values="70;140" dur="2s" repeatCount="indefinite"
      begin="1.1475901316955497s" calcMode="spline" keyTimes="0;1" keySplines="0.4 0 0.2 1"></animate>

    <animate attributeName="y" from="530" to="140" values="530;140" dur="2s" repeatCount="indefinite"
      begin="1.1475901316955497s" calcMode="spline" keyTimes="0;1" keySplines="0.4 0 0.2 1"></animate>

    <animate attributeName="fill-opacity" from="1" to="0" values="1;0" dur="2s" repeatCount="indefinite"
      begin="1.1475901316955497s" calcMode="spline" keyTimes="0;1" keySplines="0.4 0 0.2 1"></animate>

  </rect>
  <rect x="-130" y="0" width="10" height="10" fill="hsl(0, 0%, 85%)">

    <animate attributeName="x" from="-130" to="140" values="-130;140" dur="2s" repeatCount="indefinite"
      begin="0.0671580431428831s" calcMode="spline" keyTimes="0;1" keySplines="0.4 0 0.2 1"></animate>

    <animate attributeName="y" from="0" to="140" values="0;140" dur="2s" repeatCount="indefinite"
      begin="0.0671580431428831s" calcMode="spline" keyTimes="0;1" keySplines="0.4 0 0.2 1"></animate>

    <animate attributeName="fill-opacity" from="1" to="0" values="1;0" dur="2s" repeatCount="indefinite"
      begin="0.0671580431428831s" calcMode="spline" keyTimes="0;1" keySplines="0.4 0 0.2 1"></animate>

  </rect>
  <rect x="-30" y="-90" width="10" height="10" fill="hsl(0, 0%, 157%)">

    <animate attributeName="x" from="-30" to="140" values="-30;140" dur="2s" repeatCount="indefinite"
      begin="0.33631010861997224s" calcMode="spline" keyTimes="0;1" keySplines="0.4 0 0.2 1"></animate>

    <animate attributeName="y" from="-90" to="140" values="-90;140" dur="2s" repeatCount="indefinite"
      begin="0.33631010861997224s" calcMode="spline" keyTimes="0;1" keySplines="0.4 0 0.2 1"></animate>

    <animate attributeName="fill-opacity" from="1" to="0" values="1;0" dur="2s" repeatCount="indefinite"
      begin="0.33631010861997224s" calcMode="spline" keyTimes="0;1" keySplines="0.4 0 0.2 1"></animate>

  </rect>
  <rect x="-10" y="340" width="10" height="10" fill="hsl(0, 0%, 193%)">

    <animate attributeName="x" from="-10" to="140" values="-10;140" dur="2s" repeatCount="indefinite"
      begin="1.623470431147262s" calcMode="spline" keyTimes="0;1" keySplines="0.4 0 0.2 1"></animate>

    <animate attributeName="y" from="340" to="140" values="340;140" dur="2s" repeatCount="indefinite"
      begin="1.623470431147262s" calcMode="spline" keyTimes="0;1" keySplines="0.4 0 0.2 1"></animate>

    <animate attributeName="fill-opacity" from="1" to="0" values="1;0" dur="2s" repeatCount="indefinite"
      begin="1.623470431147262s" calcMode="spline" keyTimes="0;1" keySplines="0.4 0 0.2 1"></animate>

  </rect>
  <rect x="190" y="-40" width="10" height="10" fill="hsl(0, 0%, 144%)">

    <animate attributeName="x" from="190" to="140" values="190;140" dur="2s" repeatCount="indefinite"
      begin="0.6006379693277442s" calcMode="spline" keyTimes="0;1" keySplines="0.4 0 0.2 1"></animate>

    <animate attributeName="y" from="-40" to="140" values="-40;140" dur="2s" repeatCount="indefinite"
      begin="0.6006379693277442s" calcMode="spline" keyTimes="0;1" keySplines="0.4 0 0.2 1"></animate>

    <animate attributeName="fill-opacity" from="1" to="0" values="1;0" dur="2s" repeatCount="indefinite"
      begin="0.6006379693277442s" calcMode="spline" keyTimes="0;1" keySplines="0.4 0 0.2 1"></animate>

  </rect>
  <rect x="520" y="-130" width="10" height="10" fill="hsl(0, 0%, 181%)">

    <animate attributeName="x" from="520" to="140" values="520;140" dur="2s" repeatCount="indefinite"
      begin="0.6668831384159013s" calcMode="spline" keyTimes="0;1" keySplines="0.4 0 0.2 1"></animate>

    <animate attributeName="y" from="-130" to="140" values="-130;140" dur="2s" repeatCount="indefinite"
      begin="0.6668831384159013s" calcMode="spline" keyTimes="0;1" keySplines="0.4 0 0.2 1"></animate>

    <animate attributeName="fill-opacity" from="1" to="0" values="1;0" dur="2s" repeatCount="indefinite"
      begin="0.6668831384159013s" calcMode="spline" keyTimes="0;1" keySplines="0.4 0 0.2 1"></animate>

  </rect>
  <rect x="530" y="220" width="10" height="10" fill="hsl(0, 0%, 177%)">

    <animate attributeName="x" from="530" to="140" values="530;140" dur="2s" repeatCount="indefinite"
      begin="0.1347788352022552s" calcMode="spline" keyTimes="0;1" keySplines="0.4 0 0.2 1"></animate>

    <animate attributeName="y" from="220" to="140" values="220;140" dur="2s" repeatCount="indefinite"
      begin="0.1347788352022552s" calcMode="spline" keyTimes="0;1" keySplines="0.4 0 0.2 1"></animate>

    <animate attributeName="fill-opacity" from="1" to="0" values="1;0" dur="2s" repeatCount="indefinite"
      begin="0.1347788352022552s" calcMode="spline" keyTimes="0;1" keySplines="0.4 0 0.2 1"></animate>

  </rect>
</svg>