<svg width="240" height="240" viewBox="0 0 240 240" fill="none" xmlns="http://www.w3.org/2000/svg">
<path d="M94.2863 25.7144H85.7148V34.2858H94.2863V25.7144Z" fill="#611C05"/>
<path d="M102.857 25.7144H94.2852V34.2858H102.857V25.7144Z" fill="#611C05"/>
<path d="M111.431 25.7144H102.859V34.2858H111.431V25.7144Z" fill="#611C05"/>
<path d="M120.001 25.7144H111.43V34.2858H120.001V25.7144Z" fill="#611C05"/>
<path d="M77.1417 34.2859H68.5703V42.8573H77.1417V34.2859Z" fill="#611C05"/>
<path d="M85.716 34.2859H77.1445V42.8573H85.716V34.2859Z" fill="#611C05"/>
<path d="M94.2863 34.2859H85.7148V42.8573H94.2863V34.2859Z" fill="#F49D25"/>
<path d="M102.857 34.2859H94.2852V42.8573H102.857V34.2859Z" fill="#F49D25"/>
<path d="M111.431 34.2859H102.859V42.8573H111.431V34.2859Z" fill="#F49D25"/>
<path d="M120.001 34.2859H111.43V42.8573H120.001V34.2859Z" fill="#F49D25"/>
<path d="M68.5714 42.8572H60V51.4286H68.5714V42.8572Z" fill="#611C05"/>
<path d="M77.1417 42.8572H68.5703V51.4286H77.1417V42.8572Z" fill="#F49D25"/>
<path d="M85.716 42.8572H77.1445V51.4286H85.716V42.8572Z" fill="#F49D25"/>
<path d="M94.2863 42.8572H85.7148V51.4286H94.2863V42.8572Z" fill="#FAF29E"/>
<path d="M102.857 42.8572H94.2852V51.4286H102.857V42.8572Z" fill="#FAF29E"/>
<path d="M111.431 42.8572H102.859V51.4286H111.431V42.8572Z" fill="#FAF29E"/>
<path d="M120.001 42.8572H111.43V51.4286H120.001V42.8572Z" fill="#FAF29E"/>
<path d="M60.0011 51.4287H51.4297V60.0001H60.0011V51.4287Z" fill="#611C05"/>
<path d="M68.5714 51.4287H60V60.0001H68.5714V51.4287Z" fill="#F49D25"/>
<path d="M77.1417 51.4287H68.5703V60.0001H77.1417V51.4287Z" fill="#F49D25"/>
<path d="M85.716 51.4287H77.1445V60.0001H85.716V51.4287Z" fill="#FAF29E"/>
<path d="M94.2863 51.4287H85.7148V60.0001H94.2863V51.4287Z" fill="black"/>
<path d="M102.857 51.4287H94.2852V60.0001H102.857V51.4287Z" fill="black"/>
<path d="M111.431 51.4287H102.859V60.0001H111.431V51.4287Z" fill="black"/>
<path d="M120.001 51.4287H111.43V60.0001H120.001V51.4287Z" fill="black"/>
<path d="M51.4308 60H42.8594V68.5714H51.4308V60Z" fill="#611C05"/>
<path d="M60.0011 60H51.4297V68.5714H60.0011V60Z" fill="#F49D25"/>
<path d="M68.5714 60H60V68.5714H68.5714V60Z" fill="#FAF29E"/>
<path d="M77.1417 60H68.5703V68.5714H77.1417V60Z" fill="#FAF29E"/>
<path d="M85.716 60H77.1445V68.5714H85.716V60Z" fill="black"/>
<path d="M94.2863 60H85.7148V68.5714H94.2863V60Z" fill="black"/>
<path d="M102.857 60H94.2852V68.5714H102.857V60Z" fill="black"/>
<path d="M111.431 60H102.859V68.5714H111.431V60Z" fill="black"/>
<path d="M120.001 60H111.43V68.5714H120.001V60Z" fill="black"/>
<path d="M42.8566 68.5715H34.2852V77.143H42.8566V68.5715Z" fill="#611C05"/>
<path d="M51.4308 68.5715H42.8594V77.143H51.4308V68.5715Z" fill="#F49D25"/>
<path d="M60.0011 68.5715H51.4297V77.143H60.0011V68.5715Z" fill="#F49D25"/>
<path d="M68.5714 68.5715H60V77.143H68.5714V68.5715Z" fill="#FAF29E"/>
<path d="M77.1417 68.5715H68.5703V77.143H77.1417V68.5715Z" fill="black"/>
<path d="M85.716 68.5715H77.1445V77.143H85.716V68.5715Z" fill="black"/>
<path d="M94.2863 68.5715H85.7148V77.143H94.2863V68.5715Z" fill="black"/>
<path d="M102.857 68.5715H94.2852V77.143H102.857V68.5715Z" fill="black"/>
<path d="M111.431 68.5715H102.859V77.143H111.431V68.5715Z" fill="black"/>
<path d="M120.001 68.5715H111.43V77.143H120.001V68.5715Z" fill="black"/>
<path d="M42.8566 77.1428H34.2852V85.7143H42.8566V77.1428Z" fill="#611C05"/>
<path d="M51.4308 77.1428H42.8594V85.7143H51.4308V77.1428Z" fill="#F49D25"/>
<path d="M60.0011 77.1428H51.4297V85.7143H60.0011V77.1428Z" fill="#FAF29E"/>
<path d="M68.5714 77.1428H60V85.7143H68.5714V77.1428Z" fill="black"/>
<path d="M77.1417 77.1428H68.5703V85.7143H77.1417V77.1428Z" fill="black"/>
<path d="M85.716 77.1428H77.1445V85.7143H85.716V77.1428Z" fill="black"/>
<path d="M94.2863 77.1428H85.7148V85.7143H94.2863V77.1428Z" fill="black"/>
<path d="M102.857 77.1428H94.2852V85.7143H102.857V77.1428Z" fill="black"/>
<path d="M111.431 77.1428H102.859V85.7143H111.431V77.1428Z" fill="black"/>
<path d="M120.001 77.1428H111.43V85.7143H120.001V77.1428Z" fill="black"/>
<path d="M34.2863 85.7144H25.7148V94.2858H34.2863V85.7144Z" fill="#611C05"/>
<path d="M42.8566 85.7144H34.2852V94.2858H42.8566V85.7144Z" fill="#F49D25"/>
<path d="M51.4308 85.7144H42.8594V94.2858H51.4308V85.7144Z" fill="#FAF29E"/>
<path d="M60.0011 85.7144H51.4297V94.2858H60.0011V85.7144Z" fill="black"/>
<path d="M68.5714 85.7144H60V94.2858H68.5714V85.7144Z" fill="black"/>
<path d="M77.1417 85.7144H68.5703V94.2858H77.1417V85.7144Z" fill="black"/>
<path d="M85.716 85.7144H77.1445V94.2858H85.716V85.7144Z" fill="black"/>
<path d="M94.2863 85.7144H85.7148V94.2858H94.2863V85.7144Z" fill="black"/>
<path d="M102.857 85.7144H94.2852V94.2858H102.857V85.7144Z" fill="black"/>
<path d="M111.431 85.7144H102.859V94.2858H111.431V85.7144Z" fill="black"/>
<path d="M120.001 85.7144H111.43V94.2858H120.001V85.7144Z" fill="black"/>
<path d="M34.2863 94.2859H25.7148V102.857H34.2863V94.2859Z" fill="#611C05"/>
<path d="M42.8566 94.2859H34.2852V102.857H42.8566V94.2859Z" fill="#F49D25"/>
<path d="M51.4308 94.2859H42.8594V102.857H51.4308V94.2859Z" fill="#FAF29E"/>
<path d="M60.0011 94.2859H51.4297V102.857H60.0011V94.2859Z" fill="black"/>
<path d="M68.5714 94.2859H60V102.857H68.5714V94.2859Z" fill="black"/>
<path d="M77.1417 94.2859H68.5703V102.857H77.1417V94.2859Z" fill="black"/>
<path d="M85.716 94.2859H77.1445V102.857H85.716V94.2859Z" fill="black"/>
<path d="M94.2863 94.2859H85.7148V102.857H94.2863V94.2859Z" fill="black"/>
<path d="M102.857 94.2859H94.2852V102.857H102.857V94.2859Z" fill="black"/>
<path d="M111.431 94.2859H102.859V102.857H111.431V94.2859Z" fill="black"/>
<path d="M120.001 94.2859H111.43V102.857H120.001V94.2859Z" fill="black"/>
<path d="M34.2863 102.857H25.7148V111.429H34.2863V102.857Z" fill="#611C05"/>
<path d="M42.8566 102.857H34.2852V111.429H42.8566V102.857Z" fill="#F49D25"/>
<path d="M51.4308 102.857H42.8594V111.429H51.4308V102.857Z" fill="#FAF29E"/>
<path d="M60.0011 102.857H51.4297V111.429H60.0011V102.857Z" fill="black"/>
<path d="M68.5714 102.857H60V111.429H68.5714V102.857Z" fill="black"/>
<path d="M77.1417 102.857H68.5703V111.429H77.1417V102.857Z" fill="black"/>
<path d="M85.716 102.857H77.1445V111.429H85.716V102.857Z" fill="black"/>
<path d="M94.2863 102.857H85.7148V111.429H94.2863V102.857Z" fill="black"/>
<path d="M102.857 102.857H94.2852V111.429H102.857V102.857Z" fill="black"/>
<path d="M111.431 102.857H102.859V111.429H111.431V102.857Z" fill="black"/>
<path d="M120.001 102.857H111.43V111.429H120.001V102.857Z" fill="black"/>
<path d="M34.2863 111.429H25.7148V120H34.2863V111.429Z" fill="#611C05"/>
<path d="M42.8566 111.429H34.2852V120H42.8566V111.429Z" fill="#F49D25"/>
<path d="M51.4308 111.429H42.8594V120H51.4308V111.429Z" fill="#FAF29E"/>
<path d="M60.0011 111.429H51.4297V120H60.0011V111.429Z" fill="black"/>
<path d="M68.5714 111.429H60V120H68.5714V111.429Z" fill="black"/>
<path d="M77.1417 111.429H68.5703V120H77.1417V111.429Z" fill="black"/>
<path d="M85.716 111.429H77.1445V120H85.716V111.429Z" fill="black"/>
<path d="M94.2863 111.429H85.7148V120H94.2863V111.429Z" fill="black"/>
<path d="M102.857 111.429H94.2852V120H102.857V111.429Z" fill="black"/>
<path d="M111.431 111.429H102.859V120H111.431V111.429Z" fill="black"/>
<path d="M120.001 111.429H111.43V120H120.001V111.429Z" fill="black"/>
<path d="M145.714 25.7144H154.285V34.2858H145.714V25.7144Z" fill="#611C05"/>
<path d="M137.143 25.7144H145.715V34.2858H137.143V25.7144Z" fill="#611C05"/>
<path d="M128.569 25.7144H137.141V34.2858H128.569V25.7144Z" fill="#611C05"/>
<path d="M119.999 25.7144H128.57V34.2858H119.999V25.7144Z" fill="#611C05"/>
<path d="M162.858 34.2859H171.43V42.8573H162.858V34.2859Z" fill="#611C05"/>
<path d="M154.284 34.2859H162.855V42.8573H154.284V34.2859Z" fill="#611C05"/>
<path d="M145.714 34.2859H154.285V42.8573H145.714V34.2859Z" fill="#F49D25"/>
<path d="M137.143 34.2859H145.715V42.8573H137.143V34.2859Z" fill="#F49D25"/>
<path d="M128.569 34.2859H137.141V42.8573H128.569V34.2859Z" fill="#F49D25"/>
<path d="M119.999 34.2859H128.57V42.8573H119.999V34.2859Z" fill="#F49D25"/>
<path d="M171.429 42.8572H180V51.4286H171.429V42.8572Z" fill="#611C05"/>
<path d="M162.858 42.8572H171.43V51.4286H162.858V42.8572Z" fill="#F49D25"/>
<path d="M154.284 42.8572H162.855V51.4286H154.284V42.8572Z" fill="#F49D25"/>
<path d="M145.714 42.8572H154.285V51.4286H145.714V42.8572Z" fill="#FAF29E"/>
<path d="M137.143 42.8572H145.715V51.4286H137.143V42.8572Z" fill="#FAF29E"/>
<path d="M128.569 42.8572H137.141V51.4286H128.569V42.8572Z" fill="#FAF29E"/>
<path d="M119.999 42.8572H128.57V51.4286H119.999V42.8572Z" fill="#FAF29E"/>
<path d="M179.999 51.4287H188.57V60.0001H179.999V51.4287Z" fill="#611C05"/>
<path d="M171.429 51.4287H180V60.0001H171.429V51.4287Z" fill="#F49D25"/>
<path d="M162.858 51.4287H171.43V60.0001H162.858V51.4287Z" fill="#F49D25"/>
<path d="M154.284 51.4287H162.855V60.0001H154.284V51.4287Z" fill="#FAF29E"/>
<path d="M145.714 51.4287H154.285V60.0001H145.714V51.4287Z" fill="black"/>
<path d="M137.143 51.4287H145.715V60.0001H137.143V51.4287Z" fill="black"/>
<path d="M128.569 51.4287H137.141V60.0001H128.569V51.4287Z" fill="black"/>
<path d="M119.999 51.4287H128.57V60.0001H119.999V51.4287Z" fill="black"/>
<path d="M188.569 60H197.141V68.5714H188.569V60Z" fill="#611C05"/>
<path d="M179.999 60H188.57V68.5714H179.999V60Z" fill="#F49D25"/>
<path d="M171.429 60H180V68.5714H171.429V60Z" fill="#FAF29E"/>
<path d="M162.858 60H171.43V68.5714H162.858V60Z" fill="#FAF29E"/>
<path d="M154.284 60H162.855V68.5714H154.284V60Z" fill="black"/>
<path d="M145.714 60H154.285V68.5714H145.714V60Z" fill="black"/>
<path d="M137.143 60H145.715V68.5714H137.143V60Z" fill="black"/>
<path d="M128.569 60H137.141V68.5714H128.569V60Z" fill="black"/>
<path d="M119.999 60H128.57V68.5714H119.999V60Z" fill="black"/>
<path d="M197.143 68.5715H205.715V77.143H197.143V68.5715Z" fill="#611C05"/>
<path d="M188.569 68.5715H197.141V77.143H188.569V68.5715Z" fill="#F49D25"/>
<path d="M179.999 68.5715H188.57V77.143H179.999V68.5715Z" fill="#F49D25"/>
<path d="M171.429 68.5715H180V77.143H171.429V68.5715Z" fill="#FAF29E"/>
<path d="M162.858 68.5715H171.43V77.143H162.858V68.5715Z" fill="black"/>
<path d="M154.284 68.5715H162.855V77.143H154.284V68.5715Z" fill="black"/>
<path d="M145.714 68.5715H154.285V77.143H145.714V68.5715Z" fill="black"/>
<path d="M137.143 68.5715H145.715V77.143H137.143V68.5715Z" fill="black"/>
<path d="M128.569 68.5715H137.141V77.143H128.569V68.5715Z" fill="black"/>
<path d="M119.999 68.5715H128.57V77.143H119.999V68.5715Z" fill="black"/>
<path d="M197.143 77.1428H205.715V85.7143H197.143V77.1428Z" fill="#611C05"/>
<path d="M188.569 77.1428H197.141V85.7143H188.569V77.1428Z" fill="#F49D25"/>
<path d="M179.999 77.1428H188.57V85.7143H179.999V77.1428Z" fill="#FAF29E"/>
<path d="M171.429 77.1428H180V85.7143H171.429V77.1428Z" fill="black"/>
<path d="M162.858 77.1428H171.43V85.7143H162.858V77.1428Z" fill="black"/>
<path d="M154.284 77.1428H162.855V85.7143H154.284V77.1428Z" fill="black"/>
<path d="M145.714 77.1428H154.285V85.7143H145.714V77.1428Z" fill="black"/>
<path d="M137.143 77.1428H145.715V85.7143H137.143V77.1428Z" fill="black"/>
<path d="M128.569 77.1428H137.141V85.7143H128.569V77.1428Z" fill="black"/>
<path d="M119.999 77.1428H128.57V85.7143H119.999V77.1428Z" fill="black"/>
<path d="M205.714 85.7144H214.285V94.2858H205.714V85.7144Z" fill="#611C05"/>
<path d="M197.143 85.7144H205.715V94.2858H197.143V85.7144Z" fill="#F49D25"/>
<path d="M188.569 85.7144H197.141V94.2858H188.569V85.7144Z" fill="#FAF29E"/>
<path d="M179.999 85.7144H188.57V94.2858H179.999V85.7144Z" fill="black"/>
<path d="M171.429 85.7144H180V94.2858H171.429V85.7144Z" fill="black"/>
<path d="M162.858 85.7144H171.43V94.2858H162.858V85.7144Z" fill="black"/>
<path d="M154.284 85.7144H162.855V94.2858H154.284V85.7144Z" fill="black"/>
<path d="M145.714 85.7144H154.285V94.2858H145.714V85.7144Z" fill="black"/>
<path d="M137.143 85.7144H145.715V94.2858H137.143V85.7144Z" fill="black"/>
<path d="M128.569 85.7144H137.141V94.2858H128.569V85.7144Z" fill="black"/>
<path d="M119.999 85.7144H128.57V94.2858H119.999V85.7144Z" fill="black"/>
<path d="M205.714 94.2859H214.285V102.857H205.714V94.2859Z" fill="#611C05"/>
<path d="M197.143 94.2859H205.715V102.857H197.143V94.2859Z" fill="#F49D25"/>
<path d="M188.569 94.2859H197.141V102.857H188.569V94.2859Z" fill="#FAF29E"/>
<path d="M179.999 94.2859H188.57V102.857H179.999V94.2859Z" fill="black"/>
<path d="M171.429 94.2859H180V102.857H171.429V94.2859Z" fill="black"/>
<path d="M162.858 94.2859H171.43V102.857H162.858V94.2859Z" fill="black"/>
<path d="M154.284 94.2859H162.855V102.857H154.284V94.2859Z" fill="black"/>
<path d="M145.714 94.2859H154.285V102.857H145.714V94.2859Z" fill="black"/>
<path d="M137.143 94.2859H145.715V102.857H137.143V94.2859Z" fill="black"/>
<path d="M128.569 94.2859H137.141V102.857H128.569V94.2859Z" fill="black"/>
<path d="M119.999 94.2859H128.57V102.857H119.999V94.2859Z" fill="black"/>
<path d="M205.714 102.857H214.285V111.429H205.714V102.857Z" fill="#611C05"/>
<path d="M197.143 102.857H205.715V111.429H197.143V102.857Z" fill="#F49D25"/>
<path d="M188.569 102.857H197.141V111.429H188.569V102.857Z" fill="#FAF29E"/>
<path d="M179.999 102.857H188.57V111.429H179.999V102.857Z" fill="black"/>
<path d="M171.429 102.857H180V111.429H171.429V102.857Z" fill="black"/>
<path d="M162.858 102.857H171.43V111.429H162.858V102.857Z" fill="black"/>
<path d="M154.284 102.857H162.855V111.429H154.284V102.857Z" fill="black"/>
<path d="M145.714 102.857H154.285V111.429H145.714V102.857Z" fill="black"/>
<path d="M137.143 102.857H145.715V111.429H137.143V102.857Z" fill="black"/>
<path d="M128.569 102.857H137.141V111.429H128.569V102.857Z" fill="black"/>
<path d="M119.999 102.857H128.57V111.429H119.999V102.857Z" fill="black"/>
<path d="M205.714 111.429H214.285V120H205.714V111.429Z" fill="#611C05"/>
<path d="M197.143 111.429H205.715V120H197.143V111.429Z" fill="#F49D25"/>
<path d="M188.569 111.429H197.141V120H188.569V111.429Z" fill="#FAF29E"/>
<path d="M179.999 111.429H188.57V120H179.999V111.429Z" fill="black"/>
<path d="M171.429 111.429H180V120H171.429V111.429Z" fill="black"/>
<path d="M162.858 111.429H171.43V120H162.858V111.429Z" fill="black"/>
<path d="M154.284 111.429H162.855V120H154.284V111.429Z" fill="black"/>
<path d="M145.714 111.429H154.285V120H145.714V111.429Z" fill="black"/>
<path d="M137.143 111.429H145.715V120H137.143V111.429Z" fill="black"/>
<path d="M128.569 111.429H137.141V120H128.569V111.429Z" fill="black"/>
<path d="M119.999 111.429H128.57V120H119.999V111.429Z" fill="black"/>
<path d="M94.2863 214.286H85.7148V205.714H94.2863V214.286Z" fill="#611C05"/>
<path d="M102.857 214.286H94.2852V205.714H102.857V214.286Z" fill="#611C05"/>
<path d="M111.431 214.286H102.859V205.714H111.431V214.286Z" fill="#611C05"/>
<path d="M120.001 214.286H111.43V205.714H120.001V214.286Z" fill="#611C05"/>
<path d="M77.1417 205.714H68.5703V197.143H77.1417V205.714Z" fill="#611C05"/>
<path d="M85.716 205.714H77.1445V197.143H85.716V205.714Z" fill="#611C05"/>
<path d="M94.2863 205.714H85.7148V197.143H94.2863V205.714Z" fill="#F49D25"/>
<path d="M102.857 205.714H94.2852V197.143H102.857V205.714Z" fill="#F49D25"/>
<path d="M111.431 205.714H102.859V197.143H111.431V205.714Z" fill="#F49D25"/>
<path d="M120.001 205.714H111.43V197.143H120.001V205.714Z" fill="#F49D25"/>
<path d="M68.5714 197.143H60V188.571H68.5714V197.143Z" fill="#611C05"/>
<path d="M77.1417 197.143H68.5703V188.571H77.1417V197.143Z" fill="#F49D25"/>
<path d="M85.716 197.143H77.1445V188.571H85.716V197.143Z" fill="#F49D25"/>
<path d="M94.2863 197.143H85.7148V188.571H94.2863V197.143Z" fill="#FAF29E"/>
<path d="M102.857 197.143H94.2852V188.571H102.857V197.143Z" fill="#FAF29E"/>
<path d="M111.431 197.143H102.859V188.571H111.431V197.143Z" fill="#FAF29E"/>
<path d="M120.001 197.143H111.43V188.571H120.001V197.143Z" fill="#FAF29E"/>
<path d="M60.0011 188.571H51.4297V180H60.0011V188.571Z" fill="#611C05"/>
<path d="M68.5714 188.571H60V180H68.5714V188.571Z" fill="#F49D25"/>
<path d="M77.1417 188.571H68.5703V180H77.1417V188.571Z" fill="#F49D25"/>
<path d="M85.716 188.571H77.1445V180H85.716V188.571Z" fill="#FAF29E"/>
<path d="M94.2863 188.571H85.7148V180H94.2863V188.571Z" fill="black"/>
<path d="M102.857 188.571H94.2852V180H102.857V188.571Z" fill="black"/>
<path d="M111.431 188.571H102.859V180H111.431V188.571Z" fill="black"/>
<path d="M120.001 188.571H111.43V180H120.001V188.571Z" fill="black"/>
<path d="M51.4308 180H42.8594V171.429H51.4308V180Z" fill="#611C05"/>
<path d="M60.0011 180H51.4297V171.429H60.0011V180Z" fill="#F49D25"/>
<path d="M68.5714 180H60V171.429H68.5714V180Z" fill="#FAF29E"/>
<path d="M77.1417 180H68.5703V171.429H77.1417V180Z" fill="#FAF29E"/>
<path d="M85.716 180H77.1445V171.429H85.716V180Z" fill="black"/>
<path d="M94.2863 180H85.7148V171.429H94.2863V180Z" fill="black"/>
<path d="M102.857 180H94.2852V171.429H102.857V180Z" fill="black"/>
<path d="M111.431 180H102.859V171.429H111.431V180Z" fill="black"/>
<path d="M120.001 180H111.43V171.429H120.001V180Z" fill="black"/>
<path d="M42.8566 171.428H34.2852V162.857H42.8566V171.428Z" fill="#611C05"/>
<path d="M51.4308 171.428H42.8594V162.857H51.4308V171.428Z" fill="#F49D25"/>
<path d="M60.0011 171.428H51.4297V162.857H60.0011V171.428Z" fill="#F49D25"/>
<path d="M68.5714 171.428H60V162.857H68.5714V171.428Z" fill="#FAF29E"/>
<path d="M77.1417 171.428H68.5703V162.857H77.1417V171.428Z" fill="black"/>
<path d="M85.716 171.428H77.1445V162.857H85.716V171.428Z" fill="black"/>
<path d="M94.2863 171.428H85.7148V162.857H94.2863V171.428Z" fill="black"/>
<path d="M102.857 171.428H94.2852V162.857H102.857V171.428Z" fill="black"/>
<path d="M111.431 171.428H102.859V162.857H111.431V171.428Z" fill="black"/>
<path d="M120.001 171.428H111.43V162.857H120.001V171.428Z" fill="black"/>
<path d="M42.8566 162.857H34.2852V154.286H42.8566V162.857Z" fill="#611C05"/>
<path d="M51.4308 162.857H42.8594V154.286H51.4308V162.857Z" fill="#F49D25"/>
<path d="M60.0011 162.857H51.4297V154.286H60.0011V162.857Z" fill="#FAF29E"/>
<path d="M68.5714 162.857H60V154.286H68.5714V162.857Z" fill="black"/>
<path d="M77.1417 162.857H68.5703V154.286H77.1417V162.857Z" fill="black"/>
<path d="M85.716 162.857H77.1445V154.286H85.716V162.857Z" fill="black"/>
<path d="M94.2863 162.857H85.7148V154.286H94.2863V162.857Z" fill="black"/>
<path d="M102.857 162.857H94.2852V154.286H102.857V162.857Z" fill="black"/>
<path d="M111.431 162.857H102.859V154.286H111.431V162.857Z" fill="black"/>
<path d="M120.001 162.857H111.43V154.286H120.001V162.857Z" fill="black"/>
<path d="M34.2863 154.286H25.7148V145.714H34.2863V154.286Z" fill="#611C05"/>
<path d="M42.8566 154.286H34.2852V145.714H42.8566V154.286Z" fill="#F49D25"/>
<path d="M51.4308 154.286H42.8594V145.714H51.4308V154.286Z" fill="#FAF29E"/>
<path d="M60.0011 154.286H51.4297V145.714H60.0011V154.286Z" fill="black"/>
<path d="M68.5714 154.286H60V145.714H68.5714V154.286Z" fill="black"/>
<path d="M77.1417 154.286H68.5703V145.714H77.1417V154.286Z" fill="black"/>
<path d="M85.716 154.286H77.1445V145.714H85.716V154.286Z" fill="black"/>
<path d="M94.2863 154.286H85.7148V145.714H94.2863V154.286Z" fill="black"/>
<path d="M102.857 154.286H94.2852V145.714H102.857V154.286Z" fill="black"/>
<path d="M111.431 154.286H102.859V145.714H111.431V154.286Z" fill="black"/>
<path d="M120.001 154.286H111.43V145.714H120.001V154.286Z" fill="black"/>
<path d="M34.2863 145.714H25.7148V137.143H34.2863V145.714Z" fill="#611C05"/>
<path d="M42.8566 145.714H34.2852V137.143H42.8566V145.714Z" fill="#F49D25"/>
<path d="M51.4308 145.714H42.8594V137.143H51.4308V145.714Z" fill="#FAF29E"/>
<path d="M60.0011 145.714H51.4297V137.143H60.0011V145.714Z" fill="black"/>
<path d="M68.5714 145.714H60V137.143H68.5714V145.714Z" fill="black"/>
<path d="M77.1417 145.714H68.5703V137.143H77.1417V145.714Z" fill="black"/>
<path d="M85.716 145.714H77.1445V137.143H85.716V145.714Z" fill="black"/>
<path d="M94.2863 145.714H85.7148V137.143H94.2863V145.714Z" fill="black"/>
<path d="M102.857 145.714H94.2852V137.143H102.857V145.714Z" fill="black"/>
<path d="M111.431 145.714H102.859V137.143H111.431V145.714Z" fill="black"/>
<path d="M120.001 145.714H111.43V137.143H120.001V145.714Z" fill="black"/>
<path d="M34.2863 137.143H25.7148V128.571H34.2863V137.143Z" fill="#611C05"/>
<path d="M42.8566 137.143H34.2852V128.571H42.8566V137.143Z" fill="#F49D25"/>
<path d="M51.4308 137.143H42.8594V128.571H51.4308V137.143Z" fill="#FAF29E"/>
<path d="M60.0011 137.143H51.4297V128.571H60.0011V137.143Z" fill="black"/>
<path d="M68.5714 137.143H60V128.571H68.5714V137.143Z" fill="black"/>
<path d="M77.1417 137.143H68.5703V128.571H77.1417V137.143Z" fill="black"/>
<path d="M85.716 137.143H77.1445V128.571H85.716V137.143Z" fill="black"/>
<path d="M94.2863 137.143H85.7148V128.571H94.2863V137.143Z" fill="black"/>
<path d="M102.857 137.143H94.2852V128.571H102.857V137.143Z" fill="black"/>
<path d="M111.431 137.143H102.859V128.571H111.431V137.143Z" fill="black"/>
<path d="M120.001 137.143H111.43V128.571H120.001V137.143Z" fill="black"/>
<path d="M34.2863 128.571H25.7148V120H34.2863V128.571Z" fill="#611C05"/>
<path d="M42.8566 128.571H34.2852V120H42.8566V128.571Z" fill="#F49D25"/>
<path d="M51.4308 128.571H42.8594V120H51.4308V128.571Z" fill="#FAF29E"/>
<path d="M60.0011 128.571H51.4297V120H60.0011V128.571Z" fill="black"/>
<path d="M68.5714 128.571H60V120H68.5714V128.571Z" fill="black"/>
<path d="M77.1417 128.571H68.5703V120H77.1417V128.571Z" fill="black"/>
<path d="M85.716 128.571H77.1445V120H85.716V128.571Z" fill="black"/>
<path d="M94.2863 128.571H85.7148V120H94.2863V128.571Z" fill="black"/>
<path d="M102.857 128.571H94.2852V120H102.857V128.571Z" fill="black"/>
<path d="M111.431 128.571H102.859V120H111.431V128.571Z" fill="black"/>
<path d="M120.001 128.571H111.43V120H120.001V128.571Z" fill="black"/>
<path d="M145.714 214.286H154.285V205.714H145.714V214.286Z" fill="#611C05"/>
<path d="M137.143 214.286H145.715V205.714H137.143V214.286Z" fill="#611C05"/>
<path d="M128.569 214.286H137.141V205.714H128.569V214.286Z" fill="#611C05"/>
<path d="M119.999 214.286H128.57V205.714H119.999V214.286Z" fill="#611C05"/>
<path d="M162.858 205.714H171.43V197.143H162.858V205.714Z" fill="#611C05"/>
<path d="M154.284 205.714H162.855V197.143H154.284V205.714Z" fill="#611C05"/>
<path d="M145.714 205.714H154.285V197.143H145.714V205.714Z" fill="#F49D25"/>
<path d="M137.143 205.714H145.715V197.143H137.143V205.714Z" fill="#F49D25"/>
<path d="M128.569 205.714H137.141V197.143H128.569V205.714Z" fill="#F49D25"/>
<path d="M119.999 205.714H128.57V197.143H119.999V205.714Z" fill="#F49D25"/>
<path d="M171.429 197.143H180V188.571H171.429V197.143Z" fill="#611C05"/>
<path d="M162.858 197.143H171.43V188.571H162.858V197.143Z" fill="#F49D25"/>
<path d="M154.284 197.143H162.855V188.571H154.284V197.143Z" fill="#F49D25"/>
<path d="M145.714 197.143H154.285V188.571H145.714V197.143Z" fill="#FAF29E"/>
<path d="M137.143 197.143H145.715V188.571H137.143V197.143Z" fill="#FAF29E"/>
<path d="M128.569 197.143H137.141V188.571H128.569V197.143Z" fill="#FAF29E"/>
<path d="M119.999 197.143H128.57V188.571H119.999V197.143Z" fill="#FAF29E"/>
<path d="M179.999 188.571H188.57V180H179.999V188.571Z" fill="#611C05"/>
<path d="M171.429 188.571H180V180H171.429V188.571Z" fill="#F49D25"/>
<path d="M162.858 188.571H171.43V180H162.858V188.571Z" fill="#F49D25"/>
<path d="M154.284 188.571H162.855V180H154.284V188.571Z" fill="#FAF29E"/>
<path d="M145.714 188.571H154.285V180H145.714V188.571Z" fill="black"/>
<path d="M137.143 188.571H145.715V180H137.143V188.571Z" fill="black"/>
<path d="M128.569 188.571H137.141V180H128.569V188.571Z" fill="black"/>
<path d="M119.999 188.571H128.57V180H119.999V188.571Z" fill="black"/>
<path d="M188.569 180H197.141V171.429H188.569V180Z" fill="#611C05"/>
<path d="M179.999 180H188.57V171.429H179.999V180Z" fill="#F49D25"/>
<path d="M171.429 180H180V171.429H171.429V180Z" fill="#FAF29E"/>
<path d="M162.858 180H171.43V171.429H162.858V180Z" fill="#FAF29E"/>
<path d="M154.284 180H162.855V171.429H154.284V180Z" fill="black"/>
<path d="M145.714 180H154.285V171.429H145.714V180Z" fill="black"/>
<path d="M137.143 180H145.715V171.429H137.143V180Z" fill="black"/>
<path d="M128.569 180H137.141V171.429H128.569V180Z" fill="black"/>
<path d="M119.999 180H128.57V171.429H119.999V180Z" fill="black"/>
<path d="M197.143 171.428H205.715V162.857H197.143V171.428Z" fill="#611C05"/>
<path d="M188.569 171.428H197.141V162.857H188.569V171.428Z" fill="#F49D25"/>
<path d="M179.999 171.428H188.57V162.857H179.999V171.428Z" fill="#F49D25"/>
<path d="M171.429 171.428H180V162.857H171.429V171.428Z" fill="#FAF29E"/>
<path d="M162.858 171.428H171.43V162.857H162.858V171.428Z" fill="black"/>
<path d="M154.284 171.428H162.855V162.857H154.284V171.428Z" fill="black"/>
<path d="M145.714 171.428H154.285V162.857H145.714V171.428Z" fill="black"/>
<path d="M137.143 171.428H145.715V162.857H137.143V171.428Z" fill="black"/>
<path d="M128.569 171.428H137.141V162.857H128.569V171.428Z" fill="black"/>
<path d="M119.999 171.428H128.57V162.857H119.999V171.428Z" fill="black"/>
<path d="M197.143 162.857H205.715V154.286H197.143V162.857Z" fill="#611C05"/>
<path d="M188.569 162.857H197.141V154.286H188.569V162.857Z" fill="#F49D25"/>
<path d="M179.999 162.857H188.57V154.286H179.999V162.857Z" fill="#FAF29E"/>
<path d="M171.429 162.857H180V154.286H171.429V162.857Z" fill="black"/>
<path d="M162.858 162.857H171.43V154.286H162.858V162.857Z" fill="black"/>
<path d="M154.284 162.857H162.855V154.286H154.284V162.857Z" fill="black"/>
<path d="M145.714 162.857H154.285V154.286H145.714V162.857Z" fill="black"/>
<path d="M137.143 162.857H145.715V154.286H137.143V162.857Z" fill="black"/>
<path d="M128.569 162.857H137.141V154.286H128.569V162.857Z" fill="black"/>
<path d="M119.999 162.857H128.57V154.286H119.999V162.857Z" fill="black"/>
<path d="M205.714 154.286H214.285V145.714H205.714V154.286Z" fill="#611C05"/>
<path d="M197.143 154.286H205.715V145.714H197.143V154.286Z" fill="#F49D25"/>
<path d="M188.569 154.286H197.141V145.714H188.569V154.286Z" fill="#FAF29E"/>
<path d="M179.999 154.286H188.57V145.714H179.999V154.286Z" fill="black"/>
<path d="M171.429 154.286H180V145.714H171.429V154.286Z" fill="black"/>
<path d="M162.858 154.286H171.43V145.714H162.858V154.286Z" fill="black"/>
<path d="M154.284 154.286H162.855V145.714H154.284V154.286Z" fill="black"/>
<path d="M145.714 154.286H154.285V145.714H145.714V154.286Z" fill="black"/>
<path d="M137.143 154.286H145.715V145.714H137.143V154.286Z" fill="black"/>
<path d="M128.569 154.286H137.141V145.714H128.569V154.286Z" fill="black"/>
<path d="M119.999 154.286H128.57V145.714H119.999V154.286Z" fill="black"/>
<path d="M205.714 145.714H214.285V137.143H205.714V145.714Z" fill="#611C05"/>
<path d="M197.143 145.714H205.715V137.143H197.143V145.714Z" fill="#F49D25"/>
<path d="M188.569 145.714H197.141V137.143H188.569V145.714Z" fill="#FAF29E"/>
<path d="M179.999 145.714H188.57V137.143H179.999V145.714Z" fill="black"/>
<path d="M171.429 145.714H180V137.143H171.429V145.714Z" fill="black"/>
<path d="M162.858 145.714H171.43V137.143H162.858V145.714Z" fill="black"/>
<path d="M154.284 145.714H162.855V137.143H154.284V145.714Z" fill="black"/>
<path d="M145.714 145.714H154.285V137.143H145.714V145.714Z" fill="black"/>
<path d="M137.143 145.714H145.715V137.143H137.143V145.714Z" fill="black"/>
<path d="M128.569 145.714H137.141V137.143H128.569V145.714Z" fill="black"/>
<path d="M119.999 145.714H128.57V137.143H119.999V145.714Z" fill="black"/>
<path d="M205.714 137.143H214.285V128.571H205.714V137.143Z" fill="#611C05"/>
<path d="M197.143 137.143H205.715V128.571H197.143V137.143Z" fill="#F49D25"/>
<path d="M188.569 137.143H197.141V128.571H188.569V137.143Z" fill="#FAF29E"/>
<path d="M179.999 137.143H188.57V128.571H179.999V137.143Z" fill="black"/>
<path d="M171.429 137.143H180V128.571H171.429V137.143Z" fill="black"/>
<path d="M162.858 137.143H171.43V128.571H162.858V137.143Z" fill="black"/>
<path d="M154.284 137.143H162.855V128.571H154.284V137.143Z" fill="black"/>
<path d="M145.714 137.143H154.285V128.571H145.714V137.143Z" fill="black"/>
<path d="M137.143 137.143H145.715V128.571H137.143V137.143Z" fill="black"/>
<path d="M128.569 137.143H137.141V128.571H128.569V137.143Z" fill="black"/>
<path d="M119.999 137.143H128.57V128.571H119.999V137.143Z" fill="black"/>
<path d="M205.714 128.571H214.285V120H205.714V128.571Z" fill="#611C05"/>
<path d="M197.143 128.571H205.715V120H197.143V128.571Z" fill="#F49D25"/>
<path d="M188.569 128.571H197.141V120H188.569V128.571Z" fill="#FAF29E"/>
<path d="M179.999 128.571H188.57V120H179.999V128.571Z" fill="black"/>
<path d="M171.429 128.571H180V120H171.429V128.571Z" fill="black"/>
<path d="M162.858 128.571H171.43V120H162.858V128.571Z" fill="black"/>
<path d="M154.284 128.571H162.855V120H154.284V128.571Z" fill="black"/>
<path d="M145.714 128.571H154.285V120H145.714V128.571Z" fill="black"/>
<path d="M137.143 128.571H145.715V120H137.143V128.571Z" fill="black"/>
<path d="M128.569 128.571H137.141V120H128.569V128.571Z" fill="black"/>
<path d="M119.999 128.571H128.57V120H119.999V128.571Z" fill="black"/>
</svg>
