<svg xmlns="http://www.w3.org/2000/svg" viewBox="0 0 280 280" width="280" height="280">
  <defs>
    <g id="fullbase0">
      <g id="base0">
        <rect x="110" y="70" width="10" height="10" fill="hsl(0, 90%, 20%)"></rect>
        <rect x="120" y="70" width="10" height="10" fill="hsl(0, 90%, 20%)"></rect>
        <rect x="130" y="70" width="10" height="10" fill="hsl(0, 90%, 20%)"></rect>
        <rect x="140" y="70" width="10" height="10" fill="hsl(0, 90%, 20%)"></rect>
        <rect x="90" y="80" width="10" height="10" fill="hsl(0, 90%, 20%)"></rect>
        <rect x="100" y="80" width="10" height="10" fill="hsl(0, 90%, 20%)"></rect>
        <rect x="110" y="80" width="10" height="10" fill="hsl(15, 90%, 55%)"></rect>
        <rect x="120" y="80" width="10" height="10" fill="hsl(15, 90%, 55%)"></rect>
        <rect x="130" y="80" width="10" height="10" fill="hsl(15, 90%, 55%)"></rect>
        <rect x="140" y="80" width="10" height="10" fill="hsl(15, 90%, 55%)"></rect>
        <rect x="80" y="90" width="10" height="10" fill="hsl(0, 90%, 20%)"></rect>
        <rect x="90" y="90" width="10" height="10" fill="hsl(0, 90%, 20%)"></rect>
        <rect x="100" y="90" width="10" height="10" fill="hsl(15, 90%, 55%)"></rect>
        <rect x="110" y="90" width="10" height="10" fill="hsl(35, 90%, 80%)"></rect>
        <rect x="120" y="90" width="10" height="10" fill="hsl(35, 90%, 80%)"></rect>
        <rect x="130" y="90" width="10" height="10" fill="hsl(35, 90%, 80%)"></rect>
        <rect x="140" y="90" width="10" height="10" fill="hsl(35, 90%, 80%)"></rect>
        <rect x="80" y="100" width="10" height="10" fill="hsl(0, 90%, 20%)"></rect>
        <rect x="90" y="100" width="10" height="10" fill="hsl(15, 90%, 55%)"></rect>
        <rect x="100" y="100" width="10" height="10" fill="hsl(35, 90%, 80%)"></rect>
        <rect x="110" y="100" width="10" height="10" fill="hsl(35, 90%, 80%)"></rect>
        <rect x="70" y="110" width="10" height="10" fill="hsl(0, 90%, 20%)"></rect>
        <rect x="80" y="110" width="10" height="10" fill="hsl(15, 90%, 55%)"></rect>
        <rect x="90" y="110" width="10" height="10" fill="hsl(35, 90%, 80%)"></rect>
        <rect x="100" y="110" width="10" height="10" fill="hsl(35, 90%, 80%)"></rect>
        <rect x="70" y="120" width="10" height="10" fill="hsl(0, 90%, 20%)"></rect>
        <rect x="80" y="120" width="10" height="10" fill="hsl(15, 90%, 55%)"></rect>
        <rect x="90" y="120" width="10" height="10" fill="hsl(35, 90%, 80%)"></rect>
        <rect x="70" y="130" width="10" height="10" fill="hsl(0, 90%, 20%)"></rect>
        <rect x="80" y="130" width="10" height="10" fill="hsl(15, 90%, 55%)"></rect>
        <rect x="90" y="130" width="10" height="10" fill="hsl(35, 90%, 80%)"></rect>
        <rect x="70" y="140" width="10" height="10" fill="hsl(0, 90%, 20%)"></rect>
        <rect x="80" y="140" width="10" height="10" fill="hsl(15, 90%, 55%)"></rect>
        <rect x="90" y="140" width="10" height="10" fill="hsl(35, 90%, 80%)"></rect>
      </g>
      <use href="#base0" transform="scale(-1,1),translate(-290,0)"></use>
      <use href="#base0" transform="scale(1,-1),translate(0,-290)"></use>
      <use href="#base0" transform="scale(-1,-1),translate(-290,-290)"></use>
    </g>

  </defs>
  <rect x="0" y="0" width="280" height="280" fill="#000000"></rect>
  <rect x="40" y="220" width="10" height="10" fill="hsl(0, 0%, 10%)">
  </rect>
  <rect x="20" y="180" width="10" height="10" fill="hsl(0, 0%, 11%)">
  </rect>
  <rect x="30" y="140" width="10" height="10" fill="hsl(0, 0%, 5%)">
  </rect>
  <rect x="210" y="40" width="10" height="10" fill="hsl(0, 0%, 8%)">
  </rect>
  <rect x="130" y="240" width="10" height="10" fill="hsl(0, 0%, 11%)">
  </rect>
  <rect x="260" y="250" width="10" height="10" fill="hsl(0, 0%, 9%)">
  </rect>
  <rect x="130" y="80" width="10" height="10" fill="hsl(0, 0%, 9%)">
  </rect>
  <rect fill="black" x="100" y="100" width="90" height="90"></rect>
  <use href="#fullbase0"></use>
</svg>