<svg xmlns="http://www.w3.org/2000/svg" viewBox="0 0 280 280" width="280" height="280">
  <defs>
    <g id="fullbase4">
      <g id="base4">
        <rect x="100" y="30" width="10" height="10" fill="hsl(230, 61%, 24%)"></rect>
        <rect x="110" y="30" width="10" height="10" fill="hsl(230, 61%, 24%)"></rect>
        <rect x="120" y="30" width="10" height="10" fill="hsl(230, 61%, 24%)"></rect>
        <rect x="130" y="30" width="10" height="10" fill="hsl(230, 61%, 24%)"></rect>
        <rect x="140" y="30" width="10" height="10" fill="hsl(230, 61%, 24%)"></rect>
        <rect x="80" y="40" width="10" height="10" fill="hsl(230, 61%, 24%)"></rect>
        <rect x="90" y="40" width="10" height="10" fill="hsl(230, 61%, 24%)"></rect>
        <rect x="100" y="40" width="10" height="10" fill="hsl(250, 86%, 83%)"></rect>
        <rect x="110" y="40" width="10" height="10" fill="hsl(250, 86%, 83%)"></rect>
        <rect x="120" y="40" width="10" height="10" fill="hsl(250, 86%, 83%)"></rect>
        <rect x="130" y="40" width="10" height="10" fill="hsl(250, 86%, 83%)"></rect>
        <rect x="140" y="40" width="10" height="10" fill="hsl(250, 86%, 83%)"></rect>
        <rect x="70" y="50" width="10" height="10" fill="hsl(230, 61%, 24%)"></rect>
        <rect x="80" y="50" width="10" height="10" fill="hsl(250, 86%, 83%)"></rect>
        <rect x="90" y="50" width="10" height="10" fill="hsl(250, 86%, 83%)"></rect>
        <rect x="100" y="50" width="10" height="10" fill="hsl(269, 100%, 89%)"></rect>
        <rect x="110" y="50" width="10" height="10" fill="hsl(269, 100%, 89%)"></rect>
        <rect x="120" y="50" width="10" height="10" fill="hsl(269, 100%, 89%)"></rect>
        <rect x="130" y="50" width="10" height="10" fill="hsl(269, 100%, 89%)"></rect>
        <rect x="140" y="50" width="10" height="10" fill="hsl(269, 100%, 89%)"></rect>
        <rect x="60" y="60" width="10" height="10" fill="hsl(230, 61%, 24%)"></rect>
        <rect x="70" y="60" width="10" height="10" fill="hsl(250, 86%, 83%)"></rect>
        <rect x="80" y="60" width="10" height="10" fill="hsl(250, 86%, 83%)"></rect>
        <rect x="90" y="60" width="10" height="10" fill="hsl(269, 100%, 89%)"></rect>
        <rect x="50" y="70" width="10" height="10" fill="hsl(230, 61%, 24%)"></rect>
        <rect x="60" y="70" width="10" height="10" fill="hsl(250, 86%, 83%)"></rect>
        <rect x="70" y="70" width="10" height="10" fill="hsl(269, 100%, 89%)"></rect>
        <rect x="80" y="70" width="10" height="10" fill="hsl(269, 100%, 89%)"></rect>
        <rect x="40" y="80" width="10" height="10" fill="hsl(230, 61%, 24%)"></rect>
        <rect x="50" y="80" width="10" height="10" fill="hsl(250, 86%, 83%)"></rect>
        <rect x="60" y="80" width="10" height="10" fill="hsl(250, 86%, 83%)"></rect>
        <rect x="70" y="80" width="10" height="10" fill="hsl(269, 100%, 89%)"></rect>
        <rect x="40" y="90" width="10" height="10" fill="hsl(230, 61%, 24%)"></rect>
        <rect x="50" y="90" width="10" height="10" fill="hsl(250, 86%, 83%)"></rect>
        <rect x="60" y="90" width="10" height="10" fill="hsl(269, 100%, 89%)"></rect>
        <rect x="30" y="100" width="10" height="10" fill="hsl(230, 61%, 24%)"></rect>
        <rect x="40" y="100" width="10" height="10" fill="hsl(250, 86%, 83%)"></rect>
        <rect x="50" y="100" width="10" height="10" fill="hsl(269, 100%, 89%)"></rect>
        <rect x="30" y="110" width="10" height="10" fill="hsl(230, 61%, 24%)"></rect>
        <rect x="40" y="110" width="10" height="10" fill="hsl(250, 86%, 83%)"></rect>
        <rect x="50" y="110" width="10" height="10" fill="hsl(269, 100%, 89%)"></rect>
        <rect x="30" y="120" width="10" height="10" fill="hsl(230, 61%, 24%)"></rect>
        <rect x="40" y="120" width="10" height="10" fill="hsl(250, 86%, 83%)"></rect>
        <rect x="50" y="120" width="10" height="10" fill="hsl(269, 100%, 89%)"></rect>
        <rect x="30" y="130" width="10" height="10" fill="hsl(230, 61%, 24%)"></rect>
        <rect x="40" y="130" width="10" height="10" fill="hsl(250, 86%, 83%)"></rect>
        <rect x="50" y="130" width="10" height="10" fill="hsl(269, 100%, 89%)"></rect>
        <rect x="30" y="140" width="10" height="10" fill="hsl(230, 61%, 24%)"></rect>
        <rect x="40" y="140" width="10" height="10" fill="hsl(250, 86%, 83%)"></rect>
        <rect x="50" y="140" width="10" height="10" fill="hsl(269, 100%, 89%)"></rect>
      </g>
      <use href="#base4" transform="scale(-1,1),translate(-290,0)"></use>
      <use href="#base4" transform="scale(1,-1),translate(0,-290)"></use>
      <use href="#base4" transform="scale(-1,-1),translate(-290,-290)"></use>
    </g>

    <g id="special">
      <path fill="#182463" d="M120 0h10v10h-10V0Z"></path>
      <path fill="#BAAEF9" d="M110 0h10v10h-10z"></path>
      <path fill="#182463" d="M130 10h10v10h-10V10Z"></path>
      <path fill="#182462" d="M90 10H0v10h90V10Z"></path>
      <path fill="#E3C8FF" d="M140 20H0v10h140z"></path>
      <path fill="#182462" d="M40 40H0v10h40V40Z"></path>
      <path fill="#BAAEF9" d="M70 30H0v10h70zM110 10h20v10h-20z"></path>
      <path fill="#E2C7FF" d="M90 20h20V10H90v10Z"></path>
      <path fill="#182462" d="M130 30H70v10h60V30Z"></path>
    </g>

  </defs>
  <rect x="0" y="0" width="280" height="280" fill="#000000"></rect>
  <rect x="100" y="220" width="10" height="10" fill="hsl(0, 0%, 8%)">
  </rect>
  <rect x="90" y="210" width="10" height="10" fill="hsl(0, 0%, 7%)">
  </rect>
  <rect x="40" y="110" width="10" height="10" fill="hsl(0, 0%, 11%)">
  </rect>
  <rect x="60" y="70" width="10" height="10" fill="hsl(0, 0%, 8%)">
  </rect>
  <rect x="80" y="240" width="10" height="10" fill="hsl(0, 0%, 5%)">
  </rect>
  <rect x="60" y="30" width="10" height="10" fill="hsl(0, 0%, 6%)">
  </rect>
  <rect x="220" y="150" width="10" height="10" fill="hsl(0, 0%, 9%)">
  </rect>
  <rect x="180" y="180" width="10" height="10" fill="hsl(0, 0%, 11%)">
  </rect>
  <rect x="130" y="190" width="10" height="10" fill="hsl(0, 0%, 8%)">
  </rect>
  <rect x="130" y="10" width="10" height="10" fill="hsl(0, 0%, 7%)">
  </rect>
  <rect x="250" y="220" width="10" height="10" fill="hsl(0, 0%, 6%)">
  </rect>
  <rect x="140" y="0" width="10" height="10" fill="hsl(0, 0%, 11%)">
  </rect>
  <rect x="180" y="90" width="10" height="10" fill="hsl(0, 0%, 6%)">
  </rect>
  <rect x="40" y="30" width="10" height="10" fill="hsl(0, 0%, 8%)">
  </rect>
  <rect x="90" y="230" width="10" height="10" fill="hsl(0, 0%, 11%)">
  </rect>
  <rect x="130" y="20" width="10" height="10" fill="hsl(0, 0%, 11%)">
  </rect>
  <rect x="250" y="240" width="10" height="10" fill="hsl(0, 0%, 9%)">
  </rect>
  <rect x="190" y="120" width="10" height="10" fill="hsl(0, 0%, 9%)">
  </rect>
  <rect x="270" y="250" width="10" height="10" fill="hsl(0, 0%, 5%)">
  </rect>
  <rect x="80" y="240" width="10" height="10" fill="hsl(0, 0%, 5%)">
  </rect>
  <rect x="0" y="90" width="10" height="10" fill="hsl(0, 0%, 7%)">
  </rect>
  <rect x="230" y="200" width="10" height="10" fill="hsl(0, 0%, 11%)">
  </rect>
  <rect x="130" y="270" width="10" height="10" fill="hsl(0, 0%, 6%)">
  </rect>
  <rect x="170" y="170" width="10" height="10" fill="hsl(0, 0%, 9%)">
  </rect>
  <rect x="180" y="160" width="10" height="10" fill="hsl(0, 0%, 6%)">
  </rect>
  <rect x="270" y="90" width="10" height="10" fill="hsl(0, 0%, 10%)">
  </rect>
  <rect x="120" y="140" width="10" height="10" fill="hsl(0, 0%, 9%)">
  </rect>
  <rect x="240" y="20" width="10" height="10" fill="hsl(0, 0%, 5%)">
  </rect>
  <rect x="150" y="250" width="10" height="10" fill="hsl(0, 0%, 8%)">
  </rect>
  <rect x="170" y="120" width="10" height="10" fill="hsl(0, 0%, 8%)">
  </rect>
  <rect fill="black" x="60" y="60" width="170" height="170"></rect>
  <use href="#fullbase4"></use>
  <rect x="-60" y="60" width="10" height="10" fill="hsl(0, 0%, 75%)">

    <animate attributeName="x" from="-60" to="140" values="-60;140" dur="2s" repeatCount="indefinite"
      begin="0.5252042946879887s" calcMode="spline" keyTimes="0;1" keySplines="0.4 0 0.2 1"></animate>

    <animate attributeName="y" from="60" to="140" values="60;140" dur="2s" repeatCount="indefinite"
      begin="0.5252042946879887s" calcMode="spline" keyTimes="0;1" keySplines="0.4 0 0.2 1"></animate>

    <animate attributeName="fill-opacity" from="1" to="0" values="1;0" dur="2s" repeatCount="indefinite"
      begin="0.5252042946879887s" calcMode="spline" keyTimes="0;1" keySplines="0.4 0 0.2 1"></animate>

  </rect>
  <rect x="-170" y="-260" width="10" height="10" fill="hsl(0, 0%, 139%)">

    <animate attributeName="x" from="-170" to="140" values="-170;140" dur="2s" repeatCount="indefinite"
      begin="1.1064641832468038s" calcMode="spline" keyTimes="0;1" keySplines="0.4 0 0.2 1"></animate>

    <animate attributeName="y" from="-260" to="140" values="-260;140" dur="2s" repeatCount="indefinite"
      begin="1.1064641832468038s" calcMode="spline" keyTimes="0;1" keySplines="0.4 0 0.2 1"></animate>

    <animate attributeName="fill-opacity" from="1" to="0" values="1;0" dur="2s" repeatCount="indefinite"
      begin="1.1064641832468038s" calcMode="spline" keyTimes="0;1" keySplines="0.4 0 0.2 1"></animate>

  </rect>
  <rect x="-230" y="90" width="10" height="10" fill="hsl(0, 0%, 37%)">

    <animate attributeName="x" from="-230" to="140" values="-230;140" dur="2s" repeatCount="indefinite"
      begin="1.9390772788524542s" calcMode="spline" keyTimes="0;1" keySplines="0.4 0 0.2 1"></animate>

    <animate attributeName="y" from="90" to="140" values="90;140" dur="2s" repeatCount="indefinite"
      begin="1.9390772788524542s" calcMode="spline" keyTimes="0;1" keySplines="0.4 0 0.2 1"></animate>

    <animate attributeName="fill-opacity" from="1" to="0" values="1;0" dur="2s" repeatCount="indefinite"
      begin="1.9390772788524542s" calcMode="spline" keyTimes="0;1" keySplines="0.4 0 0.2 1"></animate>

  </rect>
  <rect x="320" y="510" width="10" height="10" fill="hsl(0, 0%, 151%)">

    <animate attributeName="x" from="320" to="140" values="320;140" dur="2s" repeatCount="indefinite"
      begin="0.7794833609888481s" calcMode="spline" keyTimes="0;1" keySplines="0.4 0 0.2 1"></animate>

    <animate attributeName="y" from="510" to="140" values="510;140" dur="2s" repeatCount="indefinite"
      begin="0.7794833609888481s" calcMode="spline" keyTimes="0;1" keySplines="0.4 0 0.2 1"></animate>

    <animate attributeName="fill-opacity" from="1" to="0" values="1;0" dur="2s" repeatCount="indefinite"
      begin="0.7794833609888481s" calcMode="spline" keyTimes="0;1" keySplines="0.4 0 0.2 1"></animate>

  </rect>
  <rect x="-100" y="230" width="10" height="10" fill="hsl(0, 0%, 82%)">

    <animate attributeName="x" from="-100" to="140" values="-100;140" dur="2s" repeatCount="indefinite"
      begin="0.053080744509986566s" calcMode="spline" keyTimes="0;1" keySplines="0.4 0 0.2 1"></animate>

    <animate attributeName="y" from="230" to="140" values="230;140" dur="2s" repeatCount="indefinite"
      begin="0.053080744509986566s" calcMode="spline" keyTimes="0;1" keySplines="0.4 0 0.2 1"></animate>

    <animate attributeName="fill-opacity" from="1" to="0" values="1;0" dur="2s" repeatCount="indefinite"
      begin="0.053080744509986566s" calcMode="spline" keyTimes="0;1" keySplines="0.4 0 0.2 1"></animate>

  </rect>
  <rect x="500" y="-30" width="10" height="10" fill="hsl(0, 0%, 51%)">

    <animate attributeName="x" from="500" to="140" values="500;140" dur="2s" repeatCount="indefinite"
      begin="1.04129981533027s" calcMode="spline" keyTimes="0;1" keySplines="0.4 0 0.2 1"></animate>

    <animate attributeName="y" from="-30" to="140" values="-30;140" dur="2s" repeatCount="indefinite"
      begin="1.04129981533027s" calcMode="spline" keyTimes="0;1" keySplines="0.4 0 0.2 1"></animate>

    <animate attributeName="fill-opacity" from="1" to="0" values="1;0" dur="2s" repeatCount="indefinite"
      begin="1.04129981533027s" calcMode="spline" keyTimes="0;1" keySplines="0.4 0 0.2 1"></animate>

  </rect>
  <rect x="150" y="440" width="10" height="10" fill="hsl(0, 0%, 76%)">

    <animate attributeName="x" from="150" to="140" values="150;140" dur="2s" repeatCount="indefinite"
      begin="0.7896641902246921s" calcMode="spline" keyTimes="0;1" keySplines="0.4 0 0.2 1"></animate>

    <animate attributeName="y" from="440" to="140" values="440;140" dur="2s" repeatCount="indefinite"
      begin="0.7896641902246921s" calcMode="spline" keyTimes="0;1" keySplines="0.4 0 0.2 1"></animate>

    <animate attributeName="fill-opacity" from="1" to="0" values="1;0" dur="2s" repeatCount="indefinite"
      begin="0.7896641902246921s" calcMode="spline" keyTimes="0;1" keySplines="0.4 0 0.2 1"></animate>

  </rect>
  <rect x="110" y="310" width="10" height="10" fill="hsl(0, 0%, 153%)">

    <animate attributeName="x" from="110" to="140" values="110;140" dur="2s" repeatCount="indefinite"
      begin="0.19948518283619032s" calcMode="spline" keyTimes="0;1" keySplines="0.4 0 0.2 1"></animate>

    <animate attributeName="y" from="310" to="140" values="310;140" dur="2s" repeatCount="indefinite"
      begin="0.19948518283619032s" calcMode="spline" keyTimes="0;1" keySplines="0.4 0 0.2 1"></animate>

    <animate attributeName="fill-opacity" from="1" to="0" values="1;0" dur="2s" repeatCount="indefinite"
      begin="0.19948518283619032s" calcMode="spline" keyTimes="0;1" keySplines="0.4 0 0.2 1"></animate>

  </rect>
  <rect x="-110" y="-110" width="10" height="10" fill="hsl(0, 0%, 108%)">

    <animate attributeName="x" from="-110" to="140" values="-110;140" dur="2s" repeatCount="indefinite"
      begin="1.42420053754417s" calcMode="spline" keyTimes="0;1" keySplines="0.4 0 0.2 1"></animate>

    <animate attributeName="y" from="-110" to="140" values="-110;140" dur="2s" repeatCount="indefinite"
      begin="1.42420053754417s" calcMode="spline" keyTimes="0;1" keySplines="0.4 0 0.2 1"></animate>

    <animate attributeName="fill-opacity" from="1" to="0" values="1;0" dur="2s" repeatCount="indefinite"
      begin="1.42420053754417s" calcMode="spline" keyTimes="0;1" keySplines="0.4 0 0.2 1"></animate>

  </rect>
  <rect x="270" y="-280" width="10" height="10" fill="hsl(0, 0%, 169%)">

    <animate attributeName="x" from="270" to="140" values="270;140" dur="2s" repeatCount="indefinite"
      begin="0.1594092277126724s" calcMode="spline" keyTimes="0;1" keySplines="0.4 0 0.2 1"></animate>

    <animate attributeName="y" from="-280" to="140" values="-280;140" dur="2s" repeatCount="indefinite"
      begin="0.1594092277126724s" calcMode="spline" keyTimes="0;1" keySplines="0.4 0 0.2 1"></animate>

    <animate attributeName="fill-opacity" from="1" to="0" values="1;0" dur="2s" repeatCount="indefinite"
      begin="0.1594092277126724s" calcMode="spline" keyTimes="0;1" keySplines="0.4 0 0.2 1"></animate>

  </rect>
  <use href="#special" transform="translate(140,140)"></use>
  <use href="#special" transform="scale(-1,1),translate(-150,140)"></use>
</svg>