<svg xmlns="http://www.w3.org/2000/svg" viewBox="0 0 280 280" width="280" height="280">
  <defs>
    <g id="full">
      <g id="edge">
        <rect x="100" y="30" width="10" height="10" fill="hsl(230,61%,24%)"></rect>
        <rect x="110" y="30" width="10" height="10" fill="hsl(230,61%,24%)"></rect>
        <rect x="120" y="30" width="10" height="10" fill="hsl(230,61%,24%)"></rect>
        <rect x="130" y="30" width="10" height="10" fill="hsl(230,61%,24%)"></rect>
        <rect x="140" y="30" width="10" height="10" fill="hsl(230,61%,24%)"></rect>
        <rect x="80" y="40" width="10" height="10" fill="hsl(230,61%,24%)"></rect>
        <rect x="90" y="40" width="10" height="10" fill="hsl(230,61%,24%)"></rect>
        <rect x="100" y="40" width="10" height="10" fill="hsl(250,86%,83%)"></rect>
        <rect x="110" y="40" width="10" height="10" fill="hsl(250,86%,83%)"></rect>
        <rect x="120" y="40" width="10" height="10" fill="hsl(250,86%,83%)"></rect>
        <rect x="130" y="40" width="10" height="10" fill="hsl(250,86%,83%)"></rect>
        <rect x="140" y="40" width="10" height="10" fill="hsl(250,86%,83%)"></rect>
        <rect x="70" y="50" width="10" height="10" fill="hsl(230,61%,24%)"></rect>
        <rect x="80" y="50" width="10" height="10" fill="hsl(250,86%,83%)"></rect>
        <rect x="90" y="50" width="10" height="10" fill="hsl(250,86%,83%)"></rect>
        <rect x="100" y="50" width="10" height="10" fill="hsl(269,100%,89%)"></rect>
        <rect x="110" y="50" width="10" height="10" fill="hsl(269,100%,89%)"></rect>
        <rect x="120" y="50" width="10" height="10" fill="hsl(269,100%,89%)"></rect>
        <rect x="130" y="50" width="10" height="10" fill="hsl(269,100%,89%)"></rect>
        <rect x="140" y="50" width="10" height="10" fill="hsl(269,100%,89%)"></rect>
        <rect x="60" y="60" width="10" height="10" fill="hsl(230,61%,24%)"></rect>
        <rect x="70" y="60" width="10" height="10" fill="hsl(250,86%,83%)"></rect>
        <rect x="80" y="60" width="10" height="10" fill="hsl(250,86%,83%)"></rect>
        <rect x="90" y="60" width="10" height="10" fill="hsl(269,100%,89%)"></rect>
        <rect x="50" y="70" width="10" height="10" fill="hsl(230,61%,24%)"></rect>
        <rect x="60" y="70" width="10" height="10" fill="hsl(250,86%,83%)"></rect>
        <rect x="70" y="70" width="10" height="10" fill="hsl(269,100%,89%)"></rect>
        <rect x="80" y="70" width="10" height="10" fill="hsl(269,100%,89%)"></rect>
        <rect x="40" y="80" width="10" height="10" fill="hsl(230,61%,24%)"></rect>
        <rect x="50" y="80" width="10" height="10" fill="hsl(250,86%,83%)"></rect>
        <rect x="60" y="80" width="10" height="10" fill="hsl(250,86%,83%)"></rect>
        <rect x="70" y="80" width="10" height="10" fill="hsl(269,100%,89%)"></rect>
        <rect x="40" y="90" width="10" height="10" fill="hsl(230,61%,24%)"></rect>
        <rect x="50" y="90" width="10" height="10" fill="hsl(250,86%,83%)"></rect>
        <rect x="60" y="90" width="10" height="10" fill="hsl(269,100%,89%)"></rect>
        <rect x="30" y="100" width="10" height="10" fill="hsl(230,61%,24%)"></rect>
        <rect x="40" y="100" width="10" height="10" fill="hsl(250,86%,83%)"></rect>
        <rect x="50" y="100" width="10" height="10" fill="hsl(269,100%,89%)"></rect>
        <rect x="30" y="110" width="10" height="10" fill="hsl(230,61%,24%)"></rect>
        <rect x="40" y="110" width="10" height="10" fill="hsl(250,86%,83%)"></rect>
        <rect x="50" y="110" width="10" height="10" fill="hsl(269,100%,89%)"></rect>
        <rect x="30" y="120" width="10" height="10" fill="hsl(230,61%,24%)"></rect>
        <rect x="40" y="120" width="10" height="10" fill="hsl(250,86%,83%)"></rect>
        <rect x="50" y="120" width="10" height="10" fill="hsl(269,100%,89%)"></rect>
        <rect x="30" y="130" width="10" height="10" fill="hsl(230,61%,24%)"></rect>
        <rect x="40" y="130" width="10" height="10" fill="hsl(250,86%,83%)"></rect>
        <rect x="50" y="130" width="10" height="10" fill="hsl(269,100%,89%)"></rect>
        <rect x="30" y="140" width="10" height="10" fill="hsl(230,61%,24%)"></rect>
        <rect x="40" y="140" width="10" height="10" fill="hsl(250,86%,83%)"></rect>
        <rect x="50" y="140" width="10" height="10" fill="hsl(269,100%,89%)"></rect>
      </g>
      <use href="#edge" transform="scale(-1,1),translate(-280,0)"></use>
      <use href="#edge" transform="scale(1,-1),translate(0,-280)"></use>
      <use href="#edge" transform="scale(-1,-1),translate(-280,-280)"></use>
    </g>
    <g id="special">
      <path fill="#182463" d="M120 0h10v10h-10V0Z"></path>
      <path fill="#BAAEF9" d="M110 0h10v10h-10z"></path>
      <path fill="#182463" d="M130 10h10v10h-10V10Z"></path>
      <path fill="#182462" d="M90 10H0v10h90V10Z"></path>
      <path fill="#E3C8FF" d="M140 20H0v10h140z"></path>
      <path fill="#182462" d="M40 40H0v10h40V40Z"></path>
      <path fill="#BAAEF9" d="M70 30H0v10h70zm40-20h20v10h-20z"></path>
      <path fill="#E2C7FF" d="M90 20h20V10H90v10Z"></path>
      <path fill="#182462" d="M130 30H70v10h60V30Z"></path>
    </g>
  </defs>
  <rect x="0" y="0" width="280" height="280" fill="black"></rect>
  <g id="background">
    <rect x="10" y="180" width="10" height="10" fill="hsl(0,0%,11%)"></rect>
    <rect x="180" y="190" width="10" height="10" fill="hsl(0,0%,12%)"></rect>
    <rect x="40" y="20" width="10" height="10" fill="hsl(0,0%,12%)"></rect>
    <rect x="40" y="180" width="10" height="10" fill="hsl(0,0%,6%)"></rect>
    <rect x="100" y="190" width="10" height="10" fill="hsl(0,0%,9%)"></rect>
    <rect x="160" y="60" width="10" height="10" fill="hsl(0,0%,10%)"></rect>
    <rect x="260" y="190" width="10" height="10" fill="hsl(0,0%,9%)"></rect>
    <rect x="250" y="240" width="10" height="10" fill="hsl(0,0%,5%)"></rect>
    <rect x="220" y="90" width="10" height="10" fill="hsl(0,0%,5%)"></rect>
    <rect x="50" y="60" width="10" height="10" fill="hsl(0,0%,9%)"></rect>
    <rect x="230" y="270" width="10" height="10" fill="hsl(0,0%,11%)"></rect>
    <rect x="250" y="20" width="10" height="10" fill="hsl(0,0%,12%)"></rect>
    <rect x="10" y="140" width="10" height="10" fill="hsl(0,0%,9%)"></rect>
    <rect x="110" y="130" width="10" height="10" fill="hsl(0,0%,9%)"></rect>
    <rect x="0" y="210" width="10" height="10" fill="hsl(0,0%,6%)"></rect>
    <rect x="150" y="40" width="10" height="10" fill="hsl(0,0%,7%)"></rect>
    <rect x="120" y="20" width="10" height="10" fill="hsl(0,0%,9%)"></rect>
    <rect x="250" y="170" width="10" height="10" fill="hsl(0,0%,9%)"></rect>
    <rect x="150" y="90" width="10" height="10" fill="hsl(0,0%,6%)"></rect>
    <rect x="210" y="190" width="10" height="10" fill="hsl(0,0%,11%)"></rect>
    <rect x="120" y="130" width="10" height="10" fill="hsl(0,0%,5%)"></rect>
    <rect x="240" y="80" width="10" height="10" fill="hsl(0,0%,5%)"></rect>
    <rect x="160" y="20" width="10" height="10" fill="hsl(0,0%,10%)"></rect>
    <rect x="240" y="30" width="10" height="10" fill="hsl(0,0%,11%)"></rect>
    <rect x="130" y="220" width="10" height="10" fill="hsl(0,0%,12%)"></rect>
    <rect x="240" y="270" width="10" height="10" fill="hsl(0,0%,9%)"></rect>
    <rect x="220" y="90" width="10" height="10" fill="hsl(0,0%,5%)"></rect>
    <rect x="60" y="280" width="10" height="10" fill="hsl(0,0%,12%)"></rect>
    <rect x="110" y="170" width="10" height="10" fill="hsl(0,0%,12%)"></rect>
    <rect x="100" y="170" width="10" height="10" fill="hsl(0,0%,6%)"></rect>
  </g>
  <rect fill="black" x="60" y="60" width="160" height="160"></rect>
  <use href="#full"></use>
  <rect x="20" y="0" width="10" height="10" fill="hsl(0,0%,151%)">
    <animate attributeName="x" from="20" to="140" values="20;140" dur="2s" repeatCount="indefinite" begin="0.870s"
      calcMode="spline" keyTimes="0;1" keySplines="0.4,0,0.2,1"></animate>
    <animate attributeName="y" from="0" to="140" values="0;140" dur="2s" repeatCount="indefinite" begin="0.870s"
      calcMode="spline" keyTimes="0;1" keySplines="0.4,0,0.2,1"></animate>
    <animate attributeName="fill-opacity" from="1" to="0" values="1;0" dur="2s" repeatCount="indefinite" begin="0.870s"
      calcMode="spline" keyTimes="0;1" keySplines="0.4,0,0.2,1"></animate>
  </rect>
  <rect x="180" y="390" width="10" height="10" fill="hsl(0,0%,18%)">
    <animate attributeName="x" from="180" to="140" values="180;140" dur="2s" repeatCount="indefinite" begin="0.114s"
      calcMode="spline" keyTimes="0;1" keySplines="0.4,0,0.2,1"></animate>
    <animate attributeName="y" from="390" to="140" values="390;140" dur="2s" repeatCount="indefinite" begin="0.114s"
      calcMode="spline" keyTimes="0;1" keySplines="0.4,0,0.2,1"></animate>
    <animate attributeName="fill-opacity" from="1" to="0" values="1;0" dur="2s" repeatCount="indefinite" begin="0.114s"
      calcMode="spline" keyTimes="0;1" keySplines="0.4,0,0.2,1"></animate>
  </rect>
  <rect x="240" y="380" width="10" height="10" fill="hsl(0,0%,118%)">
    <animate attributeName="x" from="240" to="140" values="240;140" dur="2s" repeatCount="indefinite" begin="1.174s"
      calcMode="spline" keyTimes="0;1" keySplines="0.4,0,0.2,1"></animate>
    <animate attributeName="y" from="380" to="140" values="380;140" dur="2s" repeatCount="indefinite" begin="1.174s"
      calcMode="spline" keyTimes="0;1" keySplines="0.4,0,0.2,1"></animate>
    <animate attributeName="fill-opacity" from="1" to="0" values="1;0" dur="2s" repeatCount="indefinite" begin="1.174s"
      calcMode="spline" keyTimes="0;1" keySplines="0.4,0,0.2,1"></animate>
  </rect>
  <rect x="830" y="200" width="10" height="10" fill="hsl(0,0%,146%)">
    <animate attributeName="x" from="830" to="140" values="830;140" dur="2s" repeatCount="indefinite" begin="1.476s"
      calcMode="spline" keyTimes="0;1" keySplines="0.4,0,0.2,1"></animate>
    <animate attributeName="y" from="200" to="140" values="200;140" dur="2s" repeatCount="indefinite" begin="1.476s"
      calcMode="spline" keyTimes="0;1" keySplines="0.4,0,0.2,1"></animate>
    <animate attributeName="fill-opacity" from="1" to="0" values="1;0" dur="2s" repeatCount="indefinite" begin="1.476s"
      calcMode="spline" keyTimes="0;1" keySplines="0.4,0,0.2,1"></animate>
  </rect>
  <rect x="800" y="140" width="10" height="10" fill="hsl(0,0%,15%)">
    <animate attributeName="x" from="800" to="140" values="800;140" dur="2s" repeatCount="indefinite" begin="0.325s"
      calcMode="spline" keyTimes="0;1" keySplines="0.4,0,0.2,1"></animate>
    <animate attributeName="y" from="140" to="140" values="140;140" dur="2s" repeatCount="indefinite" begin="0.325s"
      calcMode="spline" keyTimes="0;1" keySplines="0.4,0,0.2,1"></animate>
    <animate attributeName="fill-opacity" from="1" to="0" values="1;0" dur="2s" repeatCount="indefinite" begin="0.325s"
      calcMode="spline" keyTimes="0;1" keySplines="0.4,0,0.2,1"></animate>
  </rect>
  <rect x="570" y="410" width="10" height="10" fill="hsl(0,0%,196%)">
    <animate attributeName="x" from="570" to="140" values="570;140" dur="2s" repeatCount="indefinite" begin="0.733s"
      calcMode="spline" keyTimes="0;1" keySplines="0.4,0,0.2,1"></animate>
    <animate attributeName="y" from="410" to="140" values="410;140" dur="2s" repeatCount="indefinite" begin="0.733s"
      calcMode="spline" keyTimes="0;1" keySplines="0.4,0,0.2,1"></animate>
    <animate attributeName="fill-opacity" from="1" to="0" values="1;0" dur="2s" repeatCount="indefinite" begin="0.733s"
      calcMode="spline" keyTimes="0;1" keySplines="0.4,0,0.2,1"></animate>
  </rect>
  <rect x="150" y="0" width="10" height="10" fill="hsl(0,0%,83%)">
    <animate attributeName="x" from="150" to="140" values="150;140" dur="2s" repeatCount="indefinite" begin="0.412s"
      calcMode="spline" keyTimes="0;1" keySplines="0.4,0,0.2,1"></animate>
    <animate attributeName="y" from="0" to="140" values="0;140" dur="2s" repeatCount="indefinite" begin="0.412s"
      calcMode="spline" keyTimes="0;1" keySplines="0.4,0,0.2,1"></animate>
    <animate attributeName="fill-opacity" from="1" to="0" values="1;0" dur="2s" repeatCount="indefinite" begin="0.412s"
      calcMode="spline" keyTimes="0;1" keySplines="0.4,0,0.2,1"></animate>
  </rect>
  <rect x="10" y="220" width="10" height="10" fill="hsl(0,0%,185%)">
    <animate attributeName="x" from="10" to="140" values="10;140" dur="2s" repeatCount="indefinite" begin="1.789s"
      calcMode="spline" keyTimes="0;1" keySplines="0.4,0,0.2,1"></animate>
    <animate attributeName="y" from="220" to="140" values="220;140" dur="2s" repeatCount="indefinite" begin="1.789s"
      calcMode="spline" keyTimes="0;1" keySplines="0.4,0,0.2,1"></animate>
    <animate attributeName="fill-opacity" from="1" to="0" values="1;0" dur="2s" repeatCount="indefinite" begin="1.789s"
      calcMode="spline" keyTimes="0;1" keySplines="0.4,0,0.2,1"></animate>
  </rect>
  <rect x="340" y="140" width="10" height="10" fill="hsl(0,0%,163%)">
    <animate attributeName="x" from="340" to="140" values="340;140" dur="2s" repeatCount="indefinite" begin="1.477s"
      calcMode="spline" keyTimes="0;1" keySplines="0.4,0,0.2,1"></animate>
    <animate attributeName="y" from="140" to="140" values="140;140" dur="2s" repeatCount="indefinite" begin="1.477s"
      calcMode="spline" keyTimes="0;1" keySplines="0.4,0,0.2,1"></animate>
    <animate attributeName="fill-opacity" from="1" to="0" values="1;0" dur="2s" repeatCount="indefinite" begin="1.477s"
      calcMode="spline" keyTimes="0;1" keySplines="0.4,0,0.2,1"></animate>
  </rect>
  <rect x="750" y="200" width="10" height="10" fill="hsl(0,0%,123%)">
    <animate attributeName="x" from="750" to="140" values="750;140" dur="2s" repeatCount="indefinite" begin="1.431s"
      calcMode="spline" keyTimes="0;1" keySplines="0.4,0,0.2,1"></animate>
    <animate attributeName="y" from="200" to="140" values="200;140" dur="2s" repeatCount="indefinite" begin="1.431s"
      calcMode="spline" keyTimes="0;1" keySplines="0.4,0,0.2,1"></animate>
    <animate attributeName="fill-opacity" from="1" to="0" values="1;0" dur="2s" repeatCount="indefinite" begin="1.431s"
      calcMode="spline" keyTimes="0;1" keySplines="0.4,0,0.2,1"></animate>
  </rect>
  <use href="#special" transform="translate(130,140)"></use>
  <use href="#special" transform="scale(-1,1),translate(-150,140)"></use>
</svg>