<svg xmlns="http://www.w3.org/2000/svg" viewBox="0 0 280 280" width="280" height="280">
  <defs>
    <g id="fullbase1">
      <g id="base1">
        <rect x="100" y="60" width="10" height="10" fill="hsl(5, 90%, 20%)"></rect>
        <rect x="110" y="60" width="10" height="10" fill="hsl(5, 90%, 20%)"></rect>
        <rect x="120" y="60" width="10" height="10" fill="hsl(5, 90%, 20%)"></rect>
        <rect x="130" y="60" width="10" height="10" fill="hsl(5, 90%, 20%)"></rect>
        <rect x="140" y="60" width="10" height="10" fill="hsl(5, 90%, 20%)"></rect>
        <rect x="90" y="70" width="10" height="10" fill="hsl(5, 90%, 20%)"></rect>
        <rect x="100" y="70" width="10" height="10" fill="hsl(5, 90%, 20%)"></rect>
        <rect x="110" y="70" width="10" height="10" fill="hsl(25, 90%, 55%)"></rect>
        <rect x="120" y="70" width="10" height="10" fill="hsl(25, 90%, 55%)"></rect>
        <rect x="130" y="70" width="10" height="10" fill="hsl(25, 90%, 55%)"></rect>
        <rect x="140" y="70" width="10" height="10" fill="hsl(25, 90%, 55%)"></rect>
        <rect x="80" y="80" width="10" height="10" fill="hsl(5, 90%, 20%)"></rect>
        <rect x="90" y="80" width="10" height="10" fill="hsl(25, 90%, 55%)"></rect>
        <rect x="100" y="80" width="10" height="10" fill="hsl(25, 90%, 55%)"></rect>
        <rect x="110" y="80" width="10" height="10" fill="hsl(45, 90%, 80%)"></rect>
        <rect x="120" y="80" width="10" height="10" fill="hsl(45, 90%, 80%)"></rect>
        <rect x="130" y="80" width="10" height="10" fill="hsl(45, 90%, 80%)"></rect>
        <rect x="140" y="80" width="10" height="10" fill="hsl(45, 90%, 80%)"></rect>
        <rect x="70" y="90" width="10" height="10" fill="hsl(5, 90%, 20%)"></rect>
        <rect x="80" y="90" width="10" height="10" fill="hsl(25, 90%, 55%)"></rect>
        <rect x="90" y="90" width="10" height="10" fill="hsl(25, 90%, 55%)"></rect>
        <rect x="100" y="90" width="10" height="10" fill="hsl(45, 90%, 80%)"></rect>
        <rect x="60" y="100" width="10" height="10" fill="hsl(5, 90%, 20%)"></rect>
        <rect x="70" y="100" width="10" height="10" fill="hsl(5, 90%, 20%)"></rect>
        <rect x="80" y="100" width="10" height="10" fill="hsl(25, 90%, 55%)"></rect>
        <rect x="90" y="100" width="10" height="10" fill="hsl(45, 90%, 80%)"></rect>
        <rect x="60" y="110" width="10" height="10" fill="hsl(5, 90%, 20%)"></rect>
        <rect x="70" y="110" width="10" height="10" fill="hsl(25, 90%, 55%)"></rect>
        <rect x="80" y="110" width="10" height="10" fill="hsl(45, 90%, 80%)"></rect>
        <rect x="60" y="120" width="10" height="10" fill="hsl(5, 90%, 20%)"></rect>
        <rect x="70" y="120" width="10" height="10" fill="hsl(25, 90%, 55%)"></rect>
        <rect x="80" y="120" width="10" height="10" fill="hsl(45, 90%, 80%)"></rect>
        <rect x="60" y="130" width="10" height="10" fill="hsl(5, 90%, 20%)"></rect>
        <rect x="70" y="130" width="10" height="10" fill="hsl(25, 90%, 55%)"></rect>
        <rect x="80" y="130" width="10" height="10" fill="hsl(45, 90%, 80%)"></rect>
        <rect x="60" y="140" width="10" height="10" fill="hsl(5, 90%, 20%)"></rect>
        <rect x="70" y="140" width="10" height="10" fill="hsl(25, 90%, 55%)"></rect>
        <rect x="80" y="140" width="10" height="10" fill="hsl(45, 90%, 80%)"></rect>
      </g>
      <use href="#base1" transform="scale(-1,1),translate(-290,0)"></use>
      <use href="#base1" transform="scale(1,-1),translate(0,-290)"></use>
      <use href="#base1" transform="scale(-1,-1),translate(-290,-290)"></use>
    </g>

  </defs>
  <rect x="0" y="0" width="280" height="280" fill="#000000"></rect>
  <rect x="180" y="160" width="10" height="10" fill="hsl(0, 0%, 9%)">
  </rect>
  <rect x="80" y="140" width="10" height="10" fill="hsl(0, 0%, 10%)">
  </rect>
  <rect x="270" y="50" width="10" height="10" fill="hsl(0, 0%, 8%)">
  </rect>
  <rect x="220" y="80" width="10" height="10" fill="hsl(0, 0%, 6%)">
  </rect>
  <rect x="220" y="270" width="10" height="10" fill="hsl(0, 0%, 8%)">
  </rect>
  <rect x="270" y="90" width="10" height="10" fill="hsl(0, 0%, 7%)">
  </rect>
  <rect x="80" y="80" width="10" height="10" fill="hsl(0, 0%, 9%)">
  </rect>
  <rect x="260" y="10" width="10" height="10" fill="hsl(0, 0%, 10%)">
  </rect>
  <rect x="270" y="230" width="10" height="10" fill="hsl(0, 0%, 6%)">
  </rect>
  <rect x="220" y="170" width="10" height="10" fill="hsl(0, 0%, 11%)">
  </rect>
  <rect x="240" y="130" width="10" height="10" fill="hsl(0, 0%, 5%)">
  </rect>
  <rect x="80" y="50" width="10" height="10" fill="hsl(0, 0%, 8%)">
  </rect>
  <rect x="180" y="190" width="10" height="10" fill="hsl(0, 0%, 10%)">
  </rect>
  <rect x="150" y="270" width="10" height="10" fill="hsl(0, 0%, 7%)">
  </rect>
  <rect x="270" y="80" width="10" height="10" fill="hsl(0, 0%, 5%)">
  </rect>
  <rect x="160" y="200" width="10" height="10" fill="hsl(0, 0%, 7%)">
  </rect>
  <rect x="40" y="40" width="10" height="10" fill="hsl(0, 0%, 7%)">
  </rect>
  <rect x="170" y="70" width="10" height="10" fill="hsl(0, 0%, 9%)">
  </rect>
  <rect x="10" y="250" width="10" height="10" fill="hsl(0, 0%, 8%)">
  </rect>
  <rect x="0" y="200" width="10" height="10" fill="hsl(0, 0%, 9%)">
  </rect>
  <rect x="50" y="120" width="10" height="10" fill="hsl(0, 0%, 6%)">
  </rect>
  <rect x="180" y="120" width="10" height="10" fill="hsl(0, 0%, 6%)">
  </rect>
  <rect x="50" y="220" width="10" height="10" fill="hsl(0, 0%, 6%)">
  </rect>
  <rect x="140" y="200" width="10" height="10" fill="hsl(0, 0%, 7%)">
  </rect>
  <rect x="40" y="240" width="10" height="10" fill="hsl(0, 0%, 6%)">
  </rect>
  <rect x="230" y="90" width="10" height="10" fill="hsl(0, 0%, 8%)">
  </rect>
  <rect x="40" y="240" width="10" height="10" fill="hsl(0, 0%, 6%)">
  </rect>
  <rect x="0" y="140" width="10" height="10" fill="hsl(0, 0%, 5%)">
  </rect>
  <rect x="170" y="60" width="10" height="10" fill="hsl(0, 0%, 6%)">
  </rect>
  <rect x="20" y="120" width="10" height="10" fill="hsl(0, 0%, 11%)">
  </rect>
  <rect fill="black" x="90" y="90" width="110" height="110"></rect>
  <use href="#fullbase1"></use>
  <rect x="-140" y="460" width="10" height="10" fill="hsl(0, 0%, 40%)">

    <animate attributeName="x" from="-140" to="140" values="-140;140" dur="2s" repeatCount="indefinite"
      begin="1.9181366459346716s" calcMode="spline" keyTimes="0;1" keySplines="0.4 0 0.2 1"></animate>

    <animate attributeName="y" from="460" to="140" values="460;140" dur="2s" repeatCount="indefinite"
      begin="1.9181366459346716s" calcMode="spline" keyTimes="0;1" keySplines="0.4 0 0.2 1"></animate>

    <animate attributeName="fill-opacity" from="1" to="0" values="1;0" dur="2s" repeatCount="indefinite"
      begin="1.9181366459346716s" calcMode="spline" keyTimes="0;1" keySplines="0.4 0 0.2 1"></animate>

  </rect>
  <rect x="490" y="450" width="10" height="10" fill="hsl(0, 0%, 104%)">

    <animate attributeName="x" from="490" to="140" values="490;140" dur="2s" repeatCount="indefinite"
      begin="0.23217380687347067s" calcMode="spline" keyTimes="0;1" keySplines="0.4 0 0.2 1"></animate>

    <animate attributeName="y" from="450" to="140" values="450;140" dur="2s" repeatCount="indefinite"
      begin="0.23217380687347067s" calcMode="spline" keyTimes="0;1" keySplines="0.4 0 0.2 1"></animate>

    <animate attributeName="fill-opacity" from="1" to="0" values="1;0" dur="2s" repeatCount="indefinite"
      begin="0.23217380687347067s" calcMode="spline" keyTimes="0;1" keySplines="0.4 0 0.2 1"></animate>

  </rect>
  <rect x="330" y="-150" width="10" height="10" fill="hsl(0, 0%, 171%)">

    <animate attributeName="x" from="330" to="140" values="330;140" dur="2s" repeatCount="indefinite"
      begin="0.3926290895512987s" calcMode="spline" keyTimes="0;1" keySplines="0.4 0 0.2 1"></animate>

    <animate attributeName="y" from="-150" to="140" values="-150;140" dur="2s" repeatCount="indefinite"
      begin="0.3926290895512987s" calcMode="spline" keyTimes="0;1" keySplines="0.4 0 0.2 1"></animate>

    <animate attributeName="fill-opacity" from="1" to="0" values="1;0" dur="2s" repeatCount="indefinite"
      begin="0.3926290895512987s" calcMode="spline" keyTimes="0;1" keySplines="0.4 0 0.2 1"></animate>

  </rect>
  <rect x="70" y="380" width="10" height="10" fill="hsl(0, 0%, 176%)">

    <animate attributeName="x" from="70" to="140" values="70;140" dur="2s" repeatCount="indefinite"
      begin="0.36689175318177636s" calcMode="spline" keyTimes="0;1" keySplines="0.4 0 0.2 1"></animate>

    <animate attributeName="y" from="380" to="140" values="380;140" dur="2s" repeatCount="indefinite"
      begin="0.36689175318177636s" calcMode="spline" keyTimes="0;1" keySplines="0.4 0 0.2 1"></animate>

    <animate attributeName="fill-opacity" from="1" to="0" values="1;0" dur="2s" repeatCount="indefinite"
      begin="0.36689175318177636s" calcMode="spline" keyTimes="0;1" keySplines="0.4 0 0.2 1"></animate>

  </rect>
  <rect x="-100" y="160" width="10" height="10" fill="hsl(0, 0%, 67%)">

    <animate attributeName="x" from="-100" to="140" values="-100;140" dur="2s" repeatCount="indefinite"
      begin="0.14706703661482967s" calcMode="spline" keyTimes="0;1" keySplines="0.4 0 0.2 1"></animate>

    <animate attributeName="y" from="160" to="140" values="160;140" dur="2s" repeatCount="indefinite"
      begin="0.14706703661482967s" calcMode="spline" keyTimes="0;1" keySplines="0.4 0 0.2 1"></animate>

    <animate attributeName="fill-opacity" from="1" to="0" values="1;0" dur="2s" repeatCount="indefinite"
      begin="0.14706703661482967s" calcMode="spline" keyTimes="0;1" keySplines="0.4 0 0.2 1"></animate>

  </rect>
  <rect x="180" y="470" width="10" height="10" fill="hsl(0, 0%, 94%)">

    <animate attributeName="x" from="180" to="140" values="180;140" dur="2s" repeatCount="indefinite"
      begin="0.8495408852907809s" calcMode="spline" keyTimes="0;1" keySplines="0.4 0 0.2 1"></animate>

    <animate attributeName="y" from="470" to="140" values="470;140" dur="2s" repeatCount="indefinite"
      begin="0.8495408852907809s" calcMode="spline" keyTimes="0;1" keySplines="0.4 0 0.2 1"></animate>

    <animate attributeName="fill-opacity" from="1" to="0" values="1;0" dur="2s" repeatCount="indefinite"
      begin="0.8495408852907809s" calcMode="spline" keyTimes="0;1" keySplines="0.4 0 0.2 1"></animate>

  </rect>
  <rect x="-140" y="390" width="10" height="10" fill="hsl(0, 0%, 184%)">

    <animate attributeName="x" from="-140" to="140" values="-140;140" dur="2s" repeatCount="indefinite"
      begin="1.1854583506227008s" calcMode="spline" keyTimes="0;1" keySplines="0.4 0 0.2 1"></animate>

    <animate attributeName="y" from="390" to="140" values="390;140" dur="2s" repeatCount="indefinite"
      begin="1.1854583506227008s" calcMode="spline" keyTimes="0;1" keySplines="0.4 0 0.2 1"></animate>

    <animate attributeName="fill-opacity" from="1" to="0" values="1;0" dur="2s" repeatCount="indefinite"
      begin="1.1854583506227008s" calcMode="spline" keyTimes="0;1" keySplines="0.4 0 0.2 1"></animate>

  </rect>
  <rect x="30" y="360" width="10" height="10" fill="hsl(0, 0%, 37%)">

    <animate attributeName="x" from="30" to="140" values="30;140" dur="2s" repeatCount="indefinite"
      begin="0.8980621487704341s" calcMode="spline" keyTimes="0;1" keySplines="0.4 0 0.2 1"></animate>

    <animate attributeName="y" from="360" to="140" values="360;140" dur="2s" repeatCount="indefinite"
      begin="0.8980621487704341s" calcMode="spline" keyTimes="0;1" keySplines="0.4 0 0.2 1"></animate>

    <animate attributeName="fill-opacity" from="1" to="0" values="1;0" dur="2s" repeatCount="indefinite"
      begin="0.8980621487704341s" calcMode="spline" keyTimes="0;1" keySplines="0.4 0 0.2 1"></animate>

  </rect>
  <rect x="10" y="460" width="10" height="10" fill="hsl(0, 0%, 145%)">

    <animate attributeName="x" from="10" to="140" values="10;140" dur="2s" repeatCount="indefinite"
      begin="1.1038946760251922s" calcMode="spline" keyTimes="0;1" keySplines="0.4 0 0.2 1"></animate>

    <animate attributeName="y" from="460" to="140" values="460;140" dur="2s" repeatCount="indefinite"
      begin="1.1038946760251922s" calcMode="spline" keyTimes="0;1" keySplines="0.4 0 0.2 1"></animate>

    <animate attributeName="fill-opacity" from="1" to="0" values="1;0" dur="2s" repeatCount="indefinite"
      begin="1.1038946760251922s" calcMode="spline" keyTimes="0;1" keySplines="0.4 0 0.2 1"></animate>

  </rect>
  <rect x="-180" y="-200" width="10" height="10" fill="hsl(0, 0%, 164%)">

    <animate attributeName="x" from="-180" to="140" values="-180;140" dur="2s" repeatCount="indefinite"
      begin="0.05437298390911982s" calcMode="spline" keyTimes="0;1" keySplines="0.4 0 0.2 1"></animate>

    <animate attributeName="y" from="-200" to="140" values="-200;140" dur="2s" repeatCount="indefinite"
      begin="0.05437298390911982s" calcMode="spline" keyTimes="0;1" keySplines="0.4 0 0.2 1"></animate>

    <animate attributeName="fill-opacity" from="1" to="0" values="1;0" dur="2s" repeatCount="indefinite"
      begin="0.05437298390911982s" calcMode="spline" keyTimes="0;1" keySplines="0.4 0 0.2 1"></animate>

  </rect>
</svg>