<svg width="240" height="240" viewBox="0 0 240 240" fill="none" xmlns="http://www.w3.org/2000/svg">
<path d="M94.2824 42.8572H85.7109V51.4286H94.2824V42.8572Z" fill="#610D05"/>
<path d="M102.857 42.8572H94.2852V51.4286H102.857V42.8572Z" fill="#610D05"/>
<path d="M111.427 42.8572H102.855V51.4286H111.427V42.8572Z" fill="#610D05"/>
<path d="M119.997 42.8572H111.426V51.4286H119.997V42.8572Z" fill="#610D05"/>
<path d="M85.7121 51.4287H77.1406V60.0001H85.7121V51.4287Z" fill="#610D05"/>
<path d="M94.2824 51.4287H85.7109V60.0001H94.2824V51.4287Z" fill="#F47B25"/>
<path d="M102.857 51.4287H94.2852V60.0001H102.857V51.4287Z" fill="#F47B25"/>
<path d="M111.427 51.4287H102.855V60.0001H111.427V51.4287Z" fill="#F47B25"/>
<path d="M119.997 51.4287H111.426V60.0001H119.997V51.4287Z" fill="#F47B25"/>
<path d="M68.5714 60H60V68.5714H68.5714V60Z" fill="#610D05"/>
<path d="M77.1417 60H68.5703V68.5714H77.1417V60Z" fill="#610D05"/>
<path d="M85.7121 60H77.1406V68.5714H85.7121V60Z" fill="#F47B25"/>
<path d="M94.2824 60H85.7109V68.5714H94.2824V60Z" fill="#F47B25"/>
<path d="M102.857 60H94.2852V68.5714H102.857V60Z" fill="#FAE39E"/>
<path d="M111.427 60H102.855V68.5714H111.427V60Z" fill="#FAE39E"/>
<path d="M119.997 60H111.426V68.5714H119.997V60Z" fill="#FAE39E"/>
<path d="M68.5714 68.5715H60V77.143H68.5714V68.5715Z" fill="#610D05"/>
<path d="M77.1417 68.5715H68.5703V77.143H77.1417V68.5715Z" fill="#F47B25"/>
<path d="M85.7121 68.5715H77.1406V77.143H85.7121V68.5715Z" fill="#FAE39E"/>
<path d="M94.2824 68.5715H85.7109V77.143H94.2824V68.5715Z" fill="#FAE39E"/>
<path d="M102.857 68.5715H94.2852V77.143H102.857V68.5715Z" fill="black"/>
<path d="M111.427 68.5715H102.855V77.143H111.427V68.5715Z" fill="black"/>
<path d="M119.997 68.5715H111.426V77.143H119.997V68.5715Z" fill="black"/>
<path d="M59.9972 77.1428H51.4258V85.7143H59.9972V77.1428Z" fill="#610D05"/>
<path d="M68.5714 77.1428H60V85.7143H68.5714V77.1428Z" fill="#F47B25"/>
<path d="M77.1417 77.1428H68.5703V85.7143H77.1417V77.1428Z" fill="#FAE39E"/>
<path d="M85.7121 77.1428H77.1406V85.7143H85.7121V77.1428Z" fill="#FAE39E"/>
<path d="M94.2824 77.1428H85.7109V85.7143H94.2824V77.1428Z" fill="black"/>
<path d="M102.857 77.1428H94.2852V85.7143H102.857V77.1428Z" fill="black"/>
<path d="M111.427 77.1428H102.855V85.7143H111.427V77.1428Z" fill="black"/>
<path d="M119.997 77.1428H111.426V85.7143H119.997V77.1428Z" fill="black"/>
<path d="M51.4269 85.7144H42.8555V94.2858H51.4269V85.7144Z" fill="#610D05"/>
<path d="M59.9972 85.7144H51.4258V94.2858H59.9972V85.7144Z" fill="#F47B25"/>
<path d="M68.5714 85.7144H60V94.2858H68.5714V85.7144Z" fill="#F47B25"/>
<path d="M77.1417 85.7144H68.5703V94.2858H77.1417V85.7144Z" fill="#FAE39E"/>
<path d="M85.7121 85.7144H77.1406V94.2858H85.7121V85.7144Z" fill="black"/>
<path d="M94.2824 85.7144H85.7109V94.2858H94.2824V85.7144Z" fill="black"/>
<path d="M102.857 85.7144H94.2852V94.2858H102.857V85.7144Z" fill="black"/>
<path d="M111.427 85.7144H102.855V94.2858H111.427V85.7144Z" fill="black"/>
<path d="M119.997 85.7144H111.426V94.2858H119.997V85.7144Z" fill="black"/>
<path d="M51.4269 94.2856H42.8555V102.857H51.4269V94.2856Z" fill="#610D05"/>
<path d="M59.9972 94.2856H51.4258V102.857H59.9972V94.2856Z" fill="#F47B25"/>
<path d="M68.5714 94.2856H60V102.857H68.5714V94.2856Z" fill="#FAE39E"/>
<path d="M77.1417 94.2856H68.5703V102.857H77.1417V94.2856Z" fill="black"/>
<path d="M85.7121 94.2856H77.1406V102.857H85.7121V94.2856Z" fill="black"/>
<path d="M94.2824 94.2856H85.7109V102.857H94.2824V94.2856Z" fill="black"/>
<path d="M102.857 94.2856H94.2852V102.857H102.857V94.2856Z" fill="black"/>
<path d="M111.427 94.2856H102.855V102.857H111.427V94.2856Z" fill="black"/>
<path d="M119.997 94.2856H111.426V102.857H119.997V94.2856Z" fill="black"/>
<path d="M51.4269 102.857H42.8555V111.429H51.4269V102.857Z" fill="#610D05"/>
<path d="M59.9972 102.857H51.4258V111.429H59.9972V102.857Z" fill="#F47B25"/>
<path d="M68.5714 102.857H60V111.429H68.5714V102.857Z" fill="#FAE39E"/>
<path d="M77.1417 102.857H68.5703V111.429H77.1417V102.857Z" fill="black"/>
<path d="M85.7121 102.857H77.1406V111.429H85.7121V102.857Z" fill="black"/>
<path d="M94.2824 102.857H85.7109V111.429H94.2824V102.857Z" fill="black"/>
<path d="M102.857 102.857H94.2852V111.429H102.857V102.857Z" fill="black"/>
<path d="M111.427 102.857H102.855V111.429H111.427V102.857Z" fill="black"/>
<path d="M119.997 102.857H111.426V111.429H119.997V102.857Z" fill="black"/>
<path d="M51.4269 111.429H42.8555V120H51.4269V111.429Z" fill="#610D05"/>
<path d="M59.9972 111.429H51.4258V120H59.9972V111.429Z" fill="#F47B25"/>
<path d="M68.5714 111.429H60V120H68.5714V111.429Z" fill="#FAE39E"/>
<path d="M77.1417 111.429H68.5703V120H77.1417V111.429Z" fill="black"/>
<path d="M85.7121 111.429H77.1406V120H85.7121V111.429Z" fill="black"/>
<path d="M94.2824 111.429H85.7109V120H94.2824V111.429Z" fill="black"/>
<path d="M102.857 111.429H94.2852V120H102.857V111.429Z" fill="black"/>
<path d="M111.427 111.429H102.855V120H111.427V111.429Z" fill="black"/>
<path d="M119.997 111.429H111.426V120H119.997V111.429Z" fill="black"/>
<path d="M145.718 42.8572H154.289V51.4286H145.718V42.8572Z" fill="#610D05"/>
<path d="M137.143 42.8572H145.715V51.4286H137.143V42.8572Z" fill="#610D05"/>
<path d="M128.573 42.8572H137.145V51.4286H128.573V42.8572Z" fill="#610D05"/>
<path d="M120.003 42.8572H128.574V51.4286H120.003V42.8572Z" fill="#610D05"/>
<path d="M154.288 51.4287H162.859V60.0001H154.288V51.4287Z" fill="#610D05"/>
<path d="M145.718 51.4287H154.289V60.0001H145.718V51.4287Z" fill="#F47B25"/>
<path d="M137.143 51.4287H145.715V60.0001H137.143V51.4287Z" fill="#F47B25"/>
<path d="M128.573 51.4287H137.145V60.0001H128.573V51.4287Z" fill="#F47B25"/>
<path d="M120.003 51.4287H128.574V60.0001H120.003V51.4287Z" fill="#F47B25"/>
<path d="M171.429 60H180V68.5714H171.429V60Z" fill="#610D05"/>
<path d="M162.858 60H171.43V68.5714H162.858V60Z" fill="#610D05"/>
<path d="M154.288 60H162.859V68.5714H154.288V60Z" fill="#F47B25"/>
<path d="M145.718 60H154.289V68.5714H145.718V60Z" fill="#F47B25"/>
<path d="M137.143 60H145.715V68.5714H137.143V60Z" fill="#FAE39E"/>
<path d="M128.573 60H137.145V68.5714H128.573V60Z" fill="#FAE39E"/>
<path d="M120.003 60H128.574V68.5714H120.003V60Z" fill="#FAE39E"/>
<path d="M171.429 68.5715H180V77.143H171.429V68.5715Z" fill="#610D05"/>
<path d="M162.858 68.5715H171.43V77.143H162.858V68.5715Z" fill="#F47B25"/>
<path d="M154.288 68.5715H162.859V77.143H154.288V68.5715Z" fill="#FAE39E"/>
<path d="M145.718 68.5715H154.289V77.143H145.718V68.5715Z" fill="#FAE39E"/>
<path d="M137.143 68.5715H145.715V77.143H137.143V68.5715Z" fill="black"/>
<path d="M128.573 68.5715H137.145V77.143H128.573V68.5715Z" fill="black"/>
<path d="M120.003 68.5715H128.574V77.143H120.003V68.5715Z" fill="black"/>
<path d="M180.003 77.1428H188.574V85.7143H180.003V77.1428Z" fill="#610D05"/>
<path d="M171.429 77.1428H180V85.7143H171.429V77.1428Z" fill="#F47B25"/>
<path d="M162.858 77.1428H171.43V85.7143H162.858V77.1428Z" fill="#FAE39E"/>
<path d="M154.288 77.1428H162.859V85.7143H154.288V77.1428Z" fill="#FAE39E"/>
<path d="M145.718 77.1428H154.289V85.7143H145.718V77.1428Z" fill="black"/>
<path d="M137.143 77.1428H145.715V85.7143H137.143V77.1428Z" fill="black"/>
<path d="M128.573 77.1428H137.145V85.7143H128.573V77.1428Z" fill="black"/>
<path d="M120.003 77.1428H128.574V85.7143H120.003V77.1428Z" fill="black"/>
<path d="M188.573 85.7144H197.145V94.2858H188.573V85.7144Z" fill="#610D05"/>
<path d="M180.003 85.7144H188.574V94.2858H180.003V85.7144Z" fill="#F47B25"/>
<path d="M171.429 85.7144H180V94.2858H171.429V85.7144Z" fill="#F47B25"/>
<path d="M162.858 85.7144H171.43V94.2858H162.858V85.7144Z" fill="#FAE39E"/>
<path d="M154.288 85.7144H162.859V94.2858H154.288V85.7144Z" fill="black"/>
<path d="M145.718 85.7144H154.289V94.2858H145.718V85.7144Z" fill="black"/>
<path d="M137.143 85.7144H145.715V94.2858H137.143V85.7144Z" fill="black"/>
<path d="M128.573 85.7144H137.145V94.2858H128.573V85.7144Z" fill="black"/>
<path d="M120.003 85.7144H128.574V94.2858H120.003V85.7144Z" fill="black"/>
<path d="M188.573 94.2856H197.145V102.857H188.573V94.2856Z" fill="#610D05"/>
<path d="M180.003 94.2856H188.574V102.857H180.003V94.2856Z" fill="#F47B25"/>
<path d="M171.429 94.2856H180V102.857H171.429V94.2856Z" fill="#FAE39E"/>
<path d="M162.858 94.2856H171.43V102.857H162.858V94.2856Z" fill="black"/>
<path d="M154.288 94.2856H162.859V102.857H154.288V94.2856Z" fill="black"/>
<path d="M145.718 94.2856H154.289V102.857H145.718V94.2856Z" fill="black"/>
<path d="M137.143 94.2856H145.715V102.857H137.143V94.2856Z" fill="black"/>
<path d="M128.573 94.2856H137.145V102.857H128.573V94.2856Z" fill="black"/>
<path d="M120.003 94.2856H128.574V102.857H120.003V94.2856Z" fill="black"/>
<path d="M188.573 102.857H197.145V111.429H188.573V102.857Z" fill="#610D05"/>
<path d="M180.003 102.857H188.574V111.429H180.003V102.857Z" fill="#F47B25"/>
<path d="M171.429 102.857H180V111.429H171.429V102.857Z" fill="#FAE39E"/>
<path d="M162.858 102.857H171.43V111.429H162.858V102.857Z" fill="black"/>
<path d="M154.288 102.857H162.859V111.429H154.288V102.857Z" fill="black"/>
<path d="M145.718 102.857H154.289V111.429H145.718V102.857Z" fill="black"/>
<path d="M137.143 102.857H145.715V111.429H137.143V102.857Z" fill="black"/>
<path d="M128.573 102.857H137.145V111.429H128.573V102.857Z" fill="black"/>
<path d="M120.003 102.857H128.574V111.429H120.003V102.857Z" fill="black"/>
<path d="M188.573 111.429H197.145V120H188.573V111.429Z" fill="#610D05"/>
<path d="M180.003 111.429H188.574V120H180.003V111.429Z" fill="#F47B25"/>
<path d="M171.429 111.429H180V120H171.429V111.429Z" fill="#FAE39E"/>
<path d="M162.858 111.429H171.43V120H162.858V111.429Z" fill="black"/>
<path d="M154.288 111.429H162.859V120H154.288V111.429Z" fill="black"/>
<path d="M145.718 111.429H154.289V120H145.718V111.429Z" fill="black"/>
<path d="M137.143 111.429H145.715V120H137.143V111.429Z" fill="black"/>
<path d="M128.573 111.429H137.145V120H128.573V111.429Z" fill="black"/>
<path d="M120.003 111.429H128.574V120H120.003V111.429Z" fill="black"/>
<path d="M94.2824 197.143H85.7109V188.571H94.2824V197.143Z" fill="#610D05"/>
<path d="M102.857 197.143H94.2852V188.571H102.857V197.143Z" fill="#610D05"/>
<path d="M111.427 197.143H102.855V188.571H111.427V197.143Z" fill="#610D05"/>
<path d="M119.997 197.143H111.426V188.571H119.997V197.143Z" fill="#610D05"/>
<path d="M85.7121 188.571H77.1406V180H85.7121V188.571Z" fill="#610D05"/>
<path d="M94.2824 188.571H85.7109V180H94.2824V188.571Z" fill="#F47B25"/>
<path d="M102.857 188.571H94.2852V180H102.857V188.571Z" fill="#F47B25"/>
<path d="M111.427 188.571H102.855V180H111.427V188.571Z" fill="#F47B25"/>
<path d="M119.997 188.571H111.426V180H119.997V188.571Z" fill="#F47B25"/>
<path d="M68.5714 180H60V171.429H68.5714V180Z" fill="#610D05"/>
<path d="M77.1417 180H68.5703V171.429H77.1417V180Z" fill="#610D05"/>
<path d="M85.7121 180H77.1406V171.429H85.7121V180Z" fill="#F47B25"/>
<path d="M94.2824 180H85.7109V171.429H94.2824V180Z" fill="#F47B25"/>
<path d="M102.857 180H94.2852V171.429H102.857V180Z" fill="#FAE39E"/>
<path d="M111.427 180H102.855V171.429H111.427V180Z" fill="#FAE39E"/>
<path d="M119.997 180H111.426V171.429H119.997V180Z" fill="#FAE39E"/>
<path d="M68.5714 171.428H60V162.857H68.5714V171.428Z" fill="#610D05"/>
<path d="M77.1417 171.428H68.5703V162.857H77.1417V171.428Z" fill="#F47B25"/>
<path d="M85.7121 171.428H77.1406V162.857H85.7121V171.428Z" fill="#FAE39E"/>
<path d="M94.2824 171.428H85.7109V162.857H94.2824V171.428Z" fill="#FAE39E"/>
<path d="M102.857 171.428H94.2852V162.857H102.857V171.428Z" fill="black"/>
<path d="M111.427 171.428H102.855V162.857H111.427V171.428Z" fill="black"/>
<path d="M119.997 171.428H111.426V162.857H119.997V171.428Z" fill="black"/>
<path d="M59.9972 162.857H51.4258V154.286H59.9972V162.857Z" fill="#610D05"/>
<path d="M68.5714 162.857H60V154.286H68.5714V162.857Z" fill="#F47B25"/>
<path d="M77.1417 162.857H68.5703V154.286H77.1417V162.857Z" fill="#FAE39E"/>
<path d="M85.7121 162.857H77.1406V154.286H85.7121V162.857Z" fill="#FAE39E"/>
<path d="M94.2824 162.857H85.7109V154.286H94.2824V162.857Z" fill="black"/>
<path d="M102.857 162.857H94.2852V154.286H102.857V162.857Z" fill="black"/>
<path d="M111.427 162.857H102.855V154.286H111.427V162.857Z" fill="black"/>
<path d="M119.997 162.857H111.426V154.286H119.997V162.857Z" fill="black"/>
<path d="M51.4269 154.286H42.8555V145.714H51.4269V154.286Z" fill="#610D05"/>
<path d="M59.9972 154.286H51.4258V145.714H59.9972V154.286Z" fill="#F47B25"/>
<path d="M68.5714 154.286H60V145.714H68.5714V154.286Z" fill="#F47B25"/>
<path d="M77.1417 154.286H68.5703V145.714H77.1417V154.286Z" fill="#FAE39E"/>
<path d="M85.7121 154.286H77.1406V145.714H85.7121V154.286Z" fill="black"/>
<path d="M94.2824 154.286H85.7109V145.714H94.2824V154.286Z" fill="black"/>
<path d="M102.857 154.286H94.2852V145.714H102.857V154.286Z" fill="black"/>
<path d="M111.427 154.286H102.855V145.714H111.427V154.286Z" fill="black"/>
<path d="M119.997 154.286H111.426V145.714H119.997V154.286Z" fill="black"/>
<path d="M51.4269 145.714H42.8555V137.143H51.4269V145.714Z" fill="#610D05"/>
<path d="M59.9972 145.714H51.4258V137.143H59.9972V145.714Z" fill="#F47B25"/>
<path d="M68.5714 145.714H60V137.143H68.5714V145.714Z" fill="#FAE39E"/>
<path d="M77.1417 145.714H68.5703V137.143H77.1417V145.714Z" fill="black"/>
<path d="M85.7121 145.714H77.1406V137.143H85.7121V145.714Z" fill="black"/>
<path d="M94.2824 145.714H85.7109V137.143H94.2824V145.714Z" fill="black"/>
<path d="M102.857 145.714H94.2852V137.143H102.857V145.714Z" fill="black"/>
<path d="M111.427 145.714H102.855V137.143H111.427V145.714Z" fill="black"/>
<path d="M119.997 145.714H111.426V137.143H119.997V145.714Z" fill="black"/>
<path d="M51.4269 137.143H42.8555V128.571H51.4269V137.143Z" fill="#610D05"/>
<path d="M59.9972 137.143H51.4258V128.571H59.9972V137.143Z" fill="#F47B25"/>
<path d="M68.5714 137.143H60V128.571H68.5714V137.143Z" fill="#FAE39E"/>
<path d="M77.1417 137.143H68.5703V128.571H77.1417V137.143Z" fill="black"/>
<path d="M85.7121 137.143H77.1406V128.571H85.7121V137.143Z" fill="black"/>
<path d="M94.2824 137.143H85.7109V128.571H94.2824V137.143Z" fill="black"/>
<path d="M102.857 137.143H94.2852V128.571H102.857V137.143Z" fill="black"/>
<path d="M111.427 137.143H102.855V128.571H111.427V137.143Z" fill="black"/>
<path d="M119.997 137.143H111.426V128.571H119.997V137.143Z" fill="black"/>
<path d="M51.4269 128.571H42.8555V120H51.4269V128.571Z" fill="#610D05"/>
<path d="M59.9972 128.571H51.4258V120H59.9972V128.571Z" fill="#F47B25"/>
<path d="M68.5714 128.571H60V120H68.5714V128.571Z" fill="#FAE39E"/>
<path d="M77.1417 128.571H68.5703V120H77.1417V128.571Z" fill="black"/>
<path d="M85.7121 128.571H77.1406V120H85.7121V128.571Z" fill="black"/>
<path d="M94.2824 128.571H85.7109V120H94.2824V128.571Z" fill="black"/>
<path d="M102.857 128.571H94.2852V120H102.857V128.571Z" fill="black"/>
<path d="M111.427 128.571H102.855V120H111.427V128.571Z" fill="black"/>
<path d="M119.997 128.571H111.426V120H119.997V128.571Z" fill="black"/>
<path d="M145.718 197.143H154.289V188.571H145.718V197.143Z" fill="#610D05"/>
<path d="M137.143 197.143H145.715V188.571H137.143V197.143Z" fill="#610D05"/>
<path d="M128.573 197.143H137.145V188.571H128.573V197.143Z" fill="#610D05"/>
<path d="M120.003 197.143H128.574V188.571H120.003V197.143Z" fill="#610D05"/>
<path d="M154.288 188.571H162.859V180H154.288V188.571Z" fill="#610D05"/>
<path d="M145.718 188.571H154.289V180H145.718V188.571Z" fill="#F47B25"/>
<path d="M137.143 188.571H145.715V180H137.143V188.571Z" fill="#F47B25"/>
<path d="M128.573 188.571H137.145V180H128.573V188.571Z" fill="#F47B25"/>
<path d="M120.003 188.571H128.574V180H120.003V188.571Z" fill="#F47B25"/>
<path d="M171.429 180H180V171.429H171.429V180Z" fill="#610D05"/>
<path d="M162.858 180H171.43V171.429H162.858V180Z" fill="#610D05"/>
<path d="M154.288 180H162.859V171.429H154.288V180Z" fill="#F47B25"/>
<path d="M145.718 180H154.289V171.429H145.718V180Z" fill="#F47B25"/>
<path d="M137.143 180H145.715V171.429H137.143V180Z" fill="#FAE39E"/>
<path d="M128.573 180H137.145V171.429H128.573V180Z" fill="#FAE39E"/>
<path d="M120.003 180H128.574V171.429H120.003V180Z" fill="#FAE39E"/>
<path d="M171.429 171.428H180V162.857H171.429V171.428Z" fill="#610D05"/>
<path d="M162.858 171.428H171.43V162.857H162.858V171.428Z" fill="#F47B25"/>
<path d="M154.288 171.428H162.859V162.857H154.288V171.428Z" fill="#FAE39E"/>
<path d="M145.718 171.428H154.289V162.857H145.718V171.428Z" fill="#FAE39E"/>
<path d="M137.143 171.428H145.715V162.857H137.143V171.428Z" fill="black"/>
<path d="M128.573 171.428H137.145V162.857H128.573V171.428Z" fill="black"/>
<path d="M120.003 171.428H128.574V162.857H120.003V171.428Z" fill="black"/>
<path d="M180.003 162.857H188.574V154.286H180.003V162.857Z" fill="#610D05"/>
<path d="M171.429 162.857H180V154.286H171.429V162.857Z" fill="#F47B25"/>
<path d="M162.858 162.857H171.43V154.286H162.858V162.857Z" fill="#FAE39E"/>
<path d="M154.288 162.857H162.859V154.286H154.288V162.857Z" fill="#FAE39E"/>
<path d="M145.718 162.857H154.289V154.286H145.718V162.857Z" fill="black"/>
<path d="M137.143 162.857H145.715V154.286H137.143V162.857Z" fill="black"/>
<path d="M128.573 162.857H137.145V154.286H128.573V162.857Z" fill="black"/>
<path d="M120.003 162.857H128.574V154.286H120.003V162.857Z" fill="black"/>
<path d="M188.573 154.286H197.145V145.714H188.573V154.286Z" fill="#610D05"/>
<path d="M180.003 154.286H188.574V145.714H180.003V154.286Z" fill="#F47B25"/>
<path d="M171.429 154.286H180V145.714H171.429V154.286Z" fill="#F47B25"/>
<path d="M162.858 154.286H171.43V145.714H162.858V154.286Z" fill="#FAE39E"/>
<path d="M154.288 154.286H162.859V145.714H154.288V154.286Z" fill="black"/>
<path d="M145.718 154.286H154.289V145.714H145.718V154.286Z" fill="black"/>
<path d="M137.143 154.286H145.715V145.714H137.143V154.286Z" fill="black"/>
<path d="M128.573 154.286H137.145V145.714H128.573V154.286Z" fill="black"/>
<path d="M120.003 154.286H128.574V145.714H120.003V154.286Z" fill="black"/>
<path d="M188.573 145.714H197.145V137.143H188.573V145.714Z" fill="#610D05"/>
<path d="M180.003 145.714H188.574V137.143H180.003V145.714Z" fill="#F47B25"/>
<path d="M171.429 145.714H180V137.143H171.429V145.714Z" fill="#FAE39E"/>
<path d="M162.858 145.714H171.43V137.143H162.858V145.714Z" fill="black"/>
<path d="M154.288 145.714H162.859V137.143H154.288V145.714Z" fill="black"/>
<path d="M145.718 145.714H154.289V137.143H145.718V145.714Z" fill="black"/>
<path d="M137.143 145.714H145.715V137.143H137.143V145.714Z" fill="black"/>
<path d="M128.573 145.714H137.145V137.143H128.573V145.714Z" fill="black"/>
<path d="M120.003 145.714H128.574V137.143H120.003V145.714Z" fill="black"/>
<path d="M188.573 137.143H197.145V128.571H188.573V137.143Z" fill="#610D05"/>
<path d="M180.003 137.143H188.574V128.571H180.003V137.143Z" fill="#F47B25"/>
<path d="M171.429 137.143H180V128.571H171.429V137.143Z" fill="#FAE39E"/>
<path d="M162.858 137.143H171.43V128.571H162.858V137.143Z" fill="black"/>
<path d="M154.288 137.143H162.859V128.571H154.288V137.143Z" fill="black"/>
<path d="M145.718 137.143H154.289V128.571H145.718V137.143Z" fill="black"/>
<path d="M137.143 137.143H145.715V128.571H137.143V137.143Z" fill="black"/>
<path d="M128.573 137.143H137.145V128.571H128.573V137.143Z" fill="black"/>
<path d="M120.003 137.143H128.574V128.571H120.003V137.143Z" fill="black"/>
<path d="M188.573 128.571H197.145V120H188.573V128.571Z" fill="#610D05"/>
<path d="M180.003 128.571H188.574V120H180.003V128.571Z" fill="#F47B25"/>
<path d="M171.429 128.571H180V120H171.429V128.571Z" fill="#FAE39E"/>
<path d="M162.858 128.571H171.43V120H162.858V128.571Z" fill="black"/>
<path d="M154.288 128.571H162.859V120H154.288V128.571Z" fill="black"/>
<path d="M145.718 128.571H154.289V120H145.718V128.571Z" fill="black"/>
<path d="M137.143 128.571H145.715V120H137.143V128.571Z" fill="black"/>
<path d="M128.573 128.571H137.145V120H128.573V128.571Z" fill="black"/>
<path d="M120.003 128.571H128.574V120H120.003V128.571Z" fill="black"/>
</svg>
