<svg xmlns="http://www.w3.org/2000/svg" viewBox="0 0 280 280" width="280" height="280">
  <defs>
    <g id="fullbase1">
      <g id="base1">
        <rect x="100" y="60" width="10" height="10" fill="hsl(5, 90%, 20%)"></rect>
        <rect x="110" y="60" width="10" height="10" fill="hsl(5, 90%, 20%)"></rect>
        <rect x="120" y="60" width="10" height="10" fill="hsl(5, 90%, 20%)"></rect>
        <rect x="130" y="60" width="10" height="10" fill="hsl(5, 90%, 20%)"></rect>
        <rect x="140" y="60" width="10" height="10" fill="hsl(5, 90%, 20%)"></rect>
        <rect x="90" y="70" width="10" height="10" fill="hsl(5, 90%, 20%)"></rect>
        <rect x="100" y="70" width="10" height="10" fill="hsl(5, 90%, 20%)"></rect>
        <rect x="110" y="70" width="10" height="10" fill="hsl(25, 90%, 55%)"></rect>
        <rect x="120" y="70" width="10" height="10" fill="hsl(25, 90%, 55%)"></rect>
        <rect x="130" y="70" width="10" height="10" fill="hsl(25, 90%, 55%)"></rect>
        <rect x="140" y="70" width="10" height="10" fill="hsl(25, 90%, 55%)"></rect>
        <rect x="80" y="80" width="10" height="10" fill="hsl(5, 90%, 20%)"></rect>
        <rect x="90" y="80" width="10" height="10" fill="hsl(25, 90%, 55%)"></rect>
        <rect x="100" y="80" width="10" height="10" fill="hsl(25, 90%, 55%)"></rect>
        <rect x="110" y="80" width="10" height="10" fill="hsl(45, 90%, 80%)"></rect>
        <rect x="120" y="80" width="10" height="10" fill="hsl(45, 90%, 80%)"></rect>
        <rect x="130" y="80" width="10" height="10" fill="hsl(45, 90%, 80%)"></rect>
        <rect x="140" y="80" width="10" height="10" fill="hsl(45, 90%, 80%)"></rect>
        <rect x="70" y="90" width="10" height="10" fill="hsl(5, 90%, 20%)"></rect>
        <rect x="80" y="90" width="10" height="10" fill="hsl(25, 90%, 55%)"></rect>
        <rect x="90" y="90" width="10" height="10" fill="hsl(25, 90%, 55%)"></rect>
        <rect x="100" y="90" width="10" height="10" fill="hsl(45, 90%, 80%)"></rect>
        <rect x="60" y="100" width="10" height="10" fill="hsl(5, 90%, 20%)"></rect>
        <rect x="70" y="100" width="10" height="10" fill="hsl(5, 90%, 20%)"></rect>
        <rect x="80" y="100" width="10" height="10" fill="hsl(25, 90%, 55%)"></rect>
        <rect x="90" y="100" width="10" height="10" fill="hsl(45, 90%, 80%)"></rect>
        <rect x="60" y="110" width="10" height="10" fill="hsl(5, 90%, 20%)"></rect>
        <rect x="70" y="110" width="10" height="10" fill="hsl(25, 90%, 55%)"></rect>
        <rect x="80" y="110" width="10" height="10" fill="hsl(45, 90%, 80%)"></rect>
        <rect x="60" y="120" width="10" height="10" fill="hsl(5, 90%, 20%)"></rect>
        <rect x="70" y="120" width="10" height="10" fill="hsl(25, 90%, 55%)"></rect>
        <rect x="80" y="120" width="10" height="10" fill="hsl(45, 90%, 80%)"></rect>
        <rect x="60" y="130" width="10" height="10" fill="hsl(5, 90%, 20%)"></rect>
        <rect x="70" y="130" width="10" height="10" fill="hsl(25, 90%, 55%)"></rect>
        <rect x="80" y="130" width="10" height="10" fill="hsl(45, 90%, 80%)"></rect>
        <rect x="60" y="140" width="10" height="10" fill="hsl(5, 90%, 20%)"></rect>
        <rect x="70" y="140" width="10" height="10" fill="hsl(25, 90%, 55%)"></rect>
        <rect x="80" y="140" width="10" height="10" fill="hsl(45, 90%, 80%)"></rect>
      </g>
      <use href="#base1" transform="scale(-1,1),translate(-290,0)"></use>
      <use href="#base1" transform="scale(1,-1),translate(0,-290)"></use>
      <use href="#base1" transform="scale(-1,-1),translate(-290,-290)"></use>
    </g>

  </defs>
  <rect x="0" y="0" width="280" height="280" fill="#000000"></rect>
  <rect x="100" y="240" width="10" height="10" fill="hsl(0, 0%, 6%)">
  </rect>
  <rect x="80" y="130" width="10" height="10" fill="hsl(0, 0%, 5%)">
  </rect>
  <rect x="20" y="60" width="10" height="10" fill="hsl(0, 0%, 5%)">
  </rect>
  <rect x="110" y="170" width="10" height="10" fill="hsl(0, 0%, 9%)">
  </rect>
  <rect x="110" y="0" width="10" height="10" fill="hsl(0, 0%, 9%)">
  </rect>
  <rect x="150" y="20" width="10" height="10" fill="hsl(0, 0%, 5%)">
  </rect>
  <rect x="220" y="70" width="10" height="10" fill="hsl(0, 0%, 6%)">
  </rect>
  <rect x="210" y="130" width="10" height="10" fill="hsl(0, 0%, 5%)">
  </rect>
  <rect x="150" y="220" width="10" height="10" fill="hsl(0, 0%, 7%)">
  </rect>
  <rect x="140" y="80" width="10" height="10" fill="hsl(0, 0%, 10%)">
  </rect>
  <rect x="210" y="80" width="10" height="10" fill="hsl(0, 0%, 8%)">
  </rect>
  <rect x="160" y="80" width="10" height="10" fill="hsl(0, 0%, 7%)">
  </rect>
  <rect x="40" y="220" width="10" height="10" fill="hsl(0, 0%, 11%)">
  </rect>
  <rect x="110" y="220" width="10" height="10" fill="hsl(0, 0%, 8%)">
  </rect>
  <rect x="150" y="100" width="10" height="10" fill="hsl(0, 0%, 9%)">
  </rect>
  <rect x="90" y="190" width="10" height="10" fill="hsl(0, 0%, 7%)">
  </rect>
  <rect x="230" y="20" width="10" height="10" fill="hsl(0, 0%, 5%)">
  </rect>
  <rect x="250" y="10" width="10" height="10" fill="hsl(0, 0%, 7%)">
  </rect>
  <rect x="220" y="250" width="10" height="10" fill="hsl(0, 0%, 9%)">
  </rect>
  <rect fill="black" x="90" y="90" width="110" height="110"></rect>
  <use href="#fullbase1"></use>
</svg>