<svg xmlns="http://www.w3.org/2000/svg" viewBox="0 0 280 280" width="280" height="280">
  <defs>
    <g id="fullbase3">
      <g id="base3">
        <rect x="100" y="40" width="10" height="10" fill="hsl(230, 90%, 20%)"></rect>
        <rect x="110" y="40" width="10" height="10" fill="hsl(230, 90%, 20%)"></rect>
        <rect x="120" y="40" width="10" height="10" fill="hsl(230, 90%, 20%)"></rect>
        <rect x="130" y="40" width="10" height="10" fill="hsl(230, 90%, 20%)"></rect>
        <rect x="140" y="40" width="10" height="10" fill="hsl(230, 90%, 20%)"></rect>
        <rect x="80" y="50" width="10" height="10" fill="hsl(230, 90%, 20%)"></rect>
        <rect x="90" y="50" width="10" height="10" fill="hsl(230, 90%, 20%)"></rect>
        <rect x="100" y="50" width="10" height="10" fill="hsl(250, 90%, 55%)"></rect>
        <rect x="110" y="50" width="10" height="10" fill="hsl(250, 90%, 55%)"></rect>
        <rect x="120" y="50" width="10" height="10" fill="hsl(250, 90%, 55%)"></rect>
        <rect x="130" y="50" width="10" height="10" fill="hsl(250, 90%, 55%)"></rect>
        <rect x="140" y="50" width="10" height="10" fill="hsl(250, 90%, 55%)"></rect>
        <rect x="70" y="60" width="10" height="10" fill="hsl(230, 90%, 20%)"></rect>
        <rect x="80" y="60" width="10" height="10" fill="hsl(230, 90%, 20%)"></rect>
        <rect x="90" y="60" width="10" height="10" fill="hsl(250, 90%, 55%)"></rect>
        <rect x="100" y="60" width="10" height="10" fill="hsl(270, 90%, 80%)"></rect>
        <rect x="110" y="60" width="10" height="10" fill="hsl(270, 90%, 80%)"></rect>
        <rect x="120" y="60" width="10" height="10" fill="hsl(270, 90%, 80%)"></rect>
        <rect x="130" y="60" width="10" height="10" fill="hsl(270, 90%, 80%)"></rect>
        <rect x="140" y="60" width="10" height="10" fill="hsl(270, 90%, 80%)"></rect>
        <rect x="60" y="70" width="10" height="10" fill="hsl(230, 90%, 20%)"></rect>
        <rect x="70" y="70" width="10" height="10" fill="hsl(250, 90%, 55%)"></rect>
        <rect x="80" y="70" width="10" height="10" fill="hsl(250, 90%, 55%)"></rect>
        <rect x="90" y="70" width="10" height="10" fill="hsl(270, 90%, 80%)"></rect>
        <rect x="100" y="70" width="10" height="10" fill="hsl(270, 90%, 80%)"></rect>
        <rect x="50" y="80" width="10" height="10" fill="hsl(230, 90%, 20%)"></rect>
        <rect x="60" y="80" width="10" height="10" fill="hsl(230, 90%, 20%)"></rect>
        <rect x="70" y="80" width="10" height="10" fill="hsl(250, 90%, 55%)"></rect>
        <rect x="80" y="80" width="10" height="10" fill="hsl(270, 90%, 80%)"></rect>
        <rect x="50" y="90" width="10" height="10" fill="hsl(230, 90%, 20%)"></rect>
        <rect x="60" y="90" width="10" height="10" fill="hsl(250, 90%, 55%)"></rect>
        <rect x="70" y="90" width="10" height="10" fill="hsl(270, 90%, 80%)"></rect>
        <rect x="40" y="100" width="10" height="10" fill="hsl(230, 90%, 20%)"></rect>
        <rect x="50" y="100" width="10" height="10" fill="hsl(250, 90%, 55%)"></rect>
        <rect x="60" y="100" width="10" height="10" fill="hsl(270, 90%, 80%)"></rect>
        <rect x="70" y="100" width="10" height="10" fill="hsl(270, 90%, 80%)"></rect>
        <rect x="40" y="110" width="10" height="10" fill="hsl(230, 90%, 20%)"></rect>
        <rect x="50" y="110" width="10" height="10" fill="hsl(250, 90%, 55%)"></rect>
        <rect x="60" y="110" width="10" height="10" fill="hsl(270, 90%, 80%)"></rect>
        <rect x="40" y="120" width="10" height="10" fill="hsl(230, 90%, 20%)"></rect>
        <rect x="50" y="120" width="10" height="10" fill="hsl(250, 90%, 55%)"></rect>
        <rect x="60" y="120" width="10" height="10" fill="hsl(270, 90%, 80%)"></rect>
        <rect x="40" y="130" width="10" height="10" fill="hsl(230, 90%, 20%)"></rect>
        <rect x="50" y="130" width="10" height="10" fill="hsl(250, 90%, 55%)"></rect>
        <rect x="60" y="130" width="10" height="10" fill="hsl(270, 90%, 80%)"></rect>
        <rect x="40" y="140" width="10" height="10" fill="hsl(230, 90%, 20%)"></rect>
        <rect x="50" y="140" width="10" height="10" fill="hsl(250, 90%, 55%)"></rect>
        <rect x="60" y="140" width="10" height="10" fill="hsl(270, 90%, 80%)"></rect>
      </g>
      <use href="#base3" transform="scale(-1,1),translate(-290,0)"></use>
      <use href="#base3" transform="scale(1,-1),translate(0,-290)"></use>
      <use href="#base3" transform="scale(-1,-1),translate(-290,-290)"></use>
    </g>

  </defs>
  <rect x="0" y="0" width="280" height="280" fill="#000000"></rect>
  <rect x="140" y="90" width="10" height="10" fill="hsl(0, 0%, 7%)">
  </rect>
  <rect x="0" y="170" width="10" height="10" fill="hsl(0, 0%, 9%)">
  </rect>
  <rect x="60" y="20" width="10" height="10" fill="hsl(0, 0%, 7%)">
  </rect>
  <rect x="190" y="270" width="10" height="10" fill="hsl(0, 0%, 7%)">
  </rect>
  <rect x="50" y="70" width="10" height="10" fill="hsl(0, 0%, 8%)">
  </rect>
  <rect x="190" y="100" width="10" height="10" fill="hsl(0, 0%, 7%)">
  </rect>
  <rect x="230" y="100" width="10" height="10" fill="hsl(0, 0%, 10%)">
  </rect>
  <rect x="130" y="40" width="10" height="10" fill="hsl(0, 0%, 11%)">
  </rect>
  <rect x="40" y="210" width="10" height="10" fill="hsl(0, 0%, 7%)">
  </rect>
  <rect x="210" y="270" width="10" height="10" fill="hsl(0, 0%, 8%)">
  </rect>
  <rect x="230" y="60" width="10" height="10" fill="hsl(0, 0%, 7%)">
  </rect>
  <rect x="80" y="160" width="10" height="10" fill="hsl(0, 0%, 7%)">
  </rect>
  <rect fill="black" x="70" y="70" width="150" height="150"></rect>
  <use href="#fullbase3"></use>
</svg>