<svg xmlns="http://www.w3.org/2000/svg" viewBox="0 0 280 280" width="280" height="280">
  <defs>
    <g id="fullbase3">
      <g id="base3">
        <rect x="100" y="40" width="10" height="10" fill="hsl(230, 90%, 20%)"></rect>
        <rect x="110" y="40" width="10" height="10" fill="hsl(230, 90%, 20%)"></rect>
        <rect x="120" y="40" width="10" height="10" fill="hsl(230, 90%, 20%)"></rect>
        <rect x="130" y="40" width="10" height="10" fill="hsl(230, 90%, 20%)"></rect>
        <rect x="140" y="40" width="10" height="10" fill="hsl(230, 90%, 20%)"></rect>
        <rect x="80" y="50" width="10" height="10" fill="hsl(230, 90%, 20%)"></rect>
        <rect x="90" y="50" width="10" height="10" fill="hsl(230, 90%, 20%)"></rect>
        <rect x="100" y="50" width="10" height="10" fill="hsl(250, 90%, 55%)"></rect>
        <rect x="110" y="50" width="10" height="10" fill="hsl(250, 90%, 55%)"></rect>
        <rect x="120" y="50" width="10" height="10" fill="hsl(250, 90%, 55%)"></rect>
        <rect x="130" y="50" width="10" height="10" fill="hsl(250, 90%, 55%)"></rect>
        <rect x="140" y="50" width="10" height="10" fill="hsl(250, 90%, 55%)"></rect>
        <rect x="70" y="60" width="10" height="10" fill="hsl(230, 90%, 20%)"></rect>
        <rect x="80" y="60" width="10" height="10" fill="hsl(230, 90%, 20%)"></rect>
        <rect x="90" y="60" width="10" height="10" fill="hsl(250, 90%, 55%)"></rect>
        <rect x="100" y="60" width="10" height="10" fill="hsl(270, 90%, 80%)"></rect>
        <rect x="110" y="60" width="10" height="10" fill="hsl(270, 90%, 80%)"></rect>
        <rect x="120" y="60" width="10" height="10" fill="hsl(270, 90%, 80%)"></rect>
        <rect x="130" y="60" width="10" height="10" fill="hsl(270, 90%, 80%)"></rect>
        <rect x="140" y="60" width="10" height="10" fill="hsl(270, 90%, 80%)"></rect>
        <rect x="60" y="70" width="10" height="10" fill="hsl(230, 90%, 20%)"></rect>
        <rect x="70" y="70" width="10" height="10" fill="hsl(250, 90%, 55%)"></rect>
        <rect x="80" y="70" width="10" height="10" fill="hsl(250, 90%, 55%)"></rect>
        <rect x="90" y="70" width="10" height="10" fill="hsl(270, 90%, 80%)"></rect>
        <rect x="100" y="70" width="10" height="10" fill="hsl(270, 90%, 80%)"></rect>
        <rect x="50" y="80" width="10" height="10" fill="hsl(230, 90%, 20%)"></rect>
        <rect x="60" y="80" width="10" height="10" fill="hsl(230, 90%, 20%)"></rect>
        <rect x="70" y="80" width="10" height="10" fill="hsl(250, 90%, 55%)"></rect>
        <rect x="80" y="80" width="10" height="10" fill="hsl(270, 90%, 80%)"></rect>
        <rect x="50" y="90" width="10" height="10" fill="hsl(230, 90%, 20%)"></rect>
        <rect x="60" y="90" width="10" height="10" fill="hsl(250, 90%, 55%)"></rect>
        <rect x="70" y="90" width="10" height="10" fill="hsl(270, 90%, 80%)"></rect>
        <rect x="40" y="100" width="10" height="10" fill="hsl(230, 90%, 20%)"></rect>
        <rect x="50" y="100" width="10" height="10" fill="hsl(250, 90%, 55%)"></rect>
        <rect x="60" y="100" width="10" height="10" fill="hsl(270, 90%, 80%)"></rect>
        <rect x="70" y="100" width="10" height="10" fill="hsl(270, 90%, 80%)"></rect>
        <rect x="40" y="110" width="10" height="10" fill="hsl(230, 90%, 20%)"></rect>
        <rect x="50" y="110" width="10" height="10" fill="hsl(250, 90%, 55%)"></rect>
        <rect x="60" y="110" width="10" height="10" fill="hsl(270, 90%, 80%)"></rect>
        <rect x="40" y="120" width="10" height="10" fill="hsl(230, 90%, 20%)"></rect>
        <rect x="50" y="120" width="10" height="10" fill="hsl(250, 90%, 55%)"></rect>
        <rect x="60" y="120" width="10" height="10" fill="hsl(270, 90%, 80%)"></rect>
        <rect x="40" y="130" width="10" height="10" fill="hsl(230, 90%, 20%)"></rect>
        <rect x="50" y="130" width="10" height="10" fill="hsl(250, 90%, 55%)"></rect>
        <rect x="60" y="130" width="10" height="10" fill="hsl(270, 90%, 80%)"></rect>
        <rect x="40" y="140" width="10" height="10" fill="hsl(230, 90%, 20%)"></rect>
        <rect x="50" y="140" width="10" height="10" fill="hsl(250, 90%, 55%)"></rect>
        <rect x="60" y="140" width="10" height="10" fill="hsl(270, 90%, 80%)"></rect>
      </g>
      <use href="#base3" transform="scale(-1,1),translate(-290,0)"></use>
      <use href="#base3" transform="scale(1,-1),translate(0,-290)"></use>
      <use href="#base3" transform="scale(-1,-1),translate(-290,-290)"></use>
    </g>

  </defs>
  <rect x="0" y="0" width="280" height="280" fill="#000000"></rect>
  <rect x="110" y="230" width="10" height="10" fill="hsl(0, 0%, 10%)">
  </rect>
  <rect x="140" y="110" width="10" height="10" fill="hsl(0, 0%, 8%)">
  </rect>
  <rect x="270" y="100" width="10" height="10" fill="hsl(0, 0%, 10%)">
  </rect>
  <rect x="250" y="30" width="10" height="10" fill="hsl(0, 0%, 5%)">
  </rect>
  <rect x="220" y="60" width="10" height="10" fill="hsl(0, 0%, 5%)">
  </rect>
  <rect x="190" y="210" width="10" height="10" fill="hsl(0, 0%, 10%)">
  </rect>
  <rect x="200" y="60" width="10" height="10" fill="hsl(0, 0%, 5%)">
  </rect>
  <rect x="250" y="60" width="10" height="10" fill="hsl(0, 0%, 5%)">
  </rect>
  <rect x="0" y="20" width="10" height="10" fill="hsl(0, 0%, 10%)">
  </rect>
  <rect x="70" y="100" width="10" height="10" fill="hsl(0, 0%, 6%)">
  </rect>
  <rect x="60" y="200" width="10" height="10" fill="hsl(0, 0%, 9%)">
  </rect>
  <rect x="130" y="150" width="10" height="10" fill="hsl(0, 0%, 11%)">
  </rect>
  <rect x="20" y="220" width="10" height="10" fill="hsl(0, 0%, 7%)">
  </rect>
  <rect x="190" y="40" width="10" height="10" fill="hsl(0, 0%, 11%)">
  </rect>
  <rect x="120" y="50" width="10" height="10" fill="hsl(0, 0%, 11%)">
  </rect>
  <rect x="100" y="0" width="10" height="10" fill="hsl(0, 0%, 11%)">
  </rect>
  <rect x="90" y="160" width="10" height="10" fill="hsl(0, 0%, 8%)">
  </rect>
  <rect x="50" y="60" width="10" height="10" fill="hsl(0, 0%, 7%)">
  </rect>
  <rect x="230" y="140" width="10" height="10" fill="hsl(0, 0%, 10%)">
  </rect>
  <rect x="50" y="190" width="10" height="10" fill="hsl(0, 0%, 8%)">
  </rect>
  <rect x="200" y="100" width="10" height="10" fill="hsl(0, 0%, 7%)">
  </rect>
  <rect x="170" y="140" width="10" height="10" fill="hsl(0, 0%, 5%)">
  </rect>
  <rect x="140" y="200" width="10" height="10" fill="hsl(0, 0%, 11%)">
  </rect>
  <rect x="210" y="260" width="10" height="10" fill="hsl(0, 0%, 11%)">
  </rect>
  <rect x="10" y="80" width="10" height="10" fill="hsl(0, 0%, 8%)">
  </rect>
  <rect x="130" y="210" width="10" height="10" fill="hsl(0, 0%, 8%)">
  </rect>
  <rect x="60" y="180" width="10" height="10" fill="hsl(0, 0%, 7%)">
  </rect>
  <rect x="180" y="130" width="10" height="10" fill="hsl(0, 0%, 10%)">
  </rect>
  <rect x="250" y="0" width="10" height="10" fill="hsl(0, 0%, 5%)">
  </rect>
  <rect x="180" y="110" width="10" height="10" fill="hsl(0, 0%, 5%)">
  </rect>
  <rect fill="black" x="70" y="70" width="150" height="150"></rect>
  <use href="#fullbase3"></use>
  <rect x="420" y="-50" width="10" height="10" fill="hsl(0, 0%, 113%)">

    <animate attributeName="x" from="420" to="140" values="420;140" dur="2s" repeatCount="indefinite"
      begin="0.5121106042979573s" calcMode="spline" keyTimes="0;1" keySplines="0.4 0 0.2 1"></animate>

    <animate attributeName="y" from="-50" to="140" values="-50;140" dur="2s" repeatCount="indefinite"
      begin="0.5121106042979573s" calcMode="spline" keyTimes="0;1" keySplines="0.4 0 0.2 1"></animate>

    <animate attributeName="fill-opacity" from="1" to="0" values="1;0" dur="2s" repeatCount="indefinite"
      begin="0.5121106042979573s" calcMode="spline" keyTimes="0;1" keySplines="0.4 0 0.2 1"></animate>

  </rect>
  <rect x="-220" y="140" width="10" height="10" fill="hsl(0, 0%, 171%)">

    <animate attributeName="x" from="-220" to="140" values="-220;140" dur="2s" repeatCount="indefinite"
      begin="0.3255170449805287s" calcMode="spline" keyTimes="0;1" keySplines="0.4 0 0.2 1"></animate>

    <animate attributeName="y" from="140" to="140" values="140;140" dur="2s" repeatCount="indefinite"
      begin="0.3255170449805287s" calcMode="spline" keyTimes="0;1" keySplines="0.4 0 0.2 1"></animate>

    <animate attributeName="fill-opacity" from="1" to="0" values="1;0" dur="2s" repeatCount="indefinite"
      begin="0.3255170449805287s" calcMode="spline" keyTimes="0;1" keySplines="0.4 0 0.2 1"></animate>

  </rect>
  <rect x="360" y="180" width="10" height="10" fill="hsl(0, 0%, 101%)">

    <animate attributeName="x" from="360" to="140" values="360;140" dur="2s" repeatCount="indefinite"
      begin="1.9489617492518483s" calcMode="spline" keyTimes="0;1" keySplines="0.4 0 0.2 1"></animate>

    <animate attributeName="y" from="180" to="140" values="180;140" dur="2s" repeatCount="indefinite"
      begin="1.9489617492518483s" calcMode="spline" keyTimes="0;1" keySplines="0.4 0 0.2 1"></animate>

    <animate attributeName="fill-opacity" from="1" to="0" values="1;0" dur="2s" repeatCount="indefinite"
      begin="1.9489617492518483s" calcMode="spline" keyTimes="0;1" keySplines="0.4 0 0.2 1"></animate>

  </rect>
  <rect x="420" y="-30" width="10" height="10" fill="hsl(0, 0%, 68%)">

    <animate attributeName="x" from="420" to="140" values="420;140" dur="2s" repeatCount="indefinite"
      begin="1.9334564079414083s" calcMode="spline" keyTimes="0;1" keySplines="0.4 0 0.2 1"></animate>

    <animate attributeName="y" from="-30" to="140" values="-30;140" dur="2s" repeatCount="indefinite"
      begin="1.9334564079414083s" calcMode="spline" keyTimes="0;1" keySplines="0.4 0 0.2 1"></animate>

    <animate attributeName="fill-opacity" from="1" to="0" values="1;0" dur="2s" repeatCount="indefinite"
      begin="1.9334564079414083s" calcMode="spline" keyTimes="0;1" keySplines="0.4 0 0.2 1"></animate>

  </rect>
  <rect x="130" y="450" width="10" height="10" fill="hsl(0, 0%, 118%)">

    <animate attributeName="x" from="130" to="140" values="130;140" dur="2s" repeatCount="indefinite"
      begin="0.5347560433162855s" calcMode="spline" keyTimes="0;1" keySplines="0.4 0 0.2 1"></animate>

    <animate attributeName="y" from="450" to="140" values="450;140" dur="2s" repeatCount="indefinite"
      begin="0.5347560433162855s" calcMode="spline" keyTimes="0;1" keySplines="0.4 0 0.2 1"></animate>

    <animate attributeName="fill-opacity" from="1" to="0" values="1;0" dur="2s" repeatCount="indefinite"
      begin="0.5347560433162855s" calcMode="spline" keyTimes="0;1" keySplines="0.4 0 0.2 1"></animate>

  </rect>
  <rect x="30" y="300" width="10" height="10" fill="hsl(0, 0%, 86%)">

    <animate attributeName="x" from="30" to="140" values="30;140" dur="2s" repeatCount="indefinite"
      begin="0.734283557131882s" calcMode="spline" keyTimes="0;1" keySplines="0.4 0 0.2 1"></animate>

    <animate attributeName="y" from="300" to="140" values="300;140" dur="2s" repeatCount="indefinite"
      begin="0.734283557131882s" calcMode="spline" keyTimes="0;1" keySplines="0.4 0 0.2 1"></animate>

    <animate attributeName="fill-opacity" from="1" to="0" values="1;0" dur="2s" repeatCount="indefinite"
      begin="0.734283557131882s" calcMode="spline" keyTimes="0;1" keySplines="0.4 0 0.2 1"></animate>

  </rect>
  <rect x="180" y="-130" width="10" height="10" fill="hsl(0, 0%, 23%)">

    <animate attributeName="x" from="180" to="140" values="180;140" dur="2s" repeatCount="indefinite"
      begin="0.15794362861494715s" calcMode="spline" keyTimes="0;1" keySplines="0.4 0 0.2 1"></animate>

    <animate attributeName="y" from="-130" to="140" values="-130;140" dur="2s" repeatCount="indefinite"
      begin="0.15794362861494715s" calcMode="spline" keyTimes="0;1" keySplines="0.4 0 0.2 1"></animate>

    <animate attributeName="fill-opacity" from="1" to="0" values="1;0" dur="2s" repeatCount="indefinite"
      begin="0.15794362861494715s" calcMode="spline" keyTimes="0;1" keySplines="0.4 0 0.2 1"></animate>

  </rect>
  <rect x="270" y="140" width="10" height="10" fill="hsl(0, 0%, 159%)">

    <animate attributeName="x" from="270" to="140" values="270;140" dur="2s" repeatCount="indefinite"
      begin="1.3274626566919436s" calcMode="spline" keyTimes="0;1" keySplines="0.4 0 0.2 1"></animate>

    <animate attributeName="y" from="140" to="140" values="140;140" dur="2s" repeatCount="indefinite"
      begin="1.3274626566919436s" calcMode="spline" keyTimes="0;1" keySplines="0.4 0 0.2 1"></animate>

    <animate attributeName="fill-opacity" from="1" to="0" values="1;0" dur="2s" repeatCount="indefinite"
      begin="1.3274626566919436s" calcMode="spline" keyTimes="0;1" keySplines="0.4 0 0.2 1"></animate>

  </rect>
  <rect x="110" y="540" width="10" height="10" fill="hsl(0, 0%, 162%)">

    <animate attributeName="x" from="110" to="140" values="110;140" dur="2s" repeatCount="indefinite"
      begin="0.2342059950587121s" calcMode="spline" keyTimes="0;1" keySplines="0.4 0 0.2 1"></animate>

    <animate attributeName="y" from="540" to="140" values="540;140" dur="2s" repeatCount="indefinite"
      begin="0.2342059950587121s" calcMode="spline" keyTimes="0;1" keySplines="0.4 0 0.2 1"></animate>

    <animate attributeName="fill-opacity" from="1" to="0" values="1;0" dur="2s" repeatCount="indefinite"
      begin="0.2342059950587121s" calcMode="spline" keyTimes="0;1" keySplines="0.4 0 0.2 1"></animate>

  </rect>
  <rect x="-230" y="130" width="10" height="10" fill="hsl(0, 0%, 185%)">

    <animate attributeName="x" from="-230" to="140" values="-230;140" dur="2s" repeatCount="indefinite"
      begin="0.2200397337496205s" calcMode="spline" keyTimes="0;1" keySplines="0.4 0 0.2 1"></animate>

    <animate attributeName="y" from="130" to="140" values="130;140" dur="2s" repeatCount="indefinite"
      begin="0.2200397337496205s" calcMode="spline" keyTimes="0;1" keySplines="0.4 0 0.2 1"></animate>

    <animate attributeName="fill-opacity" from="1" to="0" values="1;0" dur="2s" repeatCount="indefinite"
      begin="0.2200397337496205s" calcMode="spline" keyTimes="0;1" keySplines="0.4 0 0.2 1"></animate>

  </rect>
</svg>