<svg width="240" height="240" viewBox="0 0 240 240" fill="none" xmlns="http://www.w3.org/2000/svg">
<path d="M94.2863 17.1428H85.7148V25.7143H94.2863V17.1428Z" fill="#051461"/>
<path d="M102.86 17.1428H94.2891V25.7143H102.86V17.1428Z" fill="#051461"/>
<path d="M111.431 17.1428H102.859V25.7143H111.431V17.1428Z" fill="#051461"/>
<path d="M120.001 17.1428H111.43V25.7143H120.001V17.1428Z" fill="#051461"/>
<path d="M77.1456 25.7144H68.5742V34.2858H77.1456V25.7144Z" fill="#051461"/>
<path d="M85.716 25.7144H77.1445V34.2858H85.716V25.7144Z" fill="#051461"/>
<path d="M94.2863 25.7144H85.7148V34.2858H94.2863V25.7144Z" fill="#4725F4"/>
<path d="M102.86 25.7144H94.2891V34.2858H102.86V25.7144Z" fill="#4725F4"/>
<path d="M111.431 25.7144H102.859V34.2858H111.431V25.7144Z" fill="#4725F4"/>
<path d="M120.001 25.7144H111.43V34.2858H120.001V25.7144Z" fill="#4725F4"/>
<path d="M60.0011 34.2856H51.4297V42.8571H60.0011V34.2856Z" fill="#051461"/>
<path d="M68.5714 34.2856H60V42.8571H68.5714V34.2856Z" fill="#051461"/>
<path d="M77.1456 34.2856H68.5742V42.8571H77.1456V34.2856Z" fill="#4725F4"/>
<path d="M85.716 34.2856H77.1445V42.8571H85.716V34.2856Z" fill="#4725F4"/>
<path d="M94.2863 34.2856H85.7148V42.8571H94.2863V34.2856Z" fill="#CC9EFA"/>
<path d="M102.86 34.2856H94.2891V42.8571H102.86V34.2856Z" fill="#CC9EFA"/>
<path d="M111.431 34.2856H102.859V42.8571H111.431V34.2856Z" fill="#CC9EFA"/>
<path d="M120.001 34.2856H111.43V42.8571H120.001V34.2856Z" fill="#CC9EFA"/>
<path d="M51.4308 42.8572H42.8594V51.4286H51.4308V42.8572Z" fill="#051461"/>
<path d="M60.0011 42.8572H51.4297V51.4286H60.0011V42.8572Z" fill="#051461"/>
<path d="M68.5714 42.8572H60V51.4286H68.5714V42.8572Z" fill="#4725F4"/>
<path d="M77.1456 42.8572H68.5742V51.4286H77.1456V42.8572Z" fill="#CC9EFA"/>
<path d="M85.716 42.8572H77.1445V51.4286H85.716V42.8572Z" fill="#CC9EFA"/>
<path d="M94.2863 42.8572H85.7148V51.4286H94.2863V42.8572Z" fill="black"/>
<path d="M102.86 42.8572H94.2891V51.4286H102.86V42.8572Z" fill="black"/>
<path d="M111.431 42.8572H102.859V51.4286H111.431V42.8572Z" fill="black"/>
<path d="M120.001 42.8572H111.43V51.4286H120.001V42.8572Z" fill="black"/>
<path d="M42.8605 51.4285H34.2891V59.9999H42.8605V51.4285Z" fill="#051461"/>
<path d="M51.4308 51.4285H42.8594V59.9999H51.4308V51.4285Z" fill="#051461"/>
<path d="M60.0011 51.4285H51.4297V59.9999H60.0011V51.4285Z" fill="#4725F4"/>
<path d="M68.5714 51.4285H60V59.9999H68.5714V51.4285Z" fill="#CC9EFA"/>
<path d="M77.1456 51.4285H68.5742V59.9999H77.1456V51.4285Z" fill="#CC9EFA"/>
<path d="M85.716 51.4285H77.1445V59.9999H85.716V51.4285Z" fill="black"/>
<path d="M94.2863 51.4285H85.7148V59.9999H94.2863V51.4285Z" fill="black"/>
<path d="M102.86 51.4285H94.2891V59.9999H102.86V51.4285Z" fill="black"/>
<path d="M111.431 51.4285H102.859V59.9999H111.431V51.4285Z" fill="black"/>
<path d="M120.001 51.4285H111.43V59.9999H120.001V51.4285Z" fill="black"/>
<path d="M42.8605 60H34.2891V68.5714H42.8605V60Z" fill="#051461"/>
<path d="M51.4308 60H42.8594V68.5714H51.4308V60Z" fill="#4725F4"/>
<path d="M60.0011 60H51.4297V68.5714H60.0011V60Z" fill="#CC9EFA"/>
<path d="M68.5714 60H60V68.5714H68.5714V60Z" fill="black"/>
<path d="M77.1456 60H68.5742V68.5714H77.1456V60Z" fill="black"/>
<path d="M85.716 60H77.1445V68.5714H85.716V60Z" fill="black"/>
<path d="M94.2863 60H85.7148V68.5714H94.2863V60Z" fill="black"/>
<path d="M102.86 60H94.2891V68.5714H102.86V60Z" fill="black"/>
<path d="M111.431 60H102.859V68.5714H111.431V60Z" fill="black"/>
<path d="M120.001 60H111.43V68.5714H120.001V60Z" fill="black"/>
<path d="M34.2863 68.5713H25.7148V77.1427H34.2863V68.5713Z" fill="#051461"/>
<path d="M42.8605 68.5713H34.2891V77.1427H42.8605V68.5713Z" fill="#4725F4"/>
<path d="M51.4308 68.5713H42.8594V77.1427H51.4308V68.5713Z" fill="#CC9EFA"/>
<path d="M60.0011 68.5713H51.4297V77.1427H60.0011V68.5713Z" fill="#CC9EFA"/>
<path d="M68.5714 68.5713H60V77.1427H68.5714V68.5713Z" fill="black"/>
<path d="M77.1456 68.5713H68.5742V77.1427H77.1456V68.5713Z" fill="black"/>
<path d="M85.716 68.5713H77.1445V77.1427H85.716V68.5713Z" fill="black"/>
<path d="M94.2863 68.5713H85.7148V77.1427H94.2863V68.5713Z" fill="black"/>
<path d="M102.86 68.5713H94.2891V77.1427H102.86V68.5713Z" fill="black"/>
<path d="M111.431 68.5713H102.859V77.1427H111.431V68.5713Z" fill="black"/>
<path d="M120.001 68.5713H111.43V77.1427H120.001V68.5713Z" fill="black"/>
<path d="M34.2863 77.1428H25.7148V85.7143H34.2863V77.1428Z" fill="#051461"/>
<path d="M42.8605 77.1428H34.2891V85.7143H42.8605V77.1428Z" fill="#4725F4"/>
<path d="M51.4308 77.1428H42.8594V85.7143H51.4308V77.1428Z" fill="#CC9EFA"/>
<path d="M60.0011 77.1428H51.4297V85.7143H60.0011V77.1428Z" fill="black"/>
<path d="M68.5714 77.1428H60V85.7143H68.5714V77.1428Z" fill="black"/>
<path d="M77.1456 77.1428H68.5742V85.7143H77.1456V77.1428Z" fill="black"/>
<path d="M85.716 77.1428H77.1445V85.7143H85.716V77.1428Z" fill="black"/>
<path d="M94.2863 77.1428H85.7148V85.7143H94.2863V77.1428Z" fill="black"/>
<path d="M102.86 77.1428H94.2891V85.7143H102.86V77.1428Z" fill="black"/>
<path d="M111.431 77.1428H102.859V85.7143H111.431V77.1428Z" fill="black"/>
<path d="M120.001 77.1428H111.43V85.7143H120.001V77.1428Z" fill="black"/>
<path d="M25.716 85.7144H17.1445V94.2858H25.716V85.7144Z" fill="#051461"/>
<path d="M34.2863 85.7144H25.7148V94.2858H34.2863V85.7144Z" fill="#4725F4"/>
<path d="M42.8605 85.7144H34.2891V94.2858H42.8605V85.7144Z" fill="#CC9EFA"/>
<path d="M51.4308 85.7144H42.8594V94.2858H51.4308V85.7144Z" fill="black"/>
<path d="M60.0011 85.7144H51.4297V94.2858H60.0011V85.7144Z" fill="black"/>
<path d="M68.5714 85.7144H60V94.2858H68.5714V85.7144Z" fill="black"/>
<path d="M77.1456 85.7144H68.5742V94.2858H77.1456V85.7144Z" fill="black"/>
<path d="M85.716 85.7144H77.1445V94.2858H85.716V85.7144Z" fill="black"/>
<path d="M94.2863 85.7144H85.7148V94.2858H94.2863V85.7144Z" fill="black"/>
<path d="M102.86 85.7144H94.2891V94.2858H102.86V85.7144Z" fill="black"/>
<path d="M111.431 85.7144H102.859V94.2858H111.431V85.7144Z" fill="black"/>
<path d="M120.001 85.7144H111.43V94.2858H120.001V85.7144Z" fill="black"/>
<path d="M25.716 94.2856H17.1445V102.857H25.716V94.2856Z" fill="#051461"/>
<path d="M34.2863 94.2856H25.7148V102.857H34.2863V94.2856Z" fill="#4725F4"/>
<path d="M42.8605 94.2856H34.2891V102.857H42.8605V94.2856Z" fill="#CC9EFA"/>
<path d="M51.4308 94.2856H42.8594V102.857H51.4308V94.2856Z" fill="black"/>
<path d="M60.0011 94.2856H51.4297V102.857H60.0011V94.2856Z" fill="black"/>
<path d="M68.5714 94.2856H60V102.857H68.5714V94.2856Z" fill="black"/>
<path d="M77.1456 94.2856H68.5742V102.857H77.1456V94.2856Z" fill="black"/>
<path d="M85.716 94.2856H77.1445V102.857H85.716V94.2856Z" fill="black"/>
<path d="M94.2863 94.2856H85.7148V102.857H94.2863V94.2856Z" fill="black"/>
<path d="M102.86 94.2856H94.2891V102.857H102.86V94.2856Z" fill="black"/>
<path d="M111.431 94.2856H102.859V102.857H111.431V94.2856Z" fill="black"/>
<path d="M120.001 94.2856H111.43V102.857H120.001V94.2856Z" fill="black"/>
<path d="M25.716 102.857H17.1445V111.429H25.716V102.857Z" fill="#051461"/>
<path d="M34.2863 102.857H25.7148V111.429H34.2863V102.857Z" fill="#4725F4"/>
<path d="M42.8605 102.857H34.2891V111.429H42.8605V102.857Z" fill="#CC9EFA"/>
<path d="M51.4308 102.857H42.8594V111.429H51.4308V102.857Z" fill="black"/>
<path d="M60.0011 102.857H51.4297V111.429H60.0011V102.857Z" fill="black"/>
<path d="M68.5714 102.857H60V111.429H68.5714V102.857Z" fill="black"/>
<path d="M77.1456 102.857H68.5742V111.429H77.1456V102.857Z" fill="black"/>
<path d="M85.716 102.857H77.1445V111.429H85.716V102.857Z" fill="black"/>
<path d="M94.2863 102.857H85.7148V111.429H94.2863V102.857Z" fill="black"/>
<path d="M102.86 102.857H94.2891V111.429H102.86V102.857Z" fill="black"/>
<path d="M111.431 102.857H102.859V111.429H111.431V102.857Z" fill="black"/>
<path d="M120.001 102.857H111.43V111.429H120.001V102.857Z" fill="black"/>
<path d="M25.716 111.428H17.1445V120H25.716V111.428Z" fill="#051461"/>
<path d="M34.2863 111.428H25.7148V120H34.2863V111.428Z" fill="#4725F4"/>
<path d="M42.8605 111.428H34.2891V120H42.8605V111.428Z" fill="#CC9EFA"/>
<path d="M51.4308 111.428H42.8594V120H51.4308V111.428Z" fill="black"/>
<path d="M60.0011 111.428H51.4297V120H60.0011V111.428Z" fill="black"/>
<path d="M68.5714 111.428H60V120H68.5714V111.428Z" fill="black"/>
<path d="M77.1456 111.428H68.5742V120H77.1456V111.428Z" fill="black"/>
<path d="M85.716 111.428H77.1445V120H85.716V111.428Z" fill="black"/>
<path d="M94.2863 111.428H85.7148V120H94.2863V111.428Z" fill="black"/>
<path d="M102.86 111.428H94.2891V120H102.86V111.428Z" fill="black"/>
<path d="M111.431 111.428H102.859V120H111.431V111.428Z" fill="black"/>
<path d="M120.001 111.428H111.43V120H120.001V111.428Z" fill="black"/>
<path d="M145.714 17.1428H154.285V25.7143H145.714V17.1428Z" fill="#051461"/>
<path d="M137.14 17.1428H145.711V25.7143H137.14V17.1428Z" fill="#051461"/>
<path d="M128.569 17.1428H137.141V25.7143H128.569V17.1428Z" fill="#051461"/>
<path d="M119.999 17.1428H128.57V25.7143H119.999V17.1428Z" fill="#051461"/>
<path d="M162.854 25.7144H171.426V34.2858H162.854V25.7144Z" fill="#051461"/>
<path d="M154.284 25.7144H162.855V34.2858H154.284V25.7144Z" fill="#051461"/>
<path d="M145.714 25.7144H154.285V34.2858H145.714V25.7144Z" fill="#4725F4"/>
<path d="M137.14 25.7144H145.711V34.2858H137.14V25.7144Z" fill="#4725F4"/>
<path d="M128.569 25.7144H137.141V34.2858H128.569V25.7144Z" fill="#4725F4"/>
<path d="M119.999 25.7144H128.57V34.2858H119.999V25.7144Z" fill="#4725F4"/>
<path d="M179.999 34.2856H188.57V42.8571H179.999V34.2856Z" fill="#051461"/>
<path d="M171.429 34.2856H180V42.8571H171.429V34.2856Z" fill="#051461"/>
<path d="M162.854 34.2856H171.426V42.8571H162.854V34.2856Z" fill="#4725F4"/>
<path d="M154.284 34.2856H162.855V42.8571H154.284V34.2856Z" fill="#4725F4"/>
<path d="M145.714 34.2856H154.285V42.8571H145.714V34.2856Z" fill="#CC9EFA"/>
<path d="M137.14 34.2856H145.711V42.8571H137.14V34.2856Z" fill="#CC9EFA"/>
<path d="M128.569 34.2856H137.141V42.8571H128.569V34.2856Z" fill="#CC9EFA"/>
<path d="M119.999 34.2856H128.57V42.8571H119.999V34.2856Z" fill="#CC9EFA"/>
<path d="M188.569 42.8572H197.141V51.4286H188.569V42.8572Z" fill="#051461"/>
<path d="M179.999 42.8572H188.57V51.4286H179.999V42.8572Z" fill="#051461"/>
<path d="M171.429 42.8572H180V51.4286H171.429V42.8572Z" fill="#4725F4"/>
<path d="M162.854 42.8572H171.426V51.4286H162.854V42.8572Z" fill="#CC9EFA"/>
<path d="M154.284 42.8572H162.855V51.4286H154.284V42.8572Z" fill="#CC9EFA"/>
<path d="M145.714 42.8572H154.285V51.4286H145.714V42.8572Z" fill="black"/>
<path d="M137.14 42.8572H145.711V51.4286H137.14V42.8572Z" fill="black"/>
<path d="M128.569 42.8572H137.141V51.4286H128.569V42.8572Z" fill="black"/>
<path d="M119.999 42.8572H128.57V51.4286H119.999V42.8572Z" fill="black"/>
<path d="M197.14 51.4285H205.711V59.9999H197.14V51.4285Z" fill="#051461"/>
<path d="M188.569 51.4285H197.141V59.9999H188.569V51.4285Z" fill="#051461"/>
<path d="M179.999 51.4285H188.57V59.9999H179.999V51.4285Z" fill="#4725F4"/>
<path d="M171.429 51.4285H180V59.9999H171.429V51.4285Z" fill="#CC9EFA"/>
<path d="M162.854 51.4285H171.426V59.9999H162.854V51.4285Z" fill="#CC9EFA"/>
<path d="M154.284 51.4285H162.855V59.9999H154.284V51.4285Z" fill="black"/>
<path d="M145.714 51.4285H154.285V59.9999H145.714V51.4285Z" fill="black"/>
<path d="M137.14 51.4285H145.711V59.9999H137.14V51.4285Z" fill="black"/>
<path d="M128.569 51.4285H137.141V59.9999H128.569V51.4285Z" fill="black"/>
<path d="M119.999 51.4285H128.57V59.9999H119.999V51.4285Z" fill="black"/>
<path d="M197.14 60H205.711V68.5714H197.14V60Z" fill="#051461"/>
<path d="M188.569 60H197.141V68.5714H188.569V60Z" fill="#4725F4"/>
<path d="M179.999 60H188.57V68.5714H179.999V60Z" fill="#CC9EFA"/>
<path d="M171.429 60H180V68.5714H171.429V60Z" fill="black"/>
<path d="M162.854 60H171.426V68.5714H162.854V60Z" fill="black"/>
<path d="M154.284 60H162.855V68.5714H154.284V60Z" fill="black"/>
<path d="M145.714 60H154.285V68.5714H145.714V60Z" fill="black"/>
<path d="M137.14 60H145.711V68.5714H137.14V60Z" fill="black"/>
<path d="M128.569 60H137.141V68.5714H128.569V60Z" fill="black"/>
<path d="M119.999 60H128.57V68.5714H119.999V60Z" fill="black"/>
<path d="M205.714 68.5713H214.285V77.1427H205.714V68.5713Z" fill="#051461"/>
<path d="M197.14 68.5713H205.711V77.1427H197.14V68.5713Z" fill="#4725F4"/>
<path d="M188.569 68.5713H197.141V77.1427H188.569V68.5713Z" fill="#CC9EFA"/>
<path d="M179.999 68.5713H188.57V77.1427H179.999V68.5713Z" fill="#CC9EFA"/>
<path d="M171.429 68.5713H180V77.1427H171.429V68.5713Z" fill="black"/>
<path d="M162.854 68.5713H171.426V77.1427H162.854V68.5713Z" fill="black"/>
<path d="M154.284 68.5713H162.855V77.1427H154.284V68.5713Z" fill="black"/>
<path d="M145.714 68.5713H154.285V77.1427H145.714V68.5713Z" fill="black"/>
<path d="M137.14 68.5713H145.711V77.1427H137.14V68.5713Z" fill="black"/>
<path d="M128.569 68.5713H137.141V77.1427H128.569V68.5713Z" fill="black"/>
<path d="M119.999 68.5713H128.57V77.1427H119.999V68.5713Z" fill="black"/>
<path d="M205.714 77.1428H214.285V85.7143H205.714V77.1428Z" fill="#051461"/>
<path d="M197.14 77.1428H205.711V85.7143H197.14V77.1428Z" fill="#4725F4"/>
<path d="M188.569 77.1428H197.141V85.7143H188.569V77.1428Z" fill="#CC9EFA"/>
<path d="M179.999 77.1428H188.57V85.7143H179.999V77.1428Z" fill="black"/>
<path d="M171.429 77.1428H180V85.7143H171.429V77.1428Z" fill="black"/>
<path d="M162.854 77.1428H171.426V85.7143H162.854V77.1428Z" fill="black"/>
<path d="M154.284 77.1428H162.855V85.7143H154.284V77.1428Z" fill="black"/>
<path d="M145.714 77.1428H154.285V85.7143H145.714V77.1428Z" fill="black"/>
<path d="M137.14 77.1428H145.711V85.7143H137.14V77.1428Z" fill="black"/>
<path d="M128.569 77.1428H137.141V85.7143H128.569V77.1428Z" fill="black"/>
<path d="M119.999 77.1428H128.57V85.7143H119.999V77.1428Z" fill="black"/>
<path d="M214.284 85.7144H222.855V94.2858H214.284V85.7144Z" fill="#051461"/>
<path d="M205.714 85.7144H214.285V94.2858H205.714V85.7144Z" fill="#4725F4"/>
<path d="M197.14 85.7144H205.711V94.2858H197.14V85.7144Z" fill="#CC9EFA"/>
<path d="M188.569 85.7144H197.141V94.2858H188.569V85.7144Z" fill="black"/>
<path d="M179.999 85.7144H188.57V94.2858H179.999V85.7144Z" fill="black"/>
<path d="M171.429 85.7144H180V94.2858H171.429V85.7144Z" fill="black"/>
<path d="M162.854 85.7144H171.426V94.2858H162.854V85.7144Z" fill="black"/>
<path d="M154.284 85.7144H162.855V94.2858H154.284V85.7144Z" fill="black"/>
<path d="M145.714 85.7144H154.285V94.2858H145.714V85.7144Z" fill="black"/>
<path d="M137.14 85.7144H145.711V94.2858H137.14V85.7144Z" fill="black"/>
<path d="M128.569 85.7144H137.141V94.2858H128.569V85.7144Z" fill="black"/>
<path d="M119.999 85.7144H128.57V94.2858H119.999V85.7144Z" fill="black"/>
<path d="M214.284 94.2856H222.855V102.857H214.284V94.2856Z" fill="#051461"/>
<path d="M205.714 94.2856H214.285V102.857H205.714V94.2856Z" fill="#4725F4"/>
<path d="M197.14 94.2856H205.711V102.857H197.14V94.2856Z" fill="#CC9EFA"/>
<path d="M188.569 94.2856H197.141V102.857H188.569V94.2856Z" fill="black"/>
<path d="M179.999 94.2856H188.57V102.857H179.999V94.2856Z" fill="black"/>
<path d="M171.429 94.2856H180V102.857H171.429V94.2856Z" fill="black"/>
<path d="M162.854 94.2856H171.426V102.857H162.854V94.2856Z" fill="black"/>
<path d="M154.284 94.2856H162.855V102.857H154.284V94.2856Z" fill="black"/>
<path d="M145.714 94.2856H154.285V102.857H145.714V94.2856Z" fill="black"/>
<path d="M137.14 94.2856H145.711V102.857H137.14V94.2856Z" fill="black"/>
<path d="M128.569 94.2856H137.141V102.857H128.569V94.2856Z" fill="black"/>
<path d="M119.999 94.2856H128.57V102.857H119.999V94.2856Z" fill="black"/>
<path d="M214.284 102.857H222.855V111.429H214.284V102.857Z" fill="#051461"/>
<path d="M205.714 102.857H214.285V111.429H205.714V102.857Z" fill="#4725F4"/>
<path d="M197.14 102.857H205.711V111.429H197.14V102.857Z" fill="#CC9EFA"/>
<path d="M188.569 102.857H197.141V111.429H188.569V102.857Z" fill="black"/>
<path d="M179.999 102.857H188.57V111.429H179.999V102.857Z" fill="black"/>
<path d="M171.429 102.857H180V111.429H171.429V102.857Z" fill="black"/>
<path d="M162.854 102.857H171.426V111.429H162.854V102.857Z" fill="black"/>
<path d="M154.284 102.857H162.855V111.429H154.284V102.857Z" fill="black"/>
<path d="M145.714 102.857H154.285V111.429H145.714V102.857Z" fill="black"/>
<path d="M137.14 102.857H145.711V111.429H137.14V102.857Z" fill="black"/>
<path d="M128.569 102.857H137.141V111.429H128.569V102.857Z" fill="black"/>
<path d="M119.999 102.857H128.57V111.429H119.999V102.857Z" fill="black"/>
<path d="M214.284 111.428H222.855V120H214.284V111.428Z" fill="#051461"/>
<path d="M205.714 111.428H214.285V120H205.714V111.428Z" fill="#4725F4"/>
<path d="M197.14 111.428H205.711V120H197.14V111.428Z" fill="#CC9EFA"/>
<path d="M188.569 111.428H197.141V120H188.569V111.428Z" fill="black"/>
<path d="M179.999 111.428H188.57V120H179.999V111.428Z" fill="black"/>
<path d="M171.429 111.428H180V120H171.429V111.428Z" fill="black"/>
<path d="M162.854 111.428H171.426V120H162.854V111.428Z" fill="black"/>
<path d="M154.284 111.428H162.855V120H154.284V111.428Z" fill="black"/>
<path d="M145.714 111.428H154.285V120H145.714V111.428Z" fill="black"/>
<path d="M137.14 111.428H145.711V120H137.14V111.428Z" fill="black"/>
<path d="M128.569 111.428H137.141V120H128.569V111.428Z" fill="black"/>
<path d="M119.999 111.428H128.57V120H119.999V111.428Z" fill="black"/>
<path d="M94.2863 222.857H85.7148V214.286H94.2863V222.857Z" fill="#051461"/>
<path d="M102.86 222.857H94.2891V214.286H102.86V222.857Z" fill="#051461"/>
<path d="M111.431 222.857H102.859V214.286H111.431V222.857Z" fill="#051461"/>
<path d="M120.001 222.857H111.43V214.286H120.001V222.857Z" fill="#051461"/>
<path d="M77.1456 214.286H68.5742V205.714H77.1456V214.286Z" fill="#051461"/>
<path d="M85.716 214.286H77.1445V205.714H85.716V214.286Z" fill="#051461"/>
<path d="M94.2863 214.286H85.7148V205.714H94.2863V214.286Z" fill="#4725F4"/>
<path d="M102.86 214.286H94.2891V205.714H102.86V214.286Z" fill="#4725F4"/>
<path d="M111.431 214.286H102.859V205.714H111.431V214.286Z" fill="#4725F4"/>
<path d="M120.001 214.286H111.43V205.714H120.001V214.286Z" fill="#4725F4"/>
<path d="M60.0011 205.714H51.4297V197.143H60.0011V205.714Z" fill="#051461"/>
<path d="M68.5714 205.714H60V197.143H68.5714V205.714Z" fill="#051461"/>
<path d="M77.1456 205.714H68.5742V197.143H77.1456V205.714Z" fill="#4725F4"/>
<path d="M85.716 205.714H77.1445V197.143H85.716V205.714Z" fill="#4725F4"/>
<path d="M94.2863 205.714H85.7148V197.143H94.2863V205.714Z" fill="#CC9EFA"/>
<path d="M102.86 205.714H94.2891V197.143H102.86V205.714Z" fill="#CC9EFA"/>
<path d="M111.431 205.714H102.859V197.143H111.431V205.714Z" fill="#CC9EFA"/>
<path d="M120.001 205.714H111.43V197.143H120.001V205.714Z" fill="#CC9EFA"/>
<path d="M51.4308 197.143H42.8594V188.571H51.4308V197.143Z" fill="#051461"/>
<path d="M60.0011 197.143H51.4297V188.571H60.0011V197.143Z" fill="#051461"/>
<path d="M68.5714 197.143H60V188.571H68.5714V197.143Z" fill="#4725F4"/>
<path d="M77.1456 197.143H68.5742V188.571H77.1456V197.143Z" fill="#CC9EFA"/>
<path d="M85.716 197.143H77.1445V188.571H85.716V197.143Z" fill="#CC9EFA"/>
<path d="M94.2863 197.143H85.7148V188.571H94.2863V197.143Z" fill="black"/>
<path d="M102.86 197.143H94.2891V188.571H102.86V197.143Z" fill="black"/>
<path d="M111.431 197.143H102.859V188.571H111.431V197.143Z" fill="black"/>
<path d="M120.001 197.143H111.43V188.571H120.001V197.143Z" fill="black"/>
<path d="M42.8605 188.572H34.2891V180H42.8605V188.572Z" fill="#051461"/>
<path d="M51.4308 188.572H42.8594V180H51.4308V188.572Z" fill="#051461"/>
<path d="M60.0011 188.572H51.4297V180H60.0011V188.572Z" fill="#4725F4"/>
<path d="M68.5714 188.572H60V180H68.5714V188.572Z" fill="#CC9EFA"/>
<path d="M77.1456 188.572H68.5742V180H77.1456V188.572Z" fill="#CC9EFA"/>
<path d="M85.716 188.572H77.1445V180H85.716V188.572Z" fill="black"/>
<path d="M94.2863 188.572H85.7148V180H94.2863V188.572Z" fill="black"/>
<path d="M102.86 188.572H94.2891V180H102.86V188.572Z" fill="black"/>
<path d="M111.431 188.572H102.859V180H111.431V188.572Z" fill="black"/>
<path d="M120.001 188.572H111.43V180H120.001V188.572Z" fill="black"/>
<path d="M42.8605 180H34.2891V171.429H42.8605V180Z" fill="#051461"/>
<path d="M51.4308 180H42.8594V171.429H51.4308V180Z" fill="#4725F4"/>
<path d="M60.0011 180H51.4297V171.429H60.0011V180Z" fill="#CC9EFA"/>
<path d="M68.5714 180H60V171.429H68.5714V180Z" fill="black"/>
<path d="M77.1456 180H68.5742V171.429H77.1456V180Z" fill="black"/>
<path d="M85.716 180H77.1445V171.429H85.716V180Z" fill="black"/>
<path d="M94.2863 180H85.7148V171.429H94.2863V180Z" fill="black"/>
<path d="M102.86 180H94.2891V171.429H102.86V180Z" fill="black"/>
<path d="M111.431 180H102.859V171.429H111.431V180Z" fill="black"/>
<path d="M120.001 180H111.43V171.429H120.001V180Z" fill="black"/>
<path d="M34.2863 171.429H25.7148V162.857H34.2863V171.429Z" fill="#051461"/>
<path d="M42.8605 171.429H34.2891V162.857H42.8605V171.429Z" fill="#4725F4"/>
<path d="M51.4308 171.429H42.8594V162.857H51.4308V171.429Z" fill="#CC9EFA"/>
<path d="M60.0011 171.429H51.4297V162.857H60.0011V171.429Z" fill="#CC9EFA"/>
<path d="M68.5714 171.429H60V162.857H68.5714V171.429Z" fill="black"/>
<path d="M77.1456 171.429H68.5742V162.857H77.1456V171.429Z" fill="black"/>
<path d="M85.716 171.429H77.1445V162.857H85.716V171.429Z" fill="black"/>
<path d="M94.2863 171.429H85.7148V162.857H94.2863V171.429Z" fill="black"/>
<path d="M102.86 171.429H94.2891V162.857H102.86V171.429Z" fill="black"/>
<path d="M111.431 171.429H102.859V162.857H111.431V171.429Z" fill="black"/>
<path d="M120.001 171.429H111.43V162.857H120.001V171.429Z" fill="black"/>
<path d="M34.2863 162.857H25.7148V154.286H34.2863V162.857Z" fill="#051461"/>
<path d="M42.8605 162.857H34.2891V154.286H42.8605V162.857Z" fill="#4725F4"/>
<path d="M51.4308 162.857H42.8594V154.286H51.4308V162.857Z" fill="#CC9EFA"/>
<path d="M60.0011 162.857H51.4297V154.286H60.0011V162.857Z" fill="black"/>
<path d="M68.5714 162.857H60V154.286H68.5714V162.857Z" fill="black"/>
<path d="M77.1456 162.857H68.5742V154.286H77.1456V162.857Z" fill="black"/>
<path d="M85.716 162.857H77.1445V154.286H85.716V162.857Z" fill="black"/>
<path d="M94.2863 162.857H85.7148V154.286H94.2863V162.857Z" fill="black"/>
<path d="M102.86 162.857H94.2891V154.286H102.86V162.857Z" fill="black"/>
<path d="M111.431 162.857H102.859V154.286H111.431V162.857Z" fill="black"/>
<path d="M120.001 162.857H111.43V154.286H120.001V162.857Z" fill="black"/>
<path d="M25.716 154.286H17.1445V145.714H25.716V154.286Z" fill="#051461"/>
<path d="M34.2863 154.286H25.7148V145.714H34.2863V154.286Z" fill="#4725F4"/>
<path d="M42.8605 154.286H34.2891V145.714H42.8605V154.286Z" fill="#CC9EFA"/>
<path d="M51.4308 154.286H42.8594V145.714H51.4308V154.286Z" fill="black"/>
<path d="M60.0011 154.286H51.4297V145.714H60.0011V154.286Z" fill="black"/>
<path d="M68.5714 154.286H60V145.714H68.5714V154.286Z" fill="black"/>
<path d="M77.1456 154.286H68.5742V145.714H77.1456V154.286Z" fill="black"/>
<path d="M85.716 154.286H77.1445V145.714H85.716V154.286Z" fill="black"/>
<path d="M94.2863 154.286H85.7148V145.714H94.2863V154.286Z" fill="black"/>
<path d="M102.86 154.286H94.2891V145.714H102.86V154.286Z" fill="black"/>
<path d="M111.431 154.286H102.859V145.714H111.431V154.286Z" fill="black"/>
<path d="M120.001 154.286H111.43V145.714H120.001V154.286Z" fill="black"/>
<path d="M25.716 145.714H17.1445V137.143H25.716V145.714Z" fill="#051461"/>
<path d="M34.2863 145.714H25.7148V137.143H34.2863V145.714Z" fill="#4725F4"/>
<path d="M42.8605 145.714H34.2891V137.143H42.8605V145.714Z" fill="#CC9EFA"/>
<path d="M51.4308 145.714H42.8594V137.143H51.4308V145.714Z" fill="black"/>
<path d="M60.0011 145.714H51.4297V137.143H60.0011V145.714Z" fill="black"/>
<path d="M68.5714 145.714H60V137.143H68.5714V145.714Z" fill="black"/>
<path d="M77.1456 145.714H68.5742V137.143H77.1456V145.714Z" fill="black"/>
<path d="M85.716 145.714H77.1445V137.143H85.716V145.714Z" fill="black"/>
<path d="M94.2863 145.714H85.7148V137.143H94.2863V145.714Z" fill="black"/>
<path d="M102.86 145.714H94.2891V137.143H102.86V145.714Z" fill="black"/>
<path d="M111.431 145.714H102.859V137.143H111.431V145.714Z" fill="black"/>
<path d="M120.001 145.714H111.43V137.143H120.001V145.714Z" fill="black"/>
<path d="M25.716 137.143H17.1445V128.571H25.716V137.143Z" fill="#051461"/>
<path d="M34.2863 137.143H25.7148V128.571H34.2863V137.143Z" fill="#4725F4"/>
<path d="M42.8605 137.143H34.2891V128.571H42.8605V137.143Z" fill="#CC9EFA"/>
<path d="M51.4308 137.143H42.8594V128.571H51.4308V137.143Z" fill="black"/>
<path d="M60.0011 137.143H51.4297V128.571H60.0011V137.143Z" fill="black"/>
<path d="M68.5714 137.143H60V128.571H68.5714V137.143Z" fill="black"/>
<path d="M77.1456 137.143H68.5742V128.571H77.1456V137.143Z" fill="black"/>
<path d="M85.716 137.143H77.1445V128.571H85.716V137.143Z" fill="black"/>
<path d="M94.2863 137.143H85.7148V128.571H94.2863V137.143Z" fill="black"/>
<path d="M102.86 137.143H94.2891V128.571H102.86V137.143Z" fill="black"/>
<path d="M111.431 137.143H102.859V128.571H111.431V137.143Z" fill="black"/>
<path d="M120.001 137.143H111.43V128.571H120.001V137.143Z" fill="black"/>
<path d="M25.716 128.572H17.1445V120H25.716V128.572Z" fill="#051461"/>
<path d="M34.2863 128.572H25.7148V120H34.2863V128.572Z" fill="#4725F4"/>
<path d="M42.8605 128.572H34.2891V120H42.8605V128.572Z" fill="#CC9EFA"/>
<path d="M51.4308 128.572H42.8594V120H51.4308V128.572Z" fill="black"/>
<path d="M60.0011 128.572H51.4297V120H60.0011V128.572Z" fill="black"/>
<path d="M68.5714 128.572H60V120H68.5714V128.572Z" fill="black"/>
<path d="M77.1456 128.572H68.5742V120H77.1456V128.572Z" fill="black"/>
<path d="M85.716 128.572H77.1445V120H85.716V128.572Z" fill="black"/>
<path d="M94.2863 128.572H85.7148V120H94.2863V128.572Z" fill="black"/>
<path d="M102.86 128.572H94.2891V120H102.86V128.572Z" fill="black"/>
<path d="M111.431 128.572H102.859V120H111.431V128.572Z" fill="black"/>
<path d="M120.001 128.572H111.43V120H120.001V128.572Z" fill="black"/>
<path d="M145.714 222.857H154.285V214.286H145.714V222.857Z" fill="#051461"/>
<path d="M137.14 222.857H145.711V214.286H137.14V222.857Z" fill="#051461"/>
<path d="M128.569 222.857H137.141V214.286H128.569V222.857Z" fill="#051461"/>
<path d="M119.999 222.857H128.57V214.286H119.999V222.857Z" fill="#051461"/>
<path d="M162.854 214.286H171.426V205.714H162.854V214.286Z" fill="#051461"/>
<path d="M154.284 214.286H162.855V205.714H154.284V214.286Z" fill="#051461"/>
<path d="M145.714 214.286H154.285V205.714H145.714V214.286Z" fill="#4725F4"/>
<path d="M137.14 214.286H145.711V205.714H137.14V214.286Z" fill="#4725F4"/>
<path d="M128.569 214.286H137.141V205.714H128.569V214.286Z" fill="#4725F4"/>
<path d="M119.999 214.286H128.57V205.714H119.999V214.286Z" fill="#4725F4"/>
<path d="M179.999 205.714H188.57V197.143H179.999V205.714Z" fill="#051461"/>
<path d="M171.429 205.714H180V197.143H171.429V205.714Z" fill="#051461"/>
<path d="M162.854 205.714H171.426V197.143H162.854V205.714Z" fill="#4725F4"/>
<path d="M154.284 205.714H162.855V197.143H154.284V205.714Z" fill="#4725F4"/>
<path d="M145.714 205.714H154.285V197.143H145.714V205.714Z" fill="#CC9EFA"/>
<path d="M137.14 205.714H145.711V197.143H137.14V205.714Z" fill="#CC9EFA"/>
<path d="M128.569 205.714H137.141V197.143H128.569V205.714Z" fill="#CC9EFA"/>
<path d="M119.999 205.714H128.57V197.143H119.999V205.714Z" fill="#CC9EFA"/>
<path d="M188.569 197.143H197.141V188.571H188.569V197.143Z" fill="#051461"/>
<path d="M179.999 197.143H188.57V188.571H179.999V197.143Z" fill="#051461"/>
<path d="M171.429 197.143H180V188.571H171.429V197.143Z" fill="#4725F4"/>
<path d="M162.854 197.143H171.426V188.571H162.854V197.143Z" fill="#CC9EFA"/>
<path d="M154.284 197.143H162.855V188.571H154.284V197.143Z" fill="#CC9EFA"/>
<path d="M145.714 197.143H154.285V188.571H145.714V197.143Z" fill="black"/>
<path d="M137.14 197.143H145.711V188.571H137.14V197.143Z" fill="black"/>
<path d="M128.569 197.143H137.141V188.571H128.569V197.143Z" fill="black"/>
<path d="M119.999 197.143H128.57V188.571H119.999V197.143Z" fill="black"/>
<path d="M197.14 188.572H205.711V180H197.14V188.572Z" fill="#051461"/>
<path d="M188.569 188.572H197.141V180H188.569V188.572Z" fill="#051461"/>
<path d="M179.999 188.572H188.57V180H179.999V188.572Z" fill="#4725F4"/>
<path d="M171.429 188.572H180V180H171.429V188.572Z" fill="#CC9EFA"/>
<path d="M162.854 188.572H171.426V180H162.854V188.572Z" fill="#CC9EFA"/>
<path d="M154.284 188.572H162.855V180H154.284V188.572Z" fill="black"/>
<path d="M145.714 188.572H154.285V180H145.714V188.572Z" fill="black"/>
<path d="M137.14 188.572H145.711V180H137.14V188.572Z" fill="black"/>
<path d="M128.569 188.572H137.141V180H128.569V188.572Z" fill="black"/>
<path d="M119.999 188.572H128.57V180H119.999V188.572Z" fill="black"/>
<path d="M197.14 180H205.711V171.429H197.14V180Z" fill="#051461"/>
<path d="M188.569 180H197.141V171.429H188.569V180Z" fill="#4725F4"/>
<path d="M179.999 180H188.57V171.429H179.999V180Z" fill="#CC9EFA"/>
<path d="M171.429 180H180V171.429H171.429V180Z" fill="black"/>
<path d="M162.854 180H171.426V171.429H162.854V180Z" fill="black"/>
<path d="M154.284 180H162.855V171.429H154.284V180Z" fill="black"/>
<path d="M145.714 180H154.285V171.429H145.714V180Z" fill="black"/>
<path d="M137.14 180H145.711V171.429H137.14V180Z" fill="black"/>
<path d="M128.569 180H137.141V171.429H128.569V180Z" fill="black"/>
<path d="M119.999 180H128.57V171.429H119.999V180Z" fill="black"/>
<path d="M205.714 171.429H214.285V162.857H205.714V171.429Z" fill="#051461"/>
<path d="M197.14 171.429H205.711V162.857H197.14V171.429Z" fill="#4725F4"/>
<path d="M188.569 171.429H197.141V162.857H188.569V171.429Z" fill="#CC9EFA"/>
<path d="M179.999 171.429H188.57V162.857H179.999V171.429Z" fill="#CC9EFA"/>
<path d="M171.429 171.429H180V162.857H171.429V171.429Z" fill="black"/>
<path d="M162.854 171.429H171.426V162.857H162.854V171.429Z" fill="black"/>
<path d="M154.284 171.429H162.855V162.857H154.284V171.429Z" fill="black"/>
<path d="M145.714 171.429H154.285V162.857H145.714V171.429Z" fill="black"/>
<path d="M137.14 171.429H145.711V162.857H137.14V171.429Z" fill="black"/>
<path d="M128.569 171.429H137.141V162.857H128.569V171.429Z" fill="black"/>
<path d="M119.999 171.429H128.57V162.857H119.999V171.429Z" fill="black"/>
<path d="M205.714 162.857H214.285V154.286H205.714V162.857Z" fill="#051461"/>
<path d="M197.14 162.857H205.711V154.286H197.14V162.857Z" fill="#4725F4"/>
<path d="M188.569 162.857H197.141V154.286H188.569V162.857Z" fill="#CC9EFA"/>
<path d="M179.999 162.857H188.57V154.286H179.999V162.857Z" fill="black"/>
<path d="M171.429 162.857H180V154.286H171.429V162.857Z" fill="black"/>
<path d="M162.854 162.857H171.426V154.286H162.854V162.857Z" fill="black"/>
<path d="M154.284 162.857H162.855V154.286H154.284V162.857Z" fill="black"/>
<path d="M145.714 162.857H154.285V154.286H145.714V162.857Z" fill="black"/>
<path d="M137.14 162.857H145.711V154.286H137.14V162.857Z" fill="black"/>
<path d="M128.569 162.857H137.141V154.286H128.569V162.857Z" fill="black"/>
<path d="M119.999 162.857H128.57V154.286H119.999V162.857Z" fill="black"/>
<path d="M214.284 154.286H222.855V145.714H214.284V154.286Z" fill="#051461"/>
<path d="M205.714 154.286H214.285V145.714H205.714V154.286Z" fill="#4725F4"/>
<path d="M197.14 154.286H205.711V145.714H197.14V154.286Z" fill="#CC9EFA"/>
<path d="M188.569 154.286H197.141V145.714H188.569V154.286Z" fill="black"/>
<path d="M179.999 154.286H188.57V145.714H179.999V154.286Z" fill="black"/>
<path d="M171.429 154.286H180V145.714H171.429V154.286Z" fill="black"/>
<path d="M162.854 154.286H171.426V145.714H162.854V154.286Z" fill="black"/>
<path d="M154.284 154.286H162.855V145.714H154.284V154.286Z" fill="black"/>
<path d="M145.714 154.286H154.285V145.714H145.714V154.286Z" fill="black"/>
<path d="M137.14 154.286H145.711V145.714H137.14V154.286Z" fill="black"/>
<path d="M128.569 154.286H137.141V145.714H128.569V154.286Z" fill="black"/>
<path d="M119.999 154.286H128.57V145.714H119.999V154.286Z" fill="black"/>
<path d="M214.284 145.714H222.855V137.143H214.284V145.714Z" fill="#051461"/>
<path d="M205.714 145.714H214.285V137.143H205.714V145.714Z" fill="#4725F4"/>
<path d="M197.14 145.714H205.711V137.143H197.14V145.714Z" fill="#CC9EFA"/>
<path d="M188.569 145.714H197.141V137.143H188.569V145.714Z" fill="black"/>
<path d="M179.999 145.714H188.57V137.143H179.999V145.714Z" fill="black"/>
<path d="M171.429 145.714H180V137.143H171.429V145.714Z" fill="black"/>
<path d="M162.854 145.714H171.426V137.143H162.854V145.714Z" fill="black"/>
<path d="M154.284 145.714H162.855V137.143H154.284V145.714Z" fill="black"/>
<path d="M145.714 145.714H154.285V137.143H145.714V145.714Z" fill="black"/>
<path d="M137.14 145.714H145.711V137.143H137.14V145.714Z" fill="black"/>
<path d="M128.569 145.714H137.141V137.143H128.569V145.714Z" fill="black"/>
<path d="M119.999 145.714H128.57V137.143H119.999V145.714Z" fill="black"/>
<path d="M214.284 137.143H222.855V128.571H214.284V137.143Z" fill="#051461"/>
<path d="M205.714 137.143H214.285V128.571H205.714V137.143Z" fill="#4725F4"/>
<path d="M197.14 137.143H205.711V128.571H197.14V137.143Z" fill="#CC9EFA"/>
<path d="M188.569 137.143H197.141V128.571H188.569V137.143Z" fill="black"/>
<path d="M179.999 137.143H188.57V128.571H179.999V137.143Z" fill="black"/>
<path d="M171.429 137.143H180V128.571H171.429V137.143Z" fill="black"/>
<path d="M162.854 137.143H171.426V128.571H162.854V137.143Z" fill="black"/>
<path d="M154.284 137.143H162.855V128.571H154.284V137.143Z" fill="black"/>
<path d="M145.714 137.143H154.285V128.571H145.714V137.143Z" fill="black"/>
<path d="M137.14 137.143H145.711V128.571H137.14V137.143Z" fill="black"/>
<path d="M128.569 137.143H137.141V128.571H128.569V137.143Z" fill="black"/>
<path d="M119.999 137.143H128.57V128.571H119.999V137.143Z" fill="black"/>
<path d="M214.284 128.572H222.855V120H214.284V128.572Z" fill="#051461"/>
<path d="M205.714 128.572H214.285V120H205.714V128.572Z" fill="#4725F4"/>
<path d="M197.14 128.572H205.711V120H197.14V128.572Z" fill="#CC9EFA"/>
<path d="M188.569 128.572H197.141V120H188.569V128.572Z" fill="black"/>
<path d="M179.999 128.572H188.57V120H179.999V128.572Z" fill="black"/>
<path d="M171.429 128.572H180V120H171.429V128.572Z" fill="black"/>
<path d="M162.854 128.572H171.426V120H162.854V128.572Z" fill="black"/>
<path d="M154.284 128.572H162.855V120H154.284V128.572Z" fill="black"/>
<path d="M145.714 128.572H154.285V120H145.714V128.572Z" fill="black"/>
<path d="M137.14 128.572H145.711V120H137.14V128.572Z" fill="black"/>
<path d="M128.569 128.572H137.141V120H128.569V128.572Z" fill="black"/>
<path d="M119.999 128.572H128.57V120H119.999V128.572Z" fill="black"/>
</svg>
