<svg width="1280" height="2113" viewBox="0 0 1280 2113" fill="none" xmlns="http://www.w3.org/2000/svg">
  <g clip-path="url(#clip0_2280_6766)">
    <path d="M2162 0H0V2113H2162V0Z" fill="black" />
    <path d="M951.279 137.345H940.469V147.91H951.279V137.345Z" fill="#1B1310" />
    <path d="M1167.48 750.115H1156.67V760.68H1167.48V750.115Z" fill="#1B1310" />
    <path d="M994.521 1796.05H983.711V1806.62H994.521V1796.05Z" fill="#17120E" />
    <path d="M75.6694 1859.44H64.8594V1870H75.6694V1859.44Z" fill="#181410" />
    <path d="M562.119 602.205H551.309V612.77H562.119V602.205Z" fill="#1B1310" />
    <path d="M551.31 993.11H540.5V1003.67H551.31V993.11Z" fill="#18130F" />
    <path d="M259.439 919.155H248.629V929.72H259.439V919.155Z" fill="#1A1210" />
    <path d="M789.13 1024.81H778.32V1035.37H789.13V1024.81Z" fill="#181214" />
    <path d="M713.458 602.205H702.648V612.77H713.458V602.205Z" fill="#181310" />
    <path d="M508.072 898.025H497.262V908.59H508.072V898.025Z" fill="#160F0D" />
    <path d="M1026.95 633.9H1016.14V644.465H1026.95V633.9Z" fill="#17120E" />
    <path d="M1210.72 1658.71H1199.91V1669.27H1210.72V1658.71Z" fill="#1B1310" />
    <path d="M410.779 1151.58H399.969V1162.15H410.779V1151.58Z" fill="#1B1310" />
    <path d="M626.982 169.04H616.172V179.605H626.982V169.04Z" fill="#17120E" />
    <path d="M778.322 1352.32H767.512V1362.88H778.322V1352.32Z" fill="#17120E" />
    <path d="M918.849 834.635H908.039V845.2H918.849V834.635Z" fill="#181214" />
    <path d="M918.849 1975.66H908.039V1986.22H918.849V1975.66Z" fill="#160F0D" />
    <path d="M637.79 390.905H626.98V401.47H637.79V390.905Z" fill="#1A1511" />
    <path d="M183.771 412.035H172.961V422.6H183.771V412.035Z" fill="#17120E" />
    <path d="M32.4311 1331.19H21.6211V1341.75H32.4311V1331.19Z" fill="#1B1310" />
    <path d="M129.72 242.995H118.91V253.56H129.72V242.995Z" fill="#17120E" />
    <path d="M162.15 1183.28H151.34V1193.85H162.15V1183.28Z" fill="#181410" />
    <path d="M724.271 475.425H713.461V485.99H724.271V475.425Z" fill="#181214" />
    <path d="M194.58 919.155H183.77V929.72H194.58V919.155Z" fill="#181214" />
    <path d="M270.251 1130.46H259.441V1141.02H270.251V1130.46Z" fill="#181410" />
    <path d="M1091.81 1827.75H1081V1838.31H1091.81V1827.75Z" fill="#181214" />
    <path d="M1048.57 876.895H1037.76V887.46H1048.57V876.895Z" fill="#181214" />
    <path d="M908.04 982.545H897.23V993.11H908.04V982.545Z" fill="#181410" />
    <path d="M702.65 1352.32H691.84V1362.88H702.65V1352.32Z" fill="#17120E" />
    <path d="M486.451 2039.04H475.641V2049.61H486.451V2039.04Z" fill="#181310" />
    <path d="M1145.86 1014.24H1135.05V1024.8H1145.86V1014.24Z" fill="#140E0E" />
    <path d="M540.501 464.86H529.691V475.425H540.501V464.86Z" fill="#282221" />
    <path d="M389.162 1320.62H378.352V1331.19H389.162V1320.62Z" fill="#181410" />
    <path d="M1264.77 137.345H1253.96V147.91H1264.77V137.345Z" fill="#181310" />
    <path d="M97.2905 412.035H86.4805V422.6H97.2905V412.035Z" fill="#1B1310" />
    <path d="M810.751 845.2H799.941V855.765H810.751V845.2Z" fill="#18130F" />
    <path d="M64.8608 1817.18H54.0508V1827.75H64.8608V1817.18Z" fill="#181310" />
    <path d="M659.412 1891.14H648.602V1901.7H659.412V1891.14Z" fill="#17120E" />
    <path d="M821.56 52.825H810.75V63.39H821.56V52.825Z" fill="#181214" />
    <path d="M1135.05 137.345H1124.24V147.91H1135.05V137.345Z" fill="#140E0E" />
    <path d="M1189.1 538.815H1178.29V549.38H1189.1V538.815Z" fill="#18130F" />
    <path d="M1178.29 1172.71H1167.48V1183.28H1178.29V1172.71Z" fill="#181310" />
    <path d="M248.63 644.465H237.82V655.03H248.63V644.465Z" fill="#282221" />
    <path d="M1091.81 1510.79H1081V1521.36H1091.81V1510.79Z" fill="#1B1517" />
    <path d="M929.662 760.68H918.852V771.245H929.662V760.68Z" fill="#160F0D" />
    <path d="M1048.57 496.555H1037.76V507.12H1048.57V496.555Z" fill="#181214" />
    <path d="M54.0483 1627.01H43.2383V1637.58H54.0483V1627.01Z" fill="#1B1517" />
    <path d="M486.451 73.955H475.641V84.52H486.451V73.955Z" fill="#282221" />
    <path d="M345.919 950.85H335.109V961.415H345.919V950.85Z" fill="#1B1310" />
    <path d="M410.779 359.21H399.969V369.775H410.779V359.21Z" fill="#18130F" />
    <path d="M540.501 1193.84H529.691V1204.41H540.501V1193.84Z" fill="#17120E" />
    <path d="M778.322 0H767.512V10.565H778.322V0Z" fill="#140E0E" />
    <path d="M497.259 824.07H486.449V834.635H497.259V824.07Z" fill="#1B1310" />
    <path d="M1026.95 1162.15H1016.14V1172.71H1026.95V1162.15Z" fill="#1B1517" />
    <path d="M281.06 792.375H270.25V802.94H281.06V792.375Z" fill="#17120E" />
    <path d="M756.701 982.545H745.891V993.11H756.701V982.545Z" fill="#140E0E" />
    <path d="M897.232 1024.81H886.422V1035.37H897.232V1024.81Z" fill="#1A1210" />
    <path d="M551.31 792.375H540.5V802.94H551.31V792.375Z" fill="#17120E" />
    <path d="M799.939 982.545H789.129V993.11H799.939V982.545Z" fill="#181410" />
    <path d="M778.322 0H767.512V10.565H778.322V0Z" fill="#1B1310" />
    <path d="M1286.39 760.68H1275.58V771.245H1286.39V760.68Z" fill="#1B1517" />
    <path d="M886.419 1922.83H875.609V1933.4H886.419V1922.83Z" fill="#160F0D" />
    <path d="M1253.96 1172.71H1243.15V1183.28H1253.96V1172.71Z" fill="#18130F" />
    <path d="M886.419 1151.58H875.609V1162.15H886.419V1151.58Z" fill="#282221" />
    <path d="M1264.77 1024.81H1253.96V1035.37H1264.77V1024.81Z" fill="#282221" />
    <path d="M281.06 232.43H270.25V242.995H281.06V232.43Z" fill="#140E0E" />
    <path d="M313.49 369.775H302.68V380.34H313.49V369.775Z" fill="#140E0E" />
    <path d="M162.15 190.17H151.34V200.735H162.15V190.17Z" fill="#282221" />
    <path d="M594.548 1352.32H583.738V1362.88H594.548V1352.32Z" fill="#1A1210" />
    <path d="M216.201 707.855H205.391V718.42H216.201V707.855Z" fill="#181410" />
    <path d="M626.982 1352.32H616.172V1362.88H626.982V1352.32Z" fill="#282221" />
    <path d="M875.611 1954.52H864.801V1965.09H875.611V1954.52Z" fill="#1A1511" />
    <path d="M1178.29 274.69H1167.48V285.255H1178.29V274.69Z" fill="#1B1517" />
    <path d="M843.181 42.26H832.371V52.825H843.181V42.26Z" fill="#18130F" />
    <path d="M75.6694 1447.41H64.8594V1457.97H75.6694V1447.41Z" fill="#181214" />
    <path d="M1081 1098.76H1070.19V1109.33H1081V1098.76Z" fill="#181410" />
    <path d="M518.88 190.17H508.07V200.735H518.88V190.17Z" fill="#160F0D" />
    <path d="M205.388 1098.76H194.578V1109.33H205.388V1098.76Z" fill="#1A1210" />
    <path d="M659.412 1035.37H648.602V1045.94H659.412V1035.37Z" fill="#1A1511" />
    <path d="M302.681 1891.14H291.871V1901.7H302.681V1891.14Z" fill="#1B1517" />
    <path d="M194.58 253.56H183.77V264.125H194.58V253.56Z" fill="#1B1517" />
    <path d="M583.74 940.285H572.93V950.85H583.74V940.285Z" fill="#282221" />
    <path d="M1221.53 1764.35H1210.72V1774.92H1221.53V1764.35Z" fill="#18130F" />
    <path d="M799.939 84.52H789.129V95.085H799.939V84.52Z" fill="#1B1517" />
    <path d="M875.611 95.085H864.801V105.65H875.611V95.085Z" fill="#1B1517" />
    <path d="M324.298 919.155H313.488V929.72H324.298V919.155Z" fill="#181410" />
    <path d="M789.13 1310.06H778.32V1320.63H789.13V1310.06Z" fill="#18130F" />
    <path d="M54.0483 718.42H43.2383V728.985H54.0483V718.42Z" fill="#1A1210" />
    <path d="M389.162 401.47H378.352V412.035H389.162V401.47Z" fill="#18130F" />
    <path d="M1059.38 1479.1H1048.57V1489.67H1059.38V1479.1Z" fill="#18130F" />
    <path d="M270.251 1362.89H259.441V1373.45H270.251V1362.89Z" fill="#1A1210" />
    <path d="M281.06 1479.1H270.25V1489.67H281.06V1479.1Z" fill="#1B1310" />
    <path d="M583.74 306.385H572.93V316.95H583.74V306.385Z" fill="#18130F" />
    <path d="M983.708 1024.81H972.898V1035.37H983.708V1024.81Z" fill="#1B1517" />
    <path d="M378.349 1785.48H367.539V1796.05H378.349V1785.48Z" fill="#17120E" />
    <path d="M1243.15 728.985H1232.34V739.55H1243.15V728.985Z" fill="#1A1210" />
    <path d="M1178.29 1109.32H1167.48V1119.89H1178.29V1109.32Z" fill="#140E0E" />
    <path d="M583.74 1236.1H572.93V1246.67H583.74V1236.1Z" fill="#181410" />
    <path d="M248.63 718.42H237.82V728.985H248.63V718.42Z" fill="#181214" />
    <path d="M572.931 1648.14H562.121V1658.71H572.931V1648.14Z" fill="#1B1310" />
    <path d="M626.982 1119.89H616.172V1130.46H626.982V1119.89Z" fill="#1A1210" />
    <path d="M1167.48 2039.04H1156.67V2049.61H1167.48V2039.04Z" fill="#181410" />
    <path d="M399.97 1384.02H389.16V1394.58H399.97V1384.02Z" fill="#1A1511" />
    <path d="M108.099 1172.71H97.2891V1183.28H108.099V1172.71Z" fill="#140E0E" />
    <path d="M464.83 105.65H454.02V116.215H464.83V105.65Z" fill="#181214" />
    <path d="M681.029 1267.8H670.219V1278.37H681.029V1267.8Z" fill="#181310" />
    <path d="M1264.77 919.155H1253.96V929.72H1264.77V919.155Z" fill="#282221" />
    <path d="M64.8608 1278.36H54.0508V1288.93H64.8608V1278.36Z" fill="#181410" />
    <path d="M151.341 1130.46H140.531V1141.02H151.341V1130.46Z" fill="#1B1310" />
    <path d="M291.869 1267.8H281.059V1278.37H291.869V1267.8Z" fill="#140E0E" />
    <path d="M1145.86 507.12H1135.05V517.685H1145.86V507.12Z" fill="#282221" />
    <path d="M626.982 750.115H616.172V760.68H626.982V750.115Z" fill="#1A1511" />
    <path d="M10.81 158.475H0V169.04H10.81V158.475Z" fill="#1A1511" />
    <path d="M864.798 686.725H853.988V697.29H864.798V686.725Z" fill="#181310" />
    <path d="M821.56 676.16H810.75V686.725H821.56V676.16Z" fill="#1A1210" />
  </g>
  <defs>
    <clipPath id="clip0_2280_6766">
      <rect width="2162" height="2113" fill="white" />
    </clipPath>
  </defs>
</svg>