<svg xmlns="http://www.w3.org/2000/svg" viewBox="0 0 280 280" width="280" height="280">
  <defs>
    <g id="full">
      <g id="edge">
        <rect x="100" y="50" width="10" height="10" fill="hsl(15,90%,20%)"></rect>
        <rect x="110" y="50" width="10" height="10" fill="hsl(15,90%,20%)"></rect>
        <rect x="120" y="50" width="10" height="10" fill="hsl(15,90%,20%)"></rect>
        <rect x="130" y="50" width="10" height="10" fill="hsl(15,90%,20%)"></rect>
        <rect x="140" y="50" width="10" height="10" fill="hsl(15,90%,20%)"></rect>
        <rect x="90" y="60" width="10" height="10" fill="hsl(15,90%,20%)"></rect>
        <rect x="100" y="60" width="10" height="10" fill="hsl(35,90%,55%)"></rect>
        <rect x="110" y="60" width="10" height="10" fill="hsl(35,90%,55%)"></rect>
        <rect x="120" y="60" width="10" height="10" fill="hsl(35,90%,55%)"></rect>
        <rect x="130" y="60" width="10" height="10" fill="hsl(35,90%,55%)"></rect>
        <rect x="140" y="60" width="10" height="10" fill="hsl(35,90%,55%)"></rect>
        <rect x="70" y="70" width="10" height="10" fill="hsl(15,90%,20%)"></rect>
        <rect x="80" y="70" width="10" height="10" fill="hsl(15,90%,20%)"></rect>
        <rect x="90" y="70" width="10" height="10" fill="hsl(35,90%,55%)"></rect>
        <rect x="100" y="70" width="10" height="10" fill="hsl(35,90%,55%)"></rect>
        <rect x="110" y="70" width="10" height="10" fill="hsl(55,90%,80%)"></rect>
        <rect x="120" y="70" width="10" height="10" fill="hsl(55,90%,80%)"></rect>
        <rect x="130" y="70" width="10" height="10" fill="hsl(55,90%,80%)"></rect>
        <rect x="140" y="70" width="10" height="10" fill="hsl(55,90%,80%)"></rect>
        <rect x="70" y="80" width="10" height="10" fill="hsl(15,90%,20%)"></rect>
        <rect x="80" y="80" width="10" height="10" fill="hsl(35,90%,55%)"></rect>
        <rect x="90" y="80" width="10" height="10" fill="hsl(55,90%,80%)"></rect>
        <rect x="100" y="80" width="10" height="10" fill="hsl(55,90%,80%)"></rect>
        <rect x="60" y="90" width="10" height="10" fill="hsl(15,90%,20%)"></rect>
        <rect x="70" y="90" width="10" height="10" fill="hsl(35,90%,55%)"></rect>
        <rect x="80" y="90" width="10" height="10" fill="hsl(55,90%,80%)"></rect>
        <rect x="90" y="90" width="10" height="10" fill="hsl(55,90%,80%)"></rect>
        <rect x="50" y="100" width="10" height="10" fill="hsl(15,90%,20%)"></rect>
        <rect x="60" y="100" width="10" height="10" fill="hsl(35,90%,55%)"></rect>
        <rect x="70" y="100" width="10" height="10" fill="hsl(35,90%,55%)"></rect>
        <rect x="80" y="100" width="10" height="10" fill="hsl(55,90%,80%)"></rect>
        <rect x="50" y="110" width="10" height="10" fill="hsl(15,90%,20%)"></rect>
        <rect x="60" y="110" width="10" height="10" fill="hsl(35,90%,55%)"></rect>
        <rect x="70" y="110" width="10" height="10" fill="hsl(55,90%,80%)"></rect>
        <rect x="50" y="120" width="10" height="10" fill="hsl(15,90%,20%)"></rect>
        <rect x="60" y="120" width="10" height="10" fill="hsl(35,90%,55%)"></rect>
        <rect x="70" y="120" width="10" height="10" fill="hsl(55,90%,80%)"></rect>
        <rect x="50" y="130" width="10" height="10" fill="hsl(15,90%,20%)"></rect>
        <rect x="60" y="130" width="10" height="10" fill="hsl(35,90%,55%)"></rect>
        <rect x="70" y="130" width="10" height="10" fill="hsl(55,90%,80%)"></rect>
        <rect x="50" y="140" width="10" height="10" fill="hsl(15,90%,20%)"></rect>
        <rect x="60" y="140" width="10" height="10" fill="hsl(35,90%,55%)"></rect>
        <rect x="70" y="140" width="10" height="10" fill="hsl(55,90%,80%)"></rect>
      </g>
      <use href="#edge" transform="scale(-1,1),translate(-280,0)"></use>
      <use href="#edge" transform="scale(1,-1),translate(0,-280)"></use>
      <use href="#edge" transform="scale(-1,-1),translate(-280,-280)"></use>
    </g>
  </defs>
  <rect x="0" y="0" width="280" height="280" fill="black"></rect>
  <g id="background">
    <rect x="190" y="50" width="10" height="10" fill="hsl(0,0%,7%)"></rect>
    <rect x="140" y="250" width="10" height="10" fill="hsl(0,0%,10%)"></rect>
    <rect x="80" y="80" width="10" height="10" fill="hsl(0,0%,11%)"></rect>
    <rect x="150" y="170" width="10" height="10" fill="hsl(0,0%,8%)"></rect>
    <rect x="240" y="110" width="10" height="10" fill="hsl(0,0%,7%)"></rect>
    <rect x="130" y="70" width="10" height="10" fill="hsl(0,0%,7%)"></rect>
    <rect x="130" y="260" width="10" height="10" fill="hsl(0,0%,11%)"></rect>
    <rect x="260" y="250" width="10" height="10" fill="hsl(0,0%,5%)"></rect>
    <rect x="20" y="40" width="10" height="10" fill="hsl(0,0%,8%)"></rect>
    <rect x="80" y="30" width="10" height="10" fill="hsl(0,0%,9%)"></rect>
    <rect x="20" y="200" width="10" height="10" fill="hsl(0,0%,5%)"></rect>
    <rect x="280" y="220" width="10" height="10" fill="hsl(0,0%,8%)"></rect>
    <rect x="200" y="120" width="10" height="10" fill="hsl(0,0%,8%)"></rect>
    <rect x="50" y="20" width="10" height="10" fill="hsl(0,0%,5%)"></rect>
    <rect x="190" y="90" width="10" height="10" fill="hsl(0,0%,8%)"></rect>
    <rect x="250" y="0" width="10" height="10" fill="hsl(0,0%,11%)"></rect>
    <rect x="20" y="10" width="10" height="10" fill="hsl(0,0%,8%)"></rect>
    <rect x="200" y="170" width="10" height="10" fill="hsl(0,0%,11%)"></rect>
    <rect x="220" y="220" width="10" height="10" fill="hsl(0,0%,8%)"></rect>
    <rect x="250" y="10" width="10" height="10" fill="hsl(0,0%,11%)"></rect>
    <rect x="20" y="210" width="10" height="10" fill="hsl(0,0%,7%)"></rect>
    <rect x="110" y="180" width="10" height="10" fill="hsl(0,0%,11%)"></rect>
    <rect x="230" y="80" width="10" height="10" fill="hsl(0,0%,11%)"></rect>
    <rect x="270" y="200" width="10" height="10" fill="hsl(0,0%,6%)"></rect>
    <rect x="30" y="70" width="10" height="10" fill="hsl(0,0%,8%)"></rect>
    <rect x="80" y="150" width="10" height="10" fill="hsl(0,0%,5%)"></rect>
    <rect x="190" y="230" width="10" height="10" fill="hsl(0,0%,10%)"></rect>
    <rect x="240" y="210" width="10" height="10" fill="hsl(0,0%,5%)"></rect>
    <rect x="110" y="110" width="10" height="10" fill="hsl(0,0%,6%)"></rect>
    <rect x="50" y="230" width="10" height="10" fill="hsl(0,0%,7%)"></rect>
  </g>
  <rect fill="black" x="80" y="80" width="120" height="120"></rect>
  <use href="#full"></use>
  <rect x="690" y="450" width="10" height="10" fill="hsl(0,0%,19%)">
    <animate attributeName="x" from="690" to="140" values="690;140" dur="2s" repeatCount="indefinite" begin="1.57s"
      calcMode="spline" keyTimes="0;1" keySplines="0.4,0,0.2,1"></animate>
    <animate attributeName="y" from="450" to="140" values="450;140" dur="2s" repeatCount="indefinite" begin="1.57s"
      calcMode="spline" keyTimes="0;1" keySplines="0.4,0,0.2,1"></animate>
    <animate attributeName="fill-opacity" from="1" to="0" values="1;0" dur="2s" repeatCount="indefinite" begin="1.57s"
      calcMode="spline" keyTimes="0;1" keySplines="0.4,0,0.2,1"></animate>
  </rect>
  <rect x="120" y="30" width="10" height="10" fill="hsl(0,0%,146%)">
    <animate attributeName="x" from="120" to="140" values="120;140" dur="2s" repeatCount="indefinite" begin="1.103s"
      calcMode="spline" keyTimes="0;1" keySplines="0.4,0,0.2,1"></animate>
    <animate attributeName="y" from="30" to="140" values="30;140" dur="2s" repeatCount="indefinite" begin="1.103s"
      calcMode="spline" keyTimes="0;1" keySplines="0.4,0,0.2,1"></animate>
    <animate attributeName="fill-opacity" from="1" to="0" values="1;0" dur="2s" repeatCount="indefinite" begin="1.103s"
      calcMode="spline" keyTimes="0;1" keySplines="0.4,0,0.2,1"></animate>
  </rect>
  <rect x="550" y="190" width="10" height="10" fill="hsl(0,0%,85%)">
    <animate attributeName="x" from="550" to="140" values="550;140" dur="2s" repeatCount="indefinite" begin="1.948s"
      calcMode="spline" keyTimes="0;1" keySplines="0.4,0,0.2,1"></animate>
    <animate attributeName="y" from="190" to="140" values="190;140" dur="2s" repeatCount="indefinite" begin="1.948s"
      calcMode="spline" keyTimes="0;1" keySplines="0.4,0,0.2,1"></animate>
    <animate attributeName="fill-opacity" from="1" to="0" values="1;0" dur="2s" repeatCount="indefinite" begin="1.948s"
      calcMode="spline" keyTimes="0;1" keySplines="0.4,0,0.2,1"></animate>
  </rect>
  <rect x="60" y="0" width="10" height="10" fill="hsl(0,0%,180%)">
    <animate attributeName="x" from="60" to="140" values="60;140" dur="2s" repeatCount="indefinite" begin="1.739s"
      calcMode="spline" keyTimes="0;1" keySplines="0.4,0,0.2,1"></animate>
    <animate attributeName="y" from="0" to="140" values="0;140" dur="2s" repeatCount="indefinite" begin="1.739s"
      calcMode="spline" keyTimes="0;1" keySplines="0.4,0,0.2,1"></animate>
    <animate attributeName="fill-opacity" from="1" to="0" values="1;0" dur="2s" repeatCount="indefinite" begin="1.739s"
      calcMode="spline" keyTimes="0;1" keySplines="0.4,0,0.2,1"></animate>
  </rect>
  <rect x="560" y="490" width="10" height="10" fill="hsl(0,0%,175%)">
    <animate attributeName="x" from="560" to="140" values="560;140" dur="2s" repeatCount="indefinite" begin="1.19s"
      calcMode="spline" keyTimes="0;1" keySplines="0.4,0,0.2,1"></animate>
    <animate attributeName="y" from="490" to="140" values="490;140" dur="2s" repeatCount="indefinite" begin="1.19s"
      calcMode="spline" keyTimes="0;1" keySplines="0.4,0,0.2,1"></animate>
    <animate attributeName="fill-opacity" from="1" to="0" values="1;0" dur="2s" repeatCount="indefinite" begin="1.19s"
      calcMode="spline" keyTimes="0;1" keySplines="0.4,0,0.2,1"></animate>
  </rect>
  <rect x="230" y="60" width="10" height="10" fill="hsl(0,0%,101%)">
    <animate attributeName="x" from="230" to="140" values="230;140" dur="2s" repeatCount="indefinite" begin="0.690s"
      calcMode="spline" keyTimes="0;1" keySplines="0.4,0,0.2,1"></animate>
    <animate attributeName="y" from="60" to="140" values="60;140" dur="2s" repeatCount="indefinite" begin="0.690s"
      calcMode="spline" keyTimes="0;1" keySplines="0.4,0,0.2,1"></animate>
    <animate attributeName="fill-opacity" from="1" to="0" values="1;0" dur="2s" repeatCount="indefinite" begin="0.690s"
      calcMode="spline" keyTimes="0;1" keySplines="0.4,0,0.2,1"></animate>
  </rect>
  <rect x="330" y="410" width="10" height="10" fill="hsl(0,0%,123%)">
    <animate attributeName="x" from="330" to="140" values="330;140" dur="2s" repeatCount="indefinite" begin="1.842s"
      calcMode="spline" keyTimes="0;1" keySplines="0.4,0,0.2,1"></animate>
    <animate attributeName="y" from="410" to="140" values="410;140" dur="2s" repeatCount="indefinite" begin="1.842s"
      calcMode="spline" keyTimes="0;1" keySplines="0.4,0,0.2,1"></animate>
    <animate attributeName="fill-opacity" from="1" to="0" values="1;0" dur="2s" repeatCount="indefinite" begin="1.842s"
      calcMode="spline" keyTimes="0;1" keySplines="0.4,0,0.2,1"></animate>
  </rect>
  <rect x="720" y="30" width="10" height="10" fill="hsl(0,0%,121%)">
    <animate attributeName="x" from="720" to="140" values="720;140" dur="2s" repeatCount="indefinite" begin="1.951s"
      calcMode="spline" keyTimes="0;1" keySplines="0.4,0,0.2,1"></animate>
    <animate attributeName="y" from="30" to="140" values="30;140" dur="2s" repeatCount="indefinite" begin="1.951s"
      calcMode="spline" keyTimes="0;1" keySplines="0.4,0,0.2,1"></animate>
    <animate attributeName="fill-opacity" from="1" to="0" values="1;0" dur="2s" repeatCount="indefinite" begin="1.951s"
      calcMode="spline" keyTimes="0;1" keySplines="0.4,0,0.2,1"></animate>
  </rect>
  <rect x="170" y="390" width="10" height="10" fill="hsl(0,0%,50%)">
    <animate attributeName="x" from="170" to="140" values="170;140" dur="2s" repeatCount="indefinite" begin="1.48s"
      calcMode="spline" keyTimes="0;1" keySplines="0.4,0,0.2,1"></animate>
    <animate attributeName="y" from="390" to="140" values="390;140" dur="2s" repeatCount="indefinite" begin="1.48s"
      calcMode="spline" keyTimes="0;1" keySplines="0.4,0,0.2,1"></animate>
    <animate attributeName="fill-opacity" from="1" to="0" values="1;0" dur="2s" repeatCount="indefinite" begin="1.48s"
      calcMode="spline" keyTimes="0;1" keySplines="0.4,0,0.2,1"></animate>
  </rect>
  <rect x="40" y="70" width="10" height="10" fill="hsl(0,0%,119%)">
    <animate attributeName="x" from="40" to="140" values="40;140" dur="2s" repeatCount="indefinite" begin="1.754s"
      calcMode="spline" keyTimes="0;1" keySplines="0.4,0,0.2,1"></animate>
    <animate attributeName="y" from="70" to="140" values="70;140" dur="2s" repeatCount="indefinite" begin="1.754s"
      calcMode="spline" keyTimes="0;1" keySplines="0.4,0,0.2,1"></animate>
    <animate attributeName="fill-opacity" from="1" to="0" values="1;0" dur="2s" repeatCount="indefinite" begin="1.754s"
      calcMode="spline" keyTimes="0;1" keySplines="0.4,0,0.2,1"></animate>
  </rect>
</svg>