<svg xmlns="http://www.w3.org/2000/svg" viewBox="0 0 280 280" width="280" height="280">
  <defs>
    <g id="full">
      <g id="edge">
        <rect x="110" y="70" width="10" height="10" fill="hsl(0,90%,20%)"></rect>
        <rect x="120" y="70" width="10" height="10" fill="hsl(0,90%,20%)"></rect>
        <rect x="130" y="70" width="10" height="10" fill="hsl(0,90%,20%)"></rect>
        <rect x="140" y="70" width="10" height="10" fill="hsl(0,90%,20%)"></rect>
        <rect x="90" y="80" width="10" height="10" fill="hsl(0,90%,20%)"></rect>
        <rect x="100" y="80" width="10" height="10" fill="hsl(0,90%,20%)"></rect>
        <rect x="110" y="80" width="10" height="10" fill="hsl(15,90%,55%)"></rect>
        <rect x="120" y="80" width="10" height="10" fill="hsl(15,90%,55%)"></rect>
        <rect x="130" y="80" width="10" height="10" fill="hsl(15,90%,55%)"></rect>
        <rect x="140" y="80" width="10" height="10" fill="hsl(15,90%,55%)"></rect>
        <rect x="80" y="90" width="10" height="10" fill="hsl(0,90%,20%)"></rect>
        <rect x="90" y="90" width="10" height="10" fill="hsl(0,90%,20%)"></rect>
        <rect x="100" y="90" width="10" height="10" fill="hsl(15,90%,55%)"></rect>
        <rect x="110" y="90" width="10" height="10" fill="hsl(35,90%,80%)"></rect>
        <rect x="120" y="90" width="10" height="10" fill="hsl(35,90%,80%)"></rect>
        <rect x="130" y="90" width="10" height="10" fill="hsl(35,90%,80%)"></rect>
        <rect x="140" y="90" width="10" height="10" fill="hsl(35,90%,80%)"></rect>
        <rect x="80" y="100" width="10" height="10" fill="hsl(0,90%,20%)"></rect>
        <rect x="90" y="100" width="10" height="10" fill="hsl(15,90%,55%)"></rect>
        <rect x="100" y="100" width="10" height="10" fill="hsl(35,90%,80%)"></rect>
        <rect x="110" y="100" width="10" height="10" fill="hsl(35,90%,80%)"></rect>
        <rect x="70" y="110" width="10" height="10" fill="hsl(0,90%,20%)"></rect>
        <rect x="80" y="110" width="10" height="10" fill="hsl(15,90%,55%)"></rect>
        <rect x="90" y="110" width="10" height="10" fill="hsl(35,90%,80%)"></rect>
        <rect x="100" y="110" width="10" height="10" fill="hsl(35,90%,80%)"></rect>
        <rect x="70" y="120" width="10" height="10" fill="hsl(0,90%,20%)"></rect>
        <rect x="80" y="120" width="10" height="10" fill="hsl(15,90%,55%)"></rect>
        <rect x="90" y="120" width="10" height="10" fill="hsl(35,90%,80%)"></rect>
        <rect x="70" y="130" width="10" height="10" fill="hsl(0,90%,20%)"></rect>
        <rect x="80" y="130" width="10" height="10" fill="hsl(15,90%,55%)"></rect>
        <rect x="90" y="130" width="10" height="10" fill="hsl(35,90%,80%)"></rect>
        <rect x="70" y="140" width="10" height="10" fill="hsl(0,90%,20%)"></rect>
        <rect x="80" y="140" width="10" height="10" fill="hsl(15,90%,55%)"></rect>
        <rect x="90" y="140" width="10" height="10" fill="hsl(35,90%,80%)"></rect>
      </g>
      <use href="#edge" transform="scale(-1,1),translate(-280,0)"></use>
      <use href="#edge" transform="scale(1,-1),translate(0,-280)"></use>
      <use href="#edge" transform="scale(-1,-1),translate(-280,-280)"></use>
    </g>
  </defs>
  <rect x="0" y="0" width="280" height="280" fill="black"></rect>
  <g id="background">
    <rect x="230" y="0" width="10" height="10" fill="hsl(0,0%,8%)"></rect>
    <rect x="230" y="20" width="10" height="10" fill="hsl(0,0%,12%)"></rect>
    <rect x="230" y="250" width="10" height="10" fill="hsl(0,0%,6%)"></rect>
    <rect x="170" y="220" width="10" height="10" fill="hsl(0,0%,11%)"></rect>
    <rect x="230" y="230" width="10" height="10" fill="hsl(0,0%,7%)"></rect>
    <rect x="140" y="200" width="10" height="10" fill="hsl(0,0%,10%)"></rect>
    <rect x="140" y="90" width="10" height="10" fill="hsl(0,0%,11%)"></rect>
    <rect x="80" y="60" width="10" height="10" fill="hsl(0,0%,8%)"></rect>
    <rect x="90" y="120" width="10" height="10" fill="hsl(0,0%,8%)"></rect>
    <rect x="10" y="10" width="10" height="10" fill="hsl(0,0%,5%)"></rect>
    <rect x="120" y="90" width="10" height="10" fill="hsl(0,0%,11%)"></rect>
    <rect x="160" y="70" width="10" height="10" fill="hsl(0,0%,7%)"></rect>
    <rect x="10" y="200" width="10" height="10" fill="hsl(0,0%,6%)"></rect>
    <rect x="140" y="30" width="10" height="10" fill="hsl(0,0%,12%)"></rect>
    <rect x="140" y="260" width="10" height="10" fill="hsl(0,0%,5%)"></rect>
    <rect x="160" y="140" width="10" height="10" fill="hsl(0,0%,5%)"></rect>
    <rect x="10" y="210" width="10" height="10" fill="hsl(0,0%,12%)"></rect>
    <rect x="200" y="130" width="10" height="10" fill="hsl(0,0%,8%)"></rect>
    <rect x="150" y="0" width="10" height="10" fill="hsl(0,0%,5%)"></rect>
    <rect x="180" y="190" width="10" height="10" fill="hsl(0,0%,11%)"></rect>
    <rect x="110" y="30" width="10" height="10" fill="hsl(0,0%,9%)"></rect>
    <rect x="40" y="140" width="10" height="10" fill="hsl(0,0%,10%)"></rect>
    <rect x="180" y="270" width="10" height="10" fill="hsl(0,0%,7%)"></rect>
    <rect x="0" y="140" width="10" height="10" fill="hsl(0,0%,9%)"></rect>
    <rect x="30" y="0" width="10" height="10" fill="hsl(0,0%,11%)"></rect>
    <rect x="130" y="220" width="10" height="10" fill="hsl(0,0%,9%)"></rect>
    <rect x="90" y="160" width="10" height="10" fill="hsl(0,0%,6%)"></rect>
    <rect x="10" y="260" width="10" height="10" fill="hsl(0,0%,5%)"></rect>
    <rect x="0" y="90" width="10" height="10" fill="hsl(0,0%,10%)"></rect>
    <rect x="110" y="10" width="10" height="10" fill="hsl(0,0%,12%)"></rect>
  </g>
  <rect fill="black" x="100" y="100" width="80" height="80"></rect>
  <use href="#full"></use>
  <rect x="640" y="210" width="10" height="10" fill="hsl(0,0%,126%)">
    <animate attributeName="x" from="640" to="140" values="640;140" dur="2s" repeatCount="indefinite" begin="0.103s"
      calcMode="spline" keyTimes="0;1" keySplines="0.4,0,0.2,1"></animate>
    <animate attributeName="y" from="210" to="140" values="210;140" dur="2s" repeatCount="indefinite" begin="0.103s"
      calcMode="spline" keyTimes="0;1" keySplines="0.4,0,0.2,1"></animate>
    <animate attributeName="fill-opacity" from="1" to="0" values="1;0" dur="2s" repeatCount="indefinite" begin="0.103s"
      calcMode="spline" keyTimes="0;1" keySplines="0.4,0,0.2,1"></animate>
  </rect>
  <rect x="480" y="490" width="10" height="10" fill="hsl(0,0%,28%)">
    <animate attributeName="x" from="480" to="140" values="480;140" dur="2s" repeatCount="indefinite" begin="1.555s"
      calcMode="spline" keyTimes="0;1" keySplines="0.4,0,0.2,1"></animate>
    <animate attributeName="y" from="490" to="140" values="490;140" dur="2s" repeatCount="indefinite" begin="1.555s"
      calcMode="spline" keyTimes="0;1" keySplines="0.4,0,0.2,1"></animate>
    <animate attributeName="fill-opacity" from="1" to="0" values="1;0" dur="2s" repeatCount="indefinite" begin="1.555s"
      calcMode="spline" keyTimes="0;1" keySplines="0.4,0,0.2,1"></animate>
  </rect>
  <rect x="430" y="380" width="10" height="10" fill="hsl(0,0%,50%)">
    <animate attributeName="x" from="430" to="140" values="430;140" dur="2s" repeatCount="indefinite" begin="1.738s"
      calcMode="spline" keyTimes="0;1" keySplines="0.4,0,0.2,1"></animate>
    <animate attributeName="y" from="380" to="140" values="380;140" dur="2s" repeatCount="indefinite" begin="1.738s"
      calcMode="spline" keyTimes="0;1" keySplines="0.4,0,0.2,1"></animate>
    <animate attributeName="fill-opacity" from="1" to="0" values="1;0" dur="2s" repeatCount="indefinite" begin="1.738s"
      calcMode="spline" keyTimes="0;1" keySplines="0.4,0,0.2,1"></animate>
  </rect>
  <rect x="720" y="70" width="10" height="10" fill="hsl(0,0%,23%)">
    <animate attributeName="x" from="720" to="140" values="720;140" dur="2s" repeatCount="indefinite" begin="0.927s"
      calcMode="spline" keyTimes="0;1" keySplines="0.4,0,0.2,1"></animate>
    <animate attributeName="y" from="70" to="140" values="70;140" dur="2s" repeatCount="indefinite" begin="0.927s"
      calcMode="spline" keyTimes="0;1" keySplines="0.4,0,0.2,1"></animate>
    <animate attributeName="fill-opacity" from="1" to="0" values="1;0" dur="2s" repeatCount="indefinite" begin="0.927s"
      calcMode="spline" keyTimes="0;1" keySplines="0.4,0,0.2,1"></animate>
  </rect>
  <rect x="310" y="50" width="10" height="10" fill="hsl(0,0%,65%)">
    <animate attributeName="x" from="310" to="140" values="310;140" dur="2s" repeatCount="indefinite" begin="0.874s"
      calcMode="spline" keyTimes="0;1" keySplines="0.4,0,0.2,1"></animate>
    <animate attributeName="y" from="50" to="140" values="50;140" dur="2s" repeatCount="indefinite" begin="0.874s"
      calcMode="spline" keyTimes="0;1" keySplines="0.4,0,0.2,1"></animate>
    <animate attributeName="fill-opacity" from="1" to="0" values="1;0" dur="2s" repeatCount="indefinite" begin="0.874s"
      calcMode="spline" keyTimes="0;1" keySplines="0.4,0,0.2,1"></animate>
  </rect>
  <rect x="790" y="480" width="10" height="10" fill="hsl(0,0%,190%)">
    <animate attributeName="x" from="790" to="140" values="790;140" dur="2s" repeatCount="indefinite" begin="1.60s"
      calcMode="spline" keyTimes="0;1" keySplines="0.4,0,0.2,1"></animate>
    <animate attributeName="y" from="480" to="140" values="480;140" dur="2s" repeatCount="indefinite" begin="1.60s"
      calcMode="spline" keyTimes="0;1" keySplines="0.4,0,0.2,1"></animate>
    <animate attributeName="fill-opacity" from="1" to="0" values="1;0" dur="2s" repeatCount="indefinite" begin="1.60s"
      calcMode="spline" keyTimes="0;1" keySplines="0.4,0,0.2,1"></animate>
  </rect>
  <rect x="40" y="270" width="10" height="10" fill="hsl(0,0%,57%)">
    <animate attributeName="x" from="40" to="140" values="40;140" dur="2s" repeatCount="indefinite" begin="0.89s"
      calcMode="spline" keyTimes="0;1" keySplines="0.4,0,0.2,1"></animate>
    <animate attributeName="y" from="270" to="140" values="270;140" dur="2s" repeatCount="indefinite" begin="0.89s"
      calcMode="spline" keyTimes="0;1" keySplines="0.4,0,0.2,1"></animate>
    <animate attributeName="fill-opacity" from="1" to="0" values="1;0" dur="2s" repeatCount="indefinite" begin="0.89s"
      calcMode="spline" keyTimes="0;1" keySplines="0.4,0,0.2,1"></animate>
  </rect>
  <rect x="10" y="310" width="10" height="10" fill="hsl(0,0%,112%)">
    <animate attributeName="x" from="10" to="140" values="10;140" dur="2s" repeatCount="indefinite" begin="1.970s"
      calcMode="spline" keyTimes="0;1" keySplines="0.4,0,0.2,1"></animate>
    <animate attributeName="y" from="310" to="140" values="310;140" dur="2s" repeatCount="indefinite" begin="1.970s"
      calcMode="spline" keyTimes="0;1" keySplines="0.4,0,0.2,1"></animate>
    <animate attributeName="fill-opacity" from="1" to="0" values="1;0" dur="2s" repeatCount="indefinite" begin="1.970s"
      calcMode="spline" keyTimes="0;1" keySplines="0.4,0,0.2,1"></animate>
  </rect>
  <rect x="360" y="170" width="10" height="10" fill="hsl(0,0%,48%)">
    <animate attributeName="x" from="360" to="140" values="360;140" dur="2s" repeatCount="indefinite" begin="1.481s"
      calcMode="spline" keyTimes="0;1" keySplines="0.4,0,0.2,1"></animate>
    <animate attributeName="y" from="170" to="140" values="170;140" dur="2s" repeatCount="indefinite" begin="1.481s"
      calcMode="spline" keyTimes="0;1" keySplines="0.4,0,0.2,1"></animate>
    <animate attributeName="fill-opacity" from="1" to="0" values="1;0" dur="2s" repeatCount="indefinite" begin="1.481s"
      calcMode="spline" keyTimes="0;1" keySplines="0.4,0,0.2,1"></animate>
  </rect>
  <rect x="490" y="480" width="10" height="10" fill="hsl(0,0%,31%)">
    <animate attributeName="x" from="490" to="140" values="490;140" dur="2s" repeatCount="indefinite" begin="0.509s"
      calcMode="spline" keyTimes="0;1" keySplines="0.4,0,0.2,1"></animate>
    <animate attributeName="y" from="480" to="140" values="480;140" dur="2s" repeatCount="indefinite" begin="0.509s"
      calcMode="spline" keyTimes="0;1" keySplines="0.4,0,0.2,1"></animate>
    <animate attributeName="fill-opacity" from="1" to="0" values="1;0" dur="2s" repeatCount="indefinite" begin="0.509s"
      calcMode="spline" keyTimes="0;1" keySplines="0.4,0,0.2,1"></animate>
  </rect>
</svg>