<svg xmlns="http://www.w3.org/2000/svg" viewBox="0 0 280 280" width="280" height="280">
  <defs>
    <g id="full">
      <g id="edge">
        <rect x="100" y="60" width="10" height="10" fill="hsl(5,90%,20%)"></rect>
        <rect x="110" y="60" width="10" height="10" fill="hsl(5,90%,20%)"></rect>
        <rect x="120" y="60" width="10" height="10" fill="hsl(5,90%,20%)"></rect>
        <rect x="130" y="60" width="10" height="10" fill="hsl(5,90%,20%)"></rect>
        <rect x="140" y="60" width="10" height="10" fill="hsl(5,90%,20%)"></rect>
        <rect x="90" y="70" width="10" height="10" fill="hsl(5,90%,20%)"></rect>
        <rect x="100" y="70" width="10" height="10" fill="hsl(5,90%,20%)"></rect>
        <rect x="110" y="70" width="10" height="10" fill="hsl(25,90%,55%)"></rect>
        <rect x="120" y="70" width="10" height="10" fill="hsl(25,90%,55%)"></rect>
        <rect x="130" y="70" width="10" height="10" fill="hsl(25,90%,55%)"></rect>
        <rect x="140" y="70" width="10" height="10" fill="hsl(25,90%,55%)"></rect>
        <rect x="80" y="80" width="10" height="10" fill="hsl(5,90%,20%)"></rect>
        <rect x="90" y="80" width="10" height="10" fill="hsl(25,90%,55%)"></rect>
        <rect x="100" y="80" width="10" height="10" fill="hsl(25,90%,55%)"></rect>
        <rect x="110" y="80" width="10" height="10" fill="hsl(45,90%,80%)"></rect>
        <rect x="120" y="80" width="10" height="10" fill="hsl(45,90%,80%)"></rect>
        <rect x="130" y="80" width="10" height="10" fill="hsl(45,90%,80%)"></rect>
        <rect x="140" y="80" width="10" height="10" fill="hsl(45,90%,80%)"></rect>
        <rect x="70" y="90" width="10" height="10" fill="hsl(5,90%,20%)"></rect>
        <rect x="80" y="90" width="10" height="10" fill="hsl(25,90%,55%)"></rect>
        <rect x="90" y="90" width="10" height="10" fill="hsl(25,90%,55%)"></rect>
        <rect x="100" y="90" width="10" height="10" fill="hsl(45,90%,80%)"></rect>
        <rect x="60" y="100" width="10" height="10" fill="hsl(5,90%,20%)"></rect>
        <rect x="70" y="100" width="10" height="10" fill="hsl(5,90%,20%)"></rect>
        <rect x="80" y="100" width="10" height="10" fill="hsl(25,90%,55%)"></rect>
        <rect x="90" y="100" width="10" height="10" fill="hsl(45,90%,80%)"></rect>
        <rect x="60" y="110" width="10" height="10" fill="hsl(5,90%,20%)"></rect>
        <rect x="70" y="110" width="10" height="10" fill="hsl(25,90%,55%)"></rect>
        <rect x="80" y="110" width="10" height="10" fill="hsl(45,90%,80%)"></rect>
        <rect x="60" y="120" width="10" height="10" fill="hsl(5,90%,20%)"></rect>
        <rect x="70" y="120" width="10" height="10" fill="hsl(25,90%,55%)"></rect>
        <rect x="80" y="120" width="10" height="10" fill="hsl(45,90%,80%)"></rect>
        <rect x="60" y="130" width="10" height="10" fill="hsl(5,90%,20%)"></rect>
        <rect x="70" y="130" width="10" height="10" fill="hsl(25,90%,55%)"></rect>
        <rect x="80" y="130" width="10" height="10" fill="hsl(45,90%,80%)"></rect>
        <rect x="60" y="140" width="10" height="10" fill="hsl(5,90%,20%)"></rect>
        <rect x="70" y="140" width="10" height="10" fill="hsl(25,90%,55%)"></rect>
        <rect x="80" y="140" width="10" height="10" fill="hsl(45,90%,80%)"></rect>
      </g>
      <use href="#edge" transform="scale(-1,1),translate(-280,0)"></use>
      <use href="#edge" transform="scale(1,-1),translate(0,-280)"></use>
      <use href="#edge" transform="scale(-1,-1),translate(-280,-280)"></use>
    </g>
  </defs>
  <rect x="0" y="0" width="280" height="280" fill="black"></rect>
  <g id="background">
    <rect x="110" y="170" width="10" height="10" fill="hsl(0,0%,7%)"></rect>
    <rect x="90" y="90" width="10" height="10" fill="hsl(0,0%,5%)"></rect>
    <rect x="50" y="260" width="10" height="10" fill="hsl(0,0%,12%)"></rect>
    <rect x="210" y="140" width="10" height="10" fill="hsl(0,0%,9%)"></rect>
    <rect x="100" y="280" width="10" height="10" fill="hsl(0,0%,6%)"></rect>
    <rect x="70" y="20" width="10" height="10" fill="hsl(0,0%,5%)"></rect>
    <rect x="210" y="260" width="10" height="10" fill="hsl(0,0%,12%)"></rect>
    <rect x="120" y="60" width="10" height="10" fill="hsl(0,0%,8%)"></rect>
    <rect x="40" y="30" width="10" height="10" fill="hsl(0,0%,12%)"></rect>
    <rect x="10" y="140" width="10" height="10" fill="hsl(0,0%,8%)"></rect>
    <rect x="280" y="40" width="10" height="10" fill="hsl(0,0%,8%)"></rect>
    <rect x="40" y="40" width="10" height="10" fill="hsl(0,0%,6%)"></rect>
  </g>
  <rect fill="black" x="90" y="90" width="100" height="100"></rect>
  <use href="#full"></use>
</svg>