<svg xmlns="http://www.w3.org/2000/svg" viewBox="0 0 280 280" width="280" height="280">
  <defs>
    <g id="full">
      <g id="edge">
        <rect x="100" y="40" width="10" height="10" fill="hsl(230,90%,20%)"></rect>
        <rect x="110" y="40" width="10" height="10" fill="hsl(230,90%,20%)"></rect>
        <rect x="120" y="40" width="10" height="10" fill="hsl(230,90%,20%)"></rect>
        <rect x="130" y="40" width="10" height="10" fill="hsl(230,90%,20%)"></rect>
        <rect x="140" y="40" width="10" height="10" fill="hsl(230,90%,20%)"></rect>
        <rect x="80" y="50" width="10" height="10" fill="hsl(230,90%,20%)"></rect>
        <rect x="90" y="50" width="10" height="10" fill="hsl(230,90%,20%)"></rect>
        <rect x="100" y="50" width="10" height="10" fill="hsl(250,90%,55%)"></rect>
        <rect x="110" y="50" width="10" height="10" fill="hsl(250,90%,55%)"></rect>
        <rect x="120" y="50" width="10" height="10" fill="hsl(250,90%,55%)"></rect>
        <rect x="130" y="50" width="10" height="10" fill="hsl(250,90%,55%)"></rect>
        <rect x="140" y="50" width="10" height="10" fill="hsl(250,90%,55%)"></rect>
        <rect x="70" y="60" width="10" height="10" fill="hsl(230,90%,20%)"></rect>
        <rect x="80" y="60" width="10" height="10" fill="hsl(230,90%,20%)"></rect>
        <rect x="90" y="60" width="10" height="10" fill="hsl(250,90%,55%)"></rect>
        <rect x="100" y="60" width="10" height="10" fill="hsl(270,90%,80%)"></rect>
        <rect x="110" y="60" width="10" height="10" fill="hsl(270,90%,80%)"></rect>
        <rect x="120" y="60" width="10" height="10" fill="hsl(270,90%,80%)"></rect>
        <rect x="130" y="60" width="10" height="10" fill="hsl(270,90%,80%)"></rect>
        <rect x="140" y="60" width="10" height="10" fill="hsl(270,90%,80%)"></rect>
        <rect x="60" y="70" width="10" height="10" fill="hsl(230,90%,20%)"></rect>
        <rect x="70" y="70" width="10" height="10" fill="hsl(250,90%,55%)"></rect>
        <rect x="80" y="70" width="10" height="10" fill="hsl(250,90%,55%)"></rect>
        <rect x="90" y="70" width="10" height="10" fill="hsl(270,90%,80%)"></rect>
        <rect x="100" y="70" width="10" height="10" fill="hsl(270,90%,80%)"></rect>
        <rect x="50" y="80" width="10" height="10" fill="hsl(230,90%,20%)"></rect>
        <rect x="60" y="80" width="10" height="10" fill="hsl(230,90%,20%)"></rect>
        <rect x="70" y="80" width="10" height="10" fill="hsl(250,90%,55%)"></rect>
        <rect x="80" y="80" width="10" height="10" fill="hsl(270,90%,80%)"></rect>
        <rect x="50" y="90" width="10" height="10" fill="hsl(230,90%,20%)"></rect>
        <rect x="60" y="90" width="10" height="10" fill="hsl(250,90%,55%)"></rect>
        <rect x="70" y="90" width="10" height="10" fill="hsl(270,90%,80%)"></rect>
        <rect x="40" y="100" width="10" height="10" fill="hsl(230,90%,20%)"></rect>
        <rect x="50" y="100" width="10" height="10" fill="hsl(250,90%,55%)"></rect>
        <rect x="60" y="100" width="10" height="10" fill="hsl(270,90%,80%)"></rect>
        <rect x="70" y="100" width="10" height="10" fill="hsl(270,90%,80%)"></rect>
        <rect x="40" y="110" width="10" height="10" fill="hsl(230,90%,20%)"></rect>
        <rect x="50" y="110" width="10" height="10" fill="hsl(250,90%,55%)"></rect>
        <rect x="60" y="110" width="10" height="10" fill="hsl(270,90%,80%)"></rect>
        <rect x="40" y="120" width="10" height="10" fill="hsl(230,90%,20%)"></rect>
        <rect x="50" y="120" width="10" height="10" fill="hsl(250,90%,55%)"></rect>
        <rect x="60" y="120" width="10" height="10" fill="hsl(270,90%,80%)"></rect>
        <rect x="40" y="130" width="10" height="10" fill="hsl(230,90%,20%)"></rect>
        <rect x="50" y="130" width="10" height="10" fill="hsl(250,90%,55%)"></rect>
        <rect x="60" y="130" width="10" height="10" fill="hsl(270,90%,80%)"></rect>
        <rect x="40" y="140" width="10" height="10" fill="hsl(230,90%,20%)"></rect>
        <rect x="50" y="140" width="10" height="10" fill="hsl(250,90%,55%)"></rect>
        <rect x="60" y="140" width="10" height="10" fill="hsl(270,90%,80%)"></rect>
      </g>
      <use href="#edge" transform="scale(-1,1),translate(-280,0)"></use>
      <use href="#edge" transform="scale(1,-1),translate(0,-280)"></use>
      <use href="#edge" transform="scale(-1,-1),translate(-280,-280)"></use>
    </g>
  </defs>
  <rect x="0" y="0" width="280" height="280" fill="black"></rect>
  <g id="background">
    <rect x="190" y="60" width="10" height="10" fill="hsl(0,0%,12%)"></rect>
    <rect x="110" y="0" width="10" height="10" fill="hsl(0,0%,10%)"></rect>
    <rect x="200" y="60" width="10" height="10" fill="hsl(0,0%,8%)"></rect>
    <rect x="240" y="240" width="10" height="10" fill="hsl(0,0%,8%)"></rect>
    <rect x="250" y="230" width="10" height="10" fill="hsl(0,0%,5%)"></rect>
    <rect x="90" y="140" width="10" height="10" fill="hsl(0,0%,12%)"></rect>
    <rect x="150" y="110" width="10" height="10" fill="hsl(0,0%,12%)"></rect>
    <rect x="190" y="230" width="10" height="10" fill="hsl(0,0%,6%)"></rect>
    <rect x="280" y="130" width="10" height="10" fill="hsl(0,0%,8%)"></rect>
    <rect x="170" y="180" width="10" height="10" fill="hsl(0,0%,9%)"></rect>
    <rect x="50" y="40" width="10" height="10" fill="hsl(0,0%,6%)"></rect>
    <rect x="200" y="250" width="10" height="10" fill="hsl(0,0%,11%)"></rect>
    <rect x="110" y="270" width="10" height="10" fill="hsl(0,0%,7%)"></rect>
    <rect x="140" y="170" width="10" height="10" fill="hsl(0,0%,12%)"></rect>
    <rect x="100" y="250" width="10" height="10" fill="hsl(0,0%,6%)"></rect>
    <rect x="80" y="270" width="10" height="10" fill="hsl(0,0%,6%)"></rect>
    <rect x="170" y="110" width="10" height="10" fill="hsl(0,0%,10%)"></rect>
    <rect x="250" y="110" width="10" height="10" fill="hsl(0,0%,7%)"></rect>
    <rect x="150" y="220" width="10" height="10" fill="hsl(0,0%,8%)"></rect>
    <rect x="60" y="170" width="10" height="10" fill="hsl(0,0%,10%)"></rect>
    <rect x="190" y="250" width="10" height="10" fill="hsl(0,0%,5%)"></rect>
    <rect x="130" y="150" width="10" height="10" fill="hsl(0,0%,6%)"></rect>
    <rect x="170" y="70" width="10" height="10" fill="hsl(0,0%,5%)"></rect>
    <rect x="50" y="190" width="10" height="10" fill="hsl(0,0%,5%)"></rect>
    <rect x="80" y="280" width="10" height="10" fill="hsl(0,0%,9%)"></rect>
    <rect x="170" y="280" width="10" height="10" fill="hsl(0,0%,11%)"></rect>
    <rect x="170" y="240" width="10" height="10" fill="hsl(0,0%,7%)"></rect>
    <rect x="240" y="140" width="10" height="10" fill="hsl(0,0%,8%)"></rect>
    <rect x="20" y="220" width="10" height="10" fill="hsl(0,0%,7%)"></rect>
    <rect x="160" y="50" width="10" height="10" fill="hsl(0,0%,12%)"></rect>
  </g>
  <rect fill="black" x="70" y="70" width="140" height="140"></rect>
  <use href="#full"></use>
</svg>